<?xml version="1.0" standalone="no"?>
<!DOCTYPE svg PUBLIC "-//W3C//DTD SVG 1.1//EN" "http://www.w3.org/Graphics/SVG/1.1/DTD/svg11.dtd" >
<svg xmlns="http://www.w3.org/2000/svg" xmlns:xlink="http://www.w3.org/1999/xlink" version="1.1">
<metadata>
Created by FontForge 20170731 at Fri Feb 18 04:19:42 2011
 By Aleksey,,,
</metadata>
<defs>
<font id="Noteworthy-Light" horiz-adv-x="367" >
  <font-face 
    font-family="Noteworthy"
    font-weight="300"
    font-stretch="normal"
    units-per-em="800"
    panose-1="2 0 4 0 0 0 0 0 0 0"
    ascent="640"
    descent="-160"
    x-height="424"
    cap-height="675"
    bbox="-364 -345 1045 1004"
    underline-thickness="20"
    underline-position="-163"
    unicode-range="U+0008-FE48"
  />
<missing-glyph horiz-adv-x="500" 
d="M63 0v800h375v-800h-375zM125 63h250v675h-250v-675z" />
    <glyph glyph-name=".notdef" horiz-adv-x="500" 
d="M63 0v800h375v-800h-375zM125 63h250v675h-250v-675z" />
    <glyph glyph-name=".null" horiz-adv-x="0" 
 />
    <glyph glyph-name="nonmarkingreturn" unicode="&#xd;" horiz-adv-x="211" 
 />
    <glyph glyph-name="NULL" horiz-adv-x="0" 
 />
    <glyph glyph-name="NULL" horiz-adv-x="0" 
 />
    <glyph glyph-name="NULL" horiz-adv-x="0" 
 />
    <glyph glyph-name="space" unicode="&#x9;" horiz-adv-x="211" 
 />
    <glyph glyph-name="space" unicode=" " horiz-adv-x="211" 
 />
    <glyph glyph-name="exclam" unicode="!" horiz-adv-x="209" 
d="M189 653q-6 -8 -15 -27q-40 -144 -50 -316q0 -6 -2.5 -21.5t-2.5 -24.5q0 -12 16 -76q-4 -4 -14 -12q-4 -1 -15 -1q-14 0 -22 4q-10 20 -10 72v10l29 348q0 4 -6 24.5t-7 22.5q23 20 51 20q25 0 48 -23zM158 58q0 -69 -77 -69q-14 0 -53 18q-8 15 -8 33q0 30 17 40
q12 8 42 8q79 0 79 -30z" />
    <glyph glyph-name="quotedbl" unicode="&#x22;" horiz-adv-x="202" 
d="M182 659q0 -2 -6.5 -12.5t-7.5 -13.5q-6 -17 -6 -54q0 -13 1.5 -38.5t1.5 -38.5q0 -38 -29 -38q-18 0 -23 10q-2 115 -2 127q0 15 4 40q6 31 13 33q4 2 11 2q43 0 43 -17zM74 505q0 -41 -28 -41q-19 0 -23 10q-3 135 -3 160q0 49 28 49q10 0 21 -12v-9q0 -2 1 -7.5
t1 -8.5q0 -7 -3 -20.5t-3 -20.5q0 -17 4.5 -50t4.5 -50z" />
    <glyph glyph-name="numbersign" unicode="#" horiz-adv-x="429" 
d="M409 492q0 -5 -3 -15t-4 -13q-16 -4 -14 -4q-4 0 -12.5 5.5t-11.5 6.5q-8 2 -51 3q-11 -79 -31 -237q29 1 33 1q21 0 37 -8q21 -10 21 -29q0 -5 -3 -15t-3 -13q-17 -4 -14 -4q-4 0 -12.5 5.5t-11.5 6.5q-9 2 -53 4q-6 -63 -6 -136q0 -4 3 -13.5t3 -13.5q0 -12 -9.5 -20.5
t-21.5 -8.5q-30 0 -30 54q0 56 12 141q-19 2 -43 2q-22 0 -47 -2q-1 -13 -10 -78q-7 -47 -7 -78q0 -43 -31 -43q-6 0 -13.5 10.5t-7.5 16.5q0 28 18 163l-46 -18q-7 0 -13.5 14t-6.5 23q0 1 3 25l69 4l32 243q-50 -19 -48 -19q-7 0 -13.5 14t-6.5 23q0 1 3 25l71 4
q12 82 12 111q0 21 2 37q21 14 33 14q14 0 26 -9t12 -22q0 -11 -7 -28q-10 -22 -12 -26q-4 -16 -16 -75l91 5q6 40 19 148q25 17 29 17q13 0 25 -9t12 -22t-7 -33q-12 -28 -13 -31q-6 -25 -14 -67q25 1 28 1q21 0 38 -8q21 -10 21 -29zM265 478q-21 3 -45 3q-22 0 -47 -2
q-11 -83 -32 -249l92 5z" />
    <glyph glyph-name="dollar" unicode="$" horiz-adv-x="451" 
d="M431 509q0 -30 -71 -30q-6 0 -18.5 1.5t-18.5 1.5q-17 0 -29 -9q-11 -136 -11 -156q42 -12 84 -23q54 -17 54 -53q0 -41 -52 -63l-86 -30v-31q-1 -54 11 -103l12 -6q-3 -26 -39 -25h-6q-6 12 -13 37q-6 30 -9 115q-6 6 -42 6q-46 0 -102 15q-75 19 -75 50q0 26 41 26
q14 0 35 -16q31 -25 32 -26q28 -17 95 -17q8 0 14 6v97q-72 30 -80 34q-45 27 -45 67q0 48 47 83q3 3 88 51v137q0 15 15 25t31 10q10 0 36 -17v-11q0 -3 -7 -7.5t-9 -6.5q-5 -6 -10 -54q-4 -39 -4 -59q13 0 37.5 5t36.5 5q58 0 58 -29zM242 328v134h-10q-57 -29 -57 -72
q0 -17 17 -39.5t34 -22.5h16zM332 222q0 30 -49 43v-78h14q11 0 23 12.5t12 22.5z" />
    <glyph glyph-name="percent" unicode="%" horiz-adv-x="640" 
d="M620 158q0 -69 -30 -114q-36 -52 -102 -52q-62 0 -95 43q-30 40 -30 104q0 56 24 119q30 79 76 79q11 0 37 -11l9 -24q5 6 15 6q47 0 74 -54q22 -44 22 -96zM526 639q0 -5 -5 -10q-33 -16 -120 -180q-70 -133 -102 -212q-13 -31 -41 -111q-33 -92 -33 -101q0 -4 6.5 -9.5
t6.5 -9.5q0 -14 -15 -14q-10 0 -26 16q-1 34 -1 33q0 53 77 228q52 120 105 240l-3 6q-32 -15 -103 -40q-14 -65 -32 -94q-29 -44 -84 -44q-116 0 -116 144q0 73 25 124q32 67 97 67q50 0 83 -51q30 -45 31 -97l4 -6q37 2 95.5 39.5t74.5 70.5q5 15 10 29q7 18 22 18
t29.5 -10.5t14.5 -25.5zM241 526q0 32 -20 68q-22 40 -51 40q-18 0 -28.5 -15t-10.5 -35q0 -35 29 -55t65 -20q16 0 16 17zM579 158q0 85 -50 114q-13 5 -26 10.5t-12 19.5h-11q-30 -15 -55 -71q-21 -50 -21 -89q0 -45 19 -78q22 -41 64 -41q43 0 70 48q22 40 22 87z
M231 463v11q-104 1 -133 88q-17 -53 -17 -67q0 -127 72 -127q28 0 49 25q18 22 24 51q6 7 5 19z" />
    <glyph glyph-name="ampersand" unicode="&#x26;" horiz-adv-x="615" 
d="M595 3q0 -14 -26 -26q-22 -10 -39 -10q-42 0 -87 29q-48 31 -54 32q-119 -51 -208 -51q-69 0 -111 28q-50 34 -50 99q0 64 94 168q8 8 21 24q-34 69 -43 92q-18 49 -18 100q0 82 47.5 135t128.5 53q57 0 95.5 -37t38.5 -94q0 -31 -7 -53q-16 -46 -172 -206
q2 -23 86.5 -108.5t105.5 -85.5q17 0 64.5 34.5t47.5 49.5q0 19 -49 34q-40 13 -66 13t-50 -13q-14 7 -14 19q0 29 42 29q207 0 207 -53q0 -67 -137 -147q12 -19 42.5 -36t53.5 -17q7 0 21 6.5t22 6.5q3 0 14 -4v-11zM333 566q0 33 -21 54t-54 21q-55 0 -95.5 -47
t-40.5 -103q0 -32 15 -82q16 -54 35 -75q56 40 104 102q57 75 57 130zM340 68q-91 75 -175 180q-84 -91 -84 -166q0 -38 28 -51q19 -10 61 -10q29 0 92 15q72 16 78 32z" />
    <glyph glyph-name="quotesingle" unicode="'" horiz-adv-x="111" 
d="M91 669q0 -2 -6.5 -12.5t-7.5 -13.5q-6 -17 -6 -54q0 -13 1.5 -38.5t1.5 -38.5q0 -38 -29 -38q-18 0 -23 10q-2 115 -2 127q0 15 4 40q6 31 13 33q4 2 11 2q43 0 43 -17z" />
    <glyph glyph-name="parenleft" unicode="(" horiz-adv-x="195" 
d="M145 688q-3 -7 -9 -7q-3 0 -4.5 1.5t-3.5 1.5q-28 0 -44 -133q-11 -93 -11 -164q0 -225 32 -326q2 -7 18 -44t16 -40q0 -28 -36 -28q-18 0 -40 76q-43 144 -43 320q0 83 22 203q26 145 63 184q4 5 10 5q30 0 30 -49z" />
    <glyph glyph-name="parenright" unicode=")" horiz-adv-x="206" 
d="M186 328q0 -175 -51 -305q-21 -53 -38 -53q-9 0 -47 17v18q78 26 78 281q0 97 -11 199q-14 144 -42 179q-10 12 -25 16v17q0 10 12.5 19t22.5 9q11 0 16 -2q43 -48 67 -188q18 -108 18 -207z" />
    <glyph glyph-name="asterisk" unicode="*" horiz-adv-x="257" 
d="M237 671v-4q-15 -9 -45 -28q1 -1 24 -16q15 -10 15 -23q0 -3 -2 -8.5t-2 -8.5q-3 -4 -11 -4q-26 0 -42 14q-1 -2 -2 -6q0 -8 19 -32v-11q-21 -10 -24 -10q-11 0 -25 22q-10 17 -20 33q-13 -12 -27 -24q-17 -15 -30 -15q-8 0 -22 7v14q0 4 39 42q-5 9 -30 12t-32 10
q7 26 27 32q9 2 44 2q0 1 -14 21q-12 16 -12 20q0 9 10.5 18.5t18.5 9.5q13 0 28 -32q10 -21 20 -43q19 14 38 27q32 22 36 22q10 0 15.5 -14.5t5.5 -26.5z" />
    <glyph glyph-name="plus" unicode="+" horiz-adv-x="520" 
d="M500 360q0 -49 -46 -49h-176v-149q0 -22 9 -60q-5 -8 -11 -8q-49 0 -49 47v170h-200q-7 13 -7 25q0 11 8 22.5t18 11.5q18 0 53 -4t53 -4h75v206q13 7 25 7q11 0 26.5 -7t15.5 -17q0 -18 -8 -54t-8 -54v-81h154q23 0 61 9q7 -4 7 -11z" />
    <glyph glyph-name="comma" unicode="," horiz-adv-x="170" 
d="M30 45q0 12 8 23t35 11q18 0 32 -11.5t19 -38.5q7 -42 5.5 -72.5t-20.5 -62.5q-17 -29 -37 -46.5t-40 -17.5q-16 0 -18 13.5t12 25.5q17 15 35.5 28t28.5 37q8 20 0 42.5t-25 33.5t-26 17.5t-9 17.5z" />
    <glyph glyph-name="hyphen" unicode="-" horiz-adv-x="284" 
d="M264 247q0 -4 -8 -4q-9 0 -26.5 6.5t-26.5 6.5q-12 0 -35.5 -2t-34.5 -2q-99 0 -113 52q6 8 12 8q7 0 22.5 -6.5t25.5 -6.5q20 0 60 3.5t60 3.5q38 0 47 -14q1 -2 5 -19q3 -13 12 -15v-11z" />
    <glyph glyph-name="hyphen" unicode="&#x2010;" horiz-adv-x="284" 
d="M264 247q0 -4 -8 -4q-9 0 -26.5 6.5t-26.5 6.5q-12 0 -35.5 -2t-34.5 -2q-99 0 -113 52q6 8 12 8q7 0 22.5 -6.5t25.5 -6.5q20 0 60 3.5t60 3.5q38 0 47 -14q1 -2 5 -19q3 -13 12 -15v-11z" />
    <glyph glyph-name="period" unicode="." horiz-adv-x="133" 
d="M113 21q0 -14 -19 -24q-15 -8 -31 -8q-17 0 -30 12t-13 28q0 34 35 34q20 0 39 -11.5t19 -30.5z" />
    <glyph glyph-name="slash" unicode="/" horiz-adv-x="399" 
d="M379 676q-12 -20 -33 -62l-187 -449q-76 -181 -120 -181q-19 0 -19 16q0 9 8.5 20t15.5 20q56 90 116 234q49 122 97 244q22 55 30 87q1 18 10 51q6 14 23 24t33 10q13 0 26 -14z" />
    <glyph glyph-name="zero" unicode="0" horiz-adv-x="555" 
d="M535 356q0 -134 -65 -241q-75 -126 -200 -126q-119 0 -188 95q-62 85 -62 208q0 105 54 213q61 120 151 152q37 14 89 14q16 0 67 -21q78 -31 119 -123q35 -77 35 -171zM486 360q0 109 -39 181q-50 90 -150 90q-35 0 -72 -24q-75 -48 -116 -139q-37 -84 -37 -179
q0 -52 7 -83q15 -70 71.5 -116t128.5 -46q106 0 162 111q45 88 45 205z" />
    <glyph glyph-name="one" unicode="1" horiz-adv-x="172" 
d="M132 605q0 -3 -12 -70q-23 -134 -23 -202v-207q0 -85 10 -103q1 -2 8 -10t7 -13q0 -17 -17 -17q-16 0 -41 13q-8 17 -8 33v449q-5 4 -16 12v24q0 23 17 90q18 72 29 72q15 0 30.5 -27.5t15.5 -43.5z" />
    <glyph glyph-name="two" unicode="2" horiz-adv-x="522" 
d="M502 48q0 -24 -14 -24q1 0 -16 5q-25 8 -58 8q-139 0 -285 -39q-2 -1 -36 -12q-27 -9 -34 -9q-39 0 -39 36q0 17 17 36q31 27 93 83q87 78 158 183q88 129 88 217q0 46 -31.5 76.5t-78.5 30.5q-49 0 -102.5 -39.5t-67.5 -85.5q-4 -30 -9 -60q-8 -45 -26 -45
q-7 0 -22.5 12.5t-15.5 18.5q0 56 51 122q47 61 101 88q46 24 99 24q64 0 111.5 -48t47.5 -111q0 -100 -96 -220q-57 -72 -176 -177q-25 -23 -34 -32q-18 -20 -25 -38q5 -9 17 -9l5 1l343 54q16 1 27 -15q8 -14 8 -31z" />
    <glyph glyph-name="three" unicode="3" horiz-adv-x="570" 
d="M550 226q0 -64 -38 -113q-91 -120 -248 -120q-67 0 -132 16q-33 9 -70 39q-42 34 -42 63q0 9 9.5 18t18.5 9q16 0 30 -26l18 -38q31 -47 137 -47q72 0 133 29q66 32 100 90q24 43 24 74q0 57 -62 99q-56 36 -116 36q-12 0 -72 -23.5t-97 -23.5q-35 0 -35 16q0 15 16.5 33
t74.5 22q69 6 84 12q33 13 82 71q46 55 46 108q0 35 -21 57t-56 22q-39 0 -97.5 -27.5t-83.5 -57.5q-6 -7 -2 -25l-37 -37q-29 -27 -40 -27q-9 0 -20.5 8t-11.5 16q0 17 23 48q42 56 120 100q82 46 149 46q56 0 93.5 -30.5t37.5 -86.5q0 -48 -35 -101q-29 -46 -73 -81
q2 -4 55 -17q58 -16 90 -42q48 -40 48 -109z" />
    <glyph glyph-name="four" unicode="4" horiz-adv-x="626" 
d="M616 186l-7 -6q-37 7 -124 7q-25 0 -32 -10.5t-7 -38.5q0 -85 10 -115q1 -3 8 -14t7 -15q0 -5 -7 -17h-32q-8 0 -22 17t-14 26q0 4 2.5 12.5t2.5 12.5q0 16 1 49t1 49q0 36 -11 36q-45 0 -133.5 -12.5t-133.5 -12.5q-26 0 -64 22q-41 25 -41 49q0 31 61 89q44 38 88 77
q73 64 214 198q20 26 40 51q26 31 53 31q15 0 27.5 -11t12.5 -26q0 -8 -8 -33q-10 -33 -11 -36q-5 -22 -28 -175q-17 -113 -17 -143q0 -11 9 -18q9 1 29 1.5t30 0.5q77 0 96 -28v-17zM427 538h-11q-66 -41 -185 -145q-142 -123 -142 -160q0 -30 37 -29h4l271 23z" />
    <glyph glyph-name="five" unicode="5" horiz-adv-x="539" 
d="M509 228q0 -105 -84 -178q-80 -70 -187 -70q-43 0 -79.5 7t-81.5 30q-57 28 -57 53q0 24 32 24q22 0 74 -39.5t96 -39.5q95 0 160 52q70 56 70 148q0 65 -44.5 103t-109.5 38q-33 0 -78 -11q-48 -12 -71 -28q-1 0 -20 -19q-13 -12 -22 -12q-12 0 -33 13q0 10 6 29t6 30
v52q-1 35 -1 53q0 133 31 202q6 3 18 3q16 0 24.5 -9.5t16.5 -9.5q3 0 57 7q108 13 146 13q62 0 62 -35q0 -13 -14 -38h-9q-5 0 -18.5 5t-17.5 6q-18 4 -77 4q-19 0 -78 -8q-64 -8 -71 -15q-21 -18 -21 -172q0 -33 3 -52l2 -2q4 0 46 18q56 23 127 23q85 0 139 -44
q58 -48 58 -131z" />
    <glyph glyph-name="six" unicode="6" horiz-adv-x="536" 
d="M516 225q0 -107 -73.5 -180.5t-180.5 -73.5q-111 0 -174 80q-58 73 -58 186q0 110 59 220q56 104 147 174q69 53 100 53q13 0 30.5 -14t17.5 -27q0 -25 -16 -25q-5 0 -12 8t-12 8q-39 0 -107 -67q-55 -55 -83 -103q-52 -89 -58 -146q7 4 18 18q84 102 192 102
q96 0 153 -58.5t57 -154.5zM466 237q0 73 -42 118t-115 45q-54 0 -129 -54q-78 -55 -78 -100q0 -2 1 -6t1 -6q0 -15 -17 -21q7 -86 45 -140q46 -64 127 -64q90 0 150 70q57 66 57 158z" />
    <glyph glyph-name="seven" unicode="7" horiz-adv-x="465" 
d="M475 634q0 -3 -20 -26q-23 -26 -24 -27q-136 -185 -189 -319q-23 -56 -45 -111q-26 -70 -26 -116q0 -12 16 -66q-3 -8 -10 -8q-23 0 -37 24q-13 21 -13 46q0 11 8 49q29 128 101 274q11 21 140 257q4 6 4 11q-17 14 -38 14q-3 0 -8.5 -1t-7.5 -1q-4 0 -9.5 1.5t-8.5 1.5
q-31 0 -121 -19q-98 -21 -106 -33t-11 -50q-4 -34 -20 -49q-3 -1 -10 -1q-30 0 -30 25q0 6 6 25q8 23 9 28q4 29 8.5 59.5t18.5 55.5q9 -1 15 -9t11 -16v0l6 -1q14 -1 55 13q50 16 59 18q52 10 105 10q39 0 86 -10q18 -4 49 -20q37 -18 37 -29z" />
    <glyph glyph-name="eight" unicode="8" horiz-adv-x="532" 
d="M512 171q0 -68 -45 -118t-114 -63q-38 -7 -84 -7q-99 0 -166 38q-83 47 -83 139q0 65 40 113q30 36 96 75q-104 63 -104 143q0 84 67 137q63 50 149 50q59 0 113 -34.5t80 -88.5q15 22 17 22q22 0 22 -32q0 -52 -74 -104q-60 -34 -119 -69v-2l2 -4q203 -54 203 -195z
M433 499q-10 15 -18 32q-48 106 -147 106q-67 0 -116 -37q-53 -40 -53 -105q0 -40 48 -75q44 -33 86 -33q14 0 92 39q70 35 108 73zM459 158q0 68 -67 110q-33 20 -127 51q-36 12 -45 12q-5 0 -29 -16q-66 -42 -85 -61q-39 -39 -39 -94q0 -73 69 -109q55 -30 135 -30
q74 0 126 31q62 37 62 106z" />
    <glyph glyph-name="nine" unicode="9" horiz-adv-x="469" 
d="M449 426q0 -133 -65 -254q-29 -54 -75 -108q-60 -72 -99 -72q-16 0 -39 12q-26 14 -26 29q0 20 18 20q6 0 16 -8t16 -8q37 0 101 94q55 80 71 131l13 40q-97 -79 -174 -79q-56 0 -101.5 27.5t-68.5 77.5q-16 34 -16 95q0 110 55 183q60 80 167 80q100 0 157 -83
q50 -73 50 -177zM398 421q0 84 -35 149q-42 79 -119 79q-78 0 -130 -81q-45 -72 -45 -155q0 -64 36 -107q39 -46 102 -46q35 0 103 44t80 75q8 20 8 42z" />
    <glyph glyph-name="colon" unicode=":" horiz-adv-x="142" 
d="M113 29q0 -13 -11 -26.5t-24 -13.5q-16 0 -37 17t-21 33q0 12 12 26t23 14q21 0 39.5 -14.5t18.5 -35.5zM117 370q0 -19 -18 -30.5t-38 -11.5q-39 0 -39 42q0 35 38 35q57 0 57 -35z" />
    <glyph glyph-name="semicolon" unicode=";" horiz-adv-x="193" 
d="M147 370q0 -19 -18 -30.5t-38 -11.5q-39 0 -39 42q0 35 38 35q57 0 57 -35zM60 45q0 12 8 23t35 11q18 0 32 -11.5t19 -38.5q7 -42 5.5 -72.5t-20.5 -62.5q-17 -29 -37 -46.5t-40 -17.5q-16 0 -18 13.5t12 25.5q17 15 35.5 28t28.5 37q8 20 0 42.5t-25 33.5t-26 17.5
t-9 17.5z" />
    <glyph glyph-name="less" unicode="&#x3c;" horiz-adv-x="359" 
d="M339 187l-2 -4q-21 -24 -33 -24q-10 0 -133.5 75t-143.5 92q-7 5 -7 12q0 9 12 17l258 168q38 -12 38 -40q0 -9 -105 -68q-63 -36 -127 -71q42 -27 116 -68q88 -47 118 -65q9 -22 9 -24z" />
    <glyph glyph-name="equal" unicode="=" horiz-adv-x="393" 
d="M373 374q0 -4 -1.5 -12.5t-1.5 -11.5q-13 -4 -14 -4q-3 0 -13 5.5t-12 5.5q-27 10 -146 10q-47 0 -76 -5q-9 -2 -35 -13t-29 -11q-7 0 -16 14.5t-9 21.5v26q73 5 145 9q88 6 146 6q21 0 41.5 -10.5t20.5 -30.5zM373 233q-286 -15 -294 -15q-59 0 -59 31q0 4 1.5 12.5
t2.5 11.5l13 4q9 0 27 -2.5t27 -2.5q21 0 64 4t65 4q11 0 32.5 -2t31.5 -2q13 0 36 7.5t35 7.5q7 0 12.5 -12t5.5 -20v-26z" />
    <glyph glyph-name="greater" unicode="&#x3e;" horiz-adv-x="359" 
d="M339 345q0 -10 -12 -18l-259 -168q-38 12 -38 40q0 10 105 69l128 70q-42 28 -116 68q-88 47 -118 65q-9 22 -9 24q1 2 1 4q22 24 34 24q10 0 133 -75t144 -92q7 -5 7 -11z" />
    <glyph glyph-name="question" unicode="?" horiz-adv-x="506" 
d="M486 506q0 -34 -31 -81q-27 -41 -163 -135q-119 -82 -122 -123q14 -10 26 -19t12 -32q-3 -4 -10 -4q-18 0 -45 30.5t-27 48.5q0 46 60 90q49 31 97 63q137 96 137 162q0 47 -36 78q-34 28 -83 28t-124.5 -44.5t-100.5 -88.5q3 -5 10 -5q3 0 9 2t9 2q25 0 25 -16
q0 -11 -16 -22.5t-27 -11.5q-18 0 -42 20.5t-24 38.5q0 33 64 89q57 49 97 63q72 26 103 26q62 0 129 -48q73 -52 73 -111zM242 40q0 -44 -41 -44q-27 0 -44.5 17t-17.5 44q0 13 22 24q19 9 34 9q21 0 34 -14.5t13 -35.5z" />
    <glyph glyph-name="at" unicode="@" horiz-adv-x="831" 
d="M492 236q2 9 11.5 21.5t32.5 12.5q14 0 14 -8q0 -4 -3 -8q-6 -9 -11 -16t-11 -29q-3 -11 0.5 -32t14.5 -42t28.5 -36.5t43.5 -15.5q25 0 48.5 18.5t41.5 54t29 86t11 114.5q0 76 -25 128.5t-65.5 85.5t-90.5 47.5t-101 14.5q-35 0 -75 -10.5t-80 -33t-77.5 -56.5
t-66.5 -81t-46 -107.5t-17 -134.5q0 -107 29 -172.5t74 -102t100.5 -49t109.5 -12.5q52 0 96.5 13t80 32t60.5 39t39 34q3 4 7 9t8 8t8.5 3t9.5 -6q6 -7 7 -17.5t-0.5 -21t-5.5 -19t-8 -11.5q-73 -56 -149 -80t-137 -24q-68 0 -137.5 19t-125.5 65.5t-91.5 123.5t-35.5 193
q0 109 37 191.5t92.5 137.5t119 82.5t117.5 27.5q80 0 152 -23t126 -65.5t86 -103t32 -135.5q0 -84 -22.5 -141.5t-55 -92t-69.5 -49.5t-66 -15q-26 0 -46.5 13t-34 31.5t-20.5 37.5t-7 31t0.5 19t2 14.5t4.5 16.5t7 26zM545 378q11 -19 15 -42.5t4 -37.5q0 -4 -1 -10
t-4 -12t-9 -10t-16 -4q-12 0 -17 5t-6.5 11.5t-0.5 13.5t1 11q3 37 -1 59.5t-12.5 35t-20 17t-22.5 4.5q-18 0 -37.5 -9.5t-37 -30t-31.5 -51.5t-22 -74q-16 -87 -1.5 -132t62.5 -45q23 0 41.5 19t32.5 44t22.5 48.5t10.5 31.5l23 -7q-1 -5 -3 -19.5t-6.5 -33.5t-12.5 -39.5
t-21 -37.5t-32.5 -28t-45.5 -11q-40 0 -67 16.5t-42.5 43.5t-20.5 63t0 75q6 49 22 89t38.5 68.5t49 44.5t52.5 16q19 0 37.5 -9t34 -21.5t27 -27t17.5 -24.5z" />
    <glyph glyph-name="A" unicode="A" horiz-adv-x="508" 
d="M498 189q0 -32 -25 -32q-10 0 -21 4q0 -51 25 -114q-1 -13 -12.5 -21t-25.5 -8q-12 0 -27 7q-8 16 -8 50q0 9 1 33v33q0 18 -3 24q-9 1 -25.5 -1t-23.5 -2q-43 0 -135 -12q-105 -14 -121 -28q-9 -7 -19 -72q-8 -53 -9 -78q-5 -7 -14 -7q-13 0 -29 13t-16 25q0 6 8 27
t9 26q17 111 65 245q132 375 204 375q77 0 119 -196q15 -69 35 -264q6 -5 30 -11q18 -4 18 -16zM401 218q-25 176 -32 213q-33 168 -70 167q-41 -2 -103 -154q-35 -96 -69 -192q-6 -13 -13 -39q-4 -24 14 -24q6 0 61 10q43 8 212 19z" />
    <glyph glyph-name="B" unicode="B" horiz-adv-x="505" 
d="M475 178q0 -31 -14 -55q-67 -120 -230 -120q-51 0 -129 20q0 -2 -1 -4q0 -3 4 -19q-4 -12 -15 -15l-8 4q-19 -2 -22 20q-3 32 -5.5 35t-20.5 11q-14 6 -14 18q0 15 14.5 16.5t15.5 6.5q0 -1 0 16t1.5 54t1.5 56l-1 35q-21 7 -21 19q0 15 19 25v334q0 8 11.5 20t19.5 12
q16 0 18 -3q6 -6 11 -13q-16 -92 -16 -132l1 -6q68 175 203 175q78 0 119 -60q37 -53 37 -133q0 -60 -28 -118q-32 -68 -82 -84q131 -16 131 -115zM403 499q0 150 -109 150q-74 0 -135 -97q-55 -87 -55 -165v-88q-4 0 74 0q115 0 167 41q58 47 58 159zM424 184q0 55 -106 71
q-43 7 -150 7q-42 0 -67 -6q-1 -33 -1 -137q0 -26 2 -47q48 -28 127 -28q64 0 125 38q70 42 70 102z" />
    <glyph glyph-name="C" unicode="C" horiz-adv-x="478" 
d="M468 154q0 -16 -9 -42q-21 -61 -85 -98q-59 -34 -128 -34q-117 0 -176 96q-50 79 -50 203q0 106 31 200q35 110 104 170q51 45 103 45q77 0 115 -74q30 -58 30 -143q0 -42 -13 -97q-17 -72 -44 -72q-21 0 -30 22q6 4 19 14q26 25 26 122q0 59 -22 113q-28 70 -77 70
q-39 0 -82 -47q-32 -35 -55 -81q-51 -106 -51 -261q0 -103 36 -164q45 -76 140 -76q52 0 95 27.5t66 73.5q4 15 17 42q8 13 20 13q20 0 20 -22z" />
    <glyph glyph-name="D" unicode="D" horiz-adv-x="499" 
d="M469 419q0 -152 -67 -285q-83 -162 -220 -162q-50 0 -94 35q-17 -22 -22 -22q-11 0 -22 7q-14 39 -14 150q0 84 3 249.5t3 250.5q0 2 -1 7.5t-1 8.5q0 22 24 22q12 0 26 -9.5t14 -20.5q0 -12 -6.5 -29.5t-6.5 -28.5v-39q12 7 35 49t47 62q37 32 95 32q108 0 162 -89
q45 -73 45 -188zM410 424q0 91 -26 151q-35 84 -114 84q-56 0 -111 -69q-45 -57 -63 -121q-16 -58 -16 -124v-207q0 -47 25 -81q28 -38 74 -38q80 0 143 84q53 69 72 158q16 79 16 163z" />
    <glyph glyph-name="E" unicode="E" horiz-adv-x="465" 
d="M455 42q-5 -11 -12 -11q-4 0 -11.5 1.5t-11.5 1.5q-43 0 -124.5 -27.5t-124.5 -27.5q-141 0 -141 237q0 188 10 321l2 32q0 8 -2.5 20.5t-2.5 17.5q0 24 33 27q37 4 146 31q99 24 142 24q5 0 14 -2q16 1 31 -9t15 -21q0 -20 -51 -20q-46 0 -135 -16q-100 -19 -124 -39
q-8 -76 -19 -238q4 -5 11 -5q30 0 89 19t90 19q25 0 50 -13l8 -30q2 -4 -26 -14q-14 9 -36 9q-25 0 -94.5 -18t-94.5 -30q-4 -22 -4 -102q0 -151 77 -151q37 0 106.5 25t106.5 25q64 0 83 -36z" />
    <glyph glyph-name="F" unicode="F" horiz-adv-x="410" 
d="M417 635q-11 -11 -25 -11q-6 0 -18 1.5t-19 1.5q-42 0 -112 -17q-83 -21 -112 -24l-21 -188q-2 -20 -2 -34q0 -22 15 -22q4 0 9 1q96 24 139 24q62 0 42 2q20 -2 32 -20l3 -25q-3 -7 -10 -7t-18.5 -2t-17.5 -2q-86 0 -194 -33q-7 -33 -7 -147q0 -94 7 -105q4 -6 9.5 -12
t5.5 -10q0 -7 -11 -15.5t-17 -8.5q-1 0 -30 16q-21 55 -21 145q0 71 11.5 210.5t11.5 210.5q0 15 -14 17q-22 4 -26 7q-15 10 -15 18q0 10 9 20q4 2 25 3q17 1 23 8q2 8 2 15q0 15 20 27q16 9 27 9q10 0 11 -13v-21q2 -7 7 -10q47 10 95 20q57 11 96 11q57 0 90 -40z" />
    <glyph glyph-name="G" unicode="G" horiz-adv-x="483" 
d="M463 165q0 -82 -70 -131q-64 -45 -156 -45q-120 0 -175 103q-42 79 -42 211q0 133 52 246q67 143 183 143q9 0 30 -8q58 -23 100 -104q40 -76 40 -144q0 -122 -49 -122q-28 0 -28 23q0 4 13 29t13 40q0 71 -27 140q-35 90 -96 90q-62 0 -108 -75q-36 -59 -48.5 -133.5
t-12.5 -129.5q0 -105 18 -155q27 -78 108 -102q26 -8 42 -8q46 0 87 23t62 62q20 36 20 50q0 22 -34 22q-69 0 -110 -19.5t-39 -19.5q-33 0 -33 53q0 12 13 20t73 18q57 10 78 10q40 0 68 -24t28 -63z" />
    <glyph glyph-name="H" unicode="H" horiz-adv-x="554" 
d="M534 632q-16 -12 -17 -13q-7 -7 -11 -18q-22 -57 -26 -314q36 -8 36 -24q0 -10 -9 -23q-10 -4 -29 -12q0 -44 10 -129q1 -5 10 -30q7 -20 7 -28q0 -12 -9 -24t-21 -12q-27 0 -37 40q-1 5 -8 63.5t-7 75.5q0 18 3 34q-62 -1 -146 -17q-72 -14 -144 -29l-18 -18
q1 -38 1 -77q4 -59 19 -76q-4 -13 -12.5 -13t-20 -4.5t-17.5 -4.5q-19 0 -24 75q-2 47 -3 94l-7 10l-4 -1q-13 0 -24 7.5t-11 19.5q0 8 9 22.5t18 14.5q2 0 5.5 -1t5.5 -1l5 1q1 44 1 176q0 175 24 238q11 27 36 27q16 0 31 -10.5t15 -26.5q0 -6 -9 -27q-10 -25 -11 -29
q-27 -96 -27 -290q0 -45 17 -45q5 0 53 10q108 20 144 20q9 0 30.5 5.5t42 5.5t19.5 28l-2 88q-2 85 8 170q15 134 54 134q20 0 36 -21q13 -19 14 -41z" />
    <glyph glyph-name="I" unicode="I" horiz-adv-x="172" 
d="M132 641q0 -1 -9 -17q-4 -8 -8 -53q-22 -205 -22 -379q0 -143 30 -187q-19 -13 -30 -13q-43 0 -52 70q-8 62 -8 88l7 474q0 14 19 30t33 16q9 0 24.5 -10.5t15.5 -18.5z" />
    <glyph glyph-name="J" unicode="J" horiz-adv-x="419" 
d="M469 636q0 -17 -20 -17q-6 0 -18 1.5t-18 1.5q-48 0 -48 -30q0 -8 1.5 -23t1.5 -23q0 -171 -14 -294q-13 -111 -35 -167q-40 -97 -121 -97q-69 0 -126 81q-52 74 -52 146q0 82 28 82q45 0 45 -76q0 -12 -1 -34.5t-1 -33.5q0 -37 32 -75t69 -38q112 0 112 332q0 231 1 214
l-2 2q-28 -1 -80 -30t-56 -29q-12 0 -19 12.5t-7 24.5q0 17 22 27q18 7 72 22q45 13 70 28l2 3q4 31 27 31q6 0 18.5 -9t18.5 -9q9 0 25.5 4.5t25.5 4.5q15 0 31 -9.5t16 -22.5z" />
    <glyph glyph-name="K" unicode="K" horiz-adv-x="491" 
d="M531 66q0 -21 -28 -36q-24 -14 -46 -14q-83 0 -165 114q-36 51 -106 189q-30 -34 -64 -85q-44 -65 -44 -91q0 -105 23 -144l2 -17q-11 -13 -24 -13q-22 0 -35 31q-7 16 -17 70.5t-9 72.5l18 489q0 4 -1.5 9.5t-1.5 8.5q0 37 28 37q15 0 39 -15t24 -29q0 -6 -7 -9
q-10 -5 -11 -6q-8 -7 -12 -45q-19 -208 -19 -314l5 -5q160 217 170 230q139 177 184 177q6 0 10 -1q1 -3 17 -24q11 -15 11 -26q0 -14 -12 -14q-2 0 -12 2.5t-12 2.5q-18 0 -95 -85q-73 -82 -85 -109q-10 -22 -10 -38q0 -70 71 -189q76 -128 138 -128q11 0 30 9t29 9
q17 0 17 -14z" />
    <glyph glyph-name="L" unicode="L" horiz-adv-x="379" 
d="M369 22q-92 -35 -208 -35q-86 0 -118 67q-23 47 -23 144q0 62 9.5 185t9.5 184q0 13 -2 38t-2 38q0 10 1 21q11 13 30 13q35 0 35 -82q0 -71 -13 -213t-13 -213q0 -135 90 -135q30 0 84.5 17t84.5 17q16 0 25.5 -14.5t9.5 -31.5z" />
    <glyph glyph-name="M" unicode="M" horiz-adv-x="649" 
d="M624 665q0 -9 -7.5 -17t-13.5 -15.5t-6 -30.5q1 -32 0 -33q-25 -214 -25 -400q0 -98 0 -95q4 -71 30 -80v-10q-5 -11 -17 -11q-63 0 -75 123q-5 47 -1 95l26 323l-74 -270q-68 -212 -133 -212q-29 0 -60 37q-25 28 -38 62q-31 79 -64 219q-25 112 -51 223l-6 -15
q-18 -185 -15 -265l10 -229q2 -36 24 -39q1 -27 -48 -27q-45 0 -45 165q0 75 8 223.5t8 223.5q0 16 -3 25t-3 11q0 39 80 39q15 0 36 -21q3 -31 9 -92q11 -88 59 -256q58 -206 95 -206q47 0 103 188q35 121 56 240q13 38 33 108q12 45 69 45q13 0 26 -7t13 -19z" />
    <glyph glyph-name="N" unicode="N" horiz-adv-x="456" 
d="M476 672q1 -9 -9 -13t-19 -8q-14 -8 -25 -90q-9 -65 -9 -104l-3 -303q-1 -40 -17 -87q-21 -60 -53 -60q-49 0 -91 91q-17 36 -47.5 136.5t-90.5 301.5q-11 -2 -12 -20q-2 -27 -16 -140q-11 -86 -11 -140q0 -161 20 -186q11 -16 11 -18q0 -11 -14.5 -21t-25.5 -10
q-40 0 -40 131q0 18 -2 51t-2 51q0 43 13 131.5t13 132.5v129q0 2 -1.5 6.5t-1.5 6.5q0 26 51 26q42 0 58 -26q4 -7 8 -44q3 -24 6 -49q13 -80 72 -263q69 -212 100 -212q27 0 26 107l-3 300q0 53 19 118q25 85 65 85q15 0 31 -10z" />
    <glyph glyph-name="O" unicode="O" horiz-adv-x="572" 
d="M536 339q0 -141 -63 -245q-74 -122 -205 -122q-33 0 -77 15q-167 53 -167 300q0 144 64 259q76 138 209 138q116 0 183 -119q56 -99 56 -226zM480 348q0 222 -148 272q-16 6 -28 6q-64 0 -126 -59q-105 -100 -105 -309q0 -19 8 -60q17 -86 56 -128q46 -48 129 -48
q114 0 170 113q44 87 44 213z" />
    <glyph glyph-name="P" unicode="P" horiz-adv-x="501" 
d="M466 378q-41 -254 -215 -244q-94 6 -159 62l-7 -5v-41q-1 -59 10 -87q1 -3 11 -20.5t10 -21.5q0 -12 -9 -22.5t-22 -10.5q-30 0 -42 20q-8 15 -10 48q-3 51 -3 103q0 30 4.5 90t4 91.5t4.5 93t5 91.5v95q0 7 -3.5 22t-3.5 22q0 19 26 19q17 0 28.5 -15t11.5 -32
q0 -13 -5.5 -37t-5.5 -37l1 -26l46 80q54 75 143 75q96 0 145 -79q40 -65 40 -165q0 -35 -5 -69zM422 435q0 78 -27 137q-35 77 -103 77q-88 0 -149 -117q-52 -100 -52 -197v-53q10 5 15 5q7 0 12.5 -10t9.5 -13q-1 -3 -3 -2t-2 -2q0 -5 8 -18q39 -60 120 -60q76 0 114 50
q29 37 46 118q11 57 11 85z" />
    <glyph glyph-name="Q" unicode="Q" horiz-adv-x="571" 
d="M551 346q0 -206 -116 -303q39 -55 50 -74q28 -44 39 -79q-5 -23 -23 -23q-11 0 -52.5 75.5t-58.5 75.5q-5 0 -27 -8q-26 -9 -29 -10q-10 -2 -46 -4q-248 -9 -248 305q0 144 61 253q74 133 207 133q116 0 185 -117q58 -99 58 -224zM499 348q0 103 -43 184
q-52 100 -149 106q-84 5 -144 -77q-47 -65 -64 -155q-10 -51 -10 -116q0 -106 47 -174q53 -75 148 -78q28 -1 73 16v11q-17 16 -48 33q-37 19 -51 30q-11 8 -11 19q0 26 36 26q32 0 127 -95q89 85 89 270z" />
    <glyph glyph-name="R" unicode="R" horiz-adv-x="550" 
d="M530 5v-5q-6 -10 -17 -10q-14 0 -18 5q-8 41 -135 130.5t-172 89.5h-57v-62q0 -13 7 -60q6 -50 10 -55q17 -27 17 -25q0 -23 -26 -23q-29 0 -44 21t-15 196q0 14 -35 25t-35 26q0 22 64 40q7 36 9 96q4 75 6 97q1 11 9 60q7 37 6 61q-5 3 -26.5 3t-21.5 17q0 21 20 26
q14 4 29 8q3 10 13 22q9 3 16 3q11 0 22.5 -11t20.5 -11q5 0 14 1.5t14 1.5q111 0 187 -46q93 -54 93 -158q0 -86 -51 -140q-32 -35 -124 -85q-6 -1 -14 -5q20 -19 90 -65t100 -75q46 -46 44 -93zM433 472q0 76 -69 117q-57 34 -138 34q-29 0 -48 -4l-13 -20
q-14 -23 -16 -61q-2 -55 -4 -65q-12 -57 -16 -181q74 -28 92 -28q14 0 40 8q74 22 120 73q52 55 52 127z" />
    <glyph glyph-name="S" unicode="S" horiz-adv-x="449" 
d="M429 85q0 -56 -70 -86q-56 -24 -120 -24q-59 0 -129 24q-90 31 -90 77q0 25 24 25q19 0 44 -22q35 -33 38 -35q38 -25 123 -25q114 0 114 60q0 28 -49 69q-8 6 -75 54q-107 76 -135 106q-63 67 -63 156q0 82 47 150q52 76 131 76q67 0 115 -57q42 -50 55 -121
q1 -24 8 -73l8 -36q0 -80 -39 -80q-10 0 -20.5 11.5t-10.5 21.5q0 14 6 41t6 41q0 69 -22 122q-29 72 -88 72t-98.5 -51.5t-39.5 -112.5q0 -82 86 -156q79 -57 159 -115q85 -62 85 -112z" />
    <glyph glyph-name="T" unicode="T" horiz-adv-x="474" 
d="M448 624q0 -25 -17 -25q2 0 -22 11q-15 8 -77 8h-45q-24 0 -30 -7.5t-9.5 -34t-11.5 -78.5q-19 -153 -19 -327q0 -129 27 -174q0 -14 -10 -14q-52 0 -66 60q-6 23 -6 100q0 112 4 169q1 27 11 126q8 79 8 126q0 57 1 28q-1 15 -13 15q-18 0 -53.5 -7t-53.5 -7
q-40 0 -52 32q10 17 149 34q116 13 169 13q116 0 116 -48z" />
    <glyph glyph-name="U" unicode="U" horiz-adv-x="455" 
d="M420 369q0 -81 -19 -178q-23 -121 -61 -162q-49 -52 -114 -52q-78 0 -120 36q-52 44 -65 128q-6 35 -6 150q0 49 6 146.5t6 145.5q0 9 -6 25.5t-6 24.5q0 10 16.5 21t27.5 11q37 0 34 1q13 -3 11 -23q-7 -28 -15 -73q-19 -185 -19 -228v-130q0 -69 26 -121q33 -66 95 -66
q105 0 142 201q18 100 18 285l1 42q1 26 -1 44q-2 23 -10 39.5t-8 18.5q0 10 7.5 22.5t17.5 12.5q11 0 26.5 -9.5t15.5 -19.5v-292z" />
    <glyph glyph-name="V" unicode="V" horiz-adv-x="474" 
d="M454 646q0 -77 -26 -230q-18 -103 -62 -240q-60 -188 -108 -188q-43 0 -68 13q-50 27 -94 249q-10 50 -46 290q-5 31 -19 79q0 1 -5.5 7t-5.5 11q0 12 18 22.5t31 10.5q17 0 31 -13.5t14 -30.5q0 -20 -2.5 -58.5t-2.5 -58.5q0 -53 33 -207q52 -247 87 -247q23 0 53 55
q48 85 88 253q38 162 38 267q0 38 -19 51q20 29 32 29q16 0 25 -25q8 -21 8 -39z" />
    <glyph glyph-name="W" unicode="W" horiz-adv-x="599" 
d="M568 461q0 -119 -32 -259q-45 -193 -121 -193q-55 0 -81 73q-18 48 -27 149q-10 107 -15 126q-3 -12 -40 -180q-40 -186 -94 -186q-30 0 -56 28q-40 43 -60 272q-13 156 -13 316q0 61 46 61q17 0 41 -13v-27q-15 -3 -20.5 -11.5t-7.5 -32.5q-1 -18 0 -47l1 -38
q0 -125 13 -250q19 -184 56 -184q19 0 44 76q18 52 27 98q36 174 36 288q0 7 13 17t20 10q21 0 40.5 -15.5t20.5 -35.5q-18 -29 -18 -92q0 -96 13 -197q20 -146 59 -146q54 0 87 177q24 129 24 227q0 55 -10 87q-8 21 -16 43q-10 27 -10 42q0 53 27 53q28 0 43 -101
q10 -70 10 -135z" />
    <glyph glyph-name="X" unicode="X" horiz-adv-x="559" 
d="M554 43q0 -13 -13 -21t-26 -8q-64 0 -246 289q-5 1 -8.5 -3t-36.5 -63q-37 -63 -74 -127q-40 -73 -57 -134q-17 -13 -32 -13q-21 0 -56 40q15 14 44 43q15 16 101 158t86 149q0 15 -88 141.5t-88 150.5q0 33 35 33q16 0 53 -17l3 -6q-1 -51 43 -130q38 -60 76 -119
q41 62 117 191q10 25 36 71q17 23 36 23q11 0 18.5 -10t8.5 -21l-189 -304q31 -61 106 -170q91 -133 118 -133q9 0 14 9h11q8 -10 8 -19z" />
    <glyph glyph-name="Y" unicode="Y" horiz-adv-x="486" 
d="M466 641q-10 -18 -37 -49.5t-36 -50.5q-73 -143 -127 -281q-79 -202 -71 -287q-18 -13 -34 -13q-32 0 -51 56q6 5 19.5 18.5t42.5 95.5q18 55 37 110q-64 50 -111 157q-78 179 -78 243q0 41 32 41q21 0 34 -22q10 -20 10 -42q0 -7 -4.5 -18t-4.5 -17q0 -46 50 -157
q55 -120 92 -119q17 18 95 200q69 163 103 163q36 0 39 -28z" />
    <glyph glyph-name="Z" unicode="Z" horiz-adv-x="566" 
d="M546 619q0 -54 -123 -168q-114 -100 -229 -200q-123 -116 -123 -174q0 -41 50 -41q48 0 144.5 11.5t144.5 11.5q26 0 53 -10q34 -13 38 -34q-9 -14 -22 -14q-8 0 -23.5 5.5t-23.5 4.5h-5l-158 -19l-79 -10q-66 0 -112 24q-58 31 -58 92q0 52 36 98q42 54 114 113
q8 7 126 98q37 27 106 85q31 30 57 68q36 49 36 77q0 41 -63 41q-64 0 -147.5 -24t-140.5 -57q-24 -16 -48 -31q-39 -26 -44 -26q-26 0 -25 50v11q70 43 195 83q132 42 207 42q46 0 74 -24q15 -13 29 -39t14 -44z" />
    <glyph glyph-name="bracketleft" unicode="[" horiz-adv-x="188" 
d="M180 -110l-92 -1q-8 -5 -16 -5q-44 0 -44 150q0 88 4 580q0 9 -6 26t-6 26q0 24 37 24q9 0 17 -4h87q5 2 13 -7t8 -18q0 -14 -21 -16h-64q-20 -79 -20 -217v-155q0 -289 19 -343l84 1q12 -5 12 -17q0 -11 -12 -24z" />
    <glyph glyph-name="backslash" unicode="\" horiz-adv-x="399" 
d="M379 0q0 -16 -19 -16q-44 0 -120 181l-187 449q-12 21 -33 62q13 14 26 14q16 0 33 -10t23 -24q3 -17 10 -50t30 -88q48 -122 97 -244q60 -144 116 -234q7 -9 15.5 -20t8.5 -20z" />
    <glyph glyph-name="bracketright" unicode="]" horiz-adv-x="188" 
d="M168 -92q0 -24 -37 -24q-9 0 -17 4h-87q-15 5 -15 17q0 11 15 24h64q20 79 20 317v155q0 188 -19 243h-72q-20 8 -20 21q0 11 20 20h80q8 5 16 5q44 0 44 -151q0 -88 -4 -580q0 -9 6 -25.5t6 -25.5z" />
    <glyph glyph-name="asciicircum" unicode="^" horiz-adv-x="288" 
d="M268 722q0 -4 -4.5 -12t-7.5 -8q-19 0 -62 40q-13 12 -25 16q-17 7 -25 11q-14 -3 -50 -27q-43 -40 -62 -40q-3 0 -7.5 8t-4.5 12l1 5q111 100 123 100q11 0 123 -100z" />
    <glyph glyph-name="underscore" unicode="_" horiz-adv-x="467" 
d="M467 -129h-467v35h467v-35z" />
    <glyph glyph-name="grave" unicode="`" horiz-adv-x="196" 
d="M176 702q0 -4 -4 -12t-8 -8q-20 0 -61 40q-28 27 -52 38q-11 3 -28 9l-3 7q0 9 11.5 24.5t19.5 15.5q23 0 125 -109v-5z" />
    <glyph glyph-name="a" unicode="a" horiz-adv-x="361" 
d="M336 -29q0 -14 -22 -14q-24 0 -29 20q-1 3 -1 39q0 10 -3 16q-56 -41 -121 -41q-45 0 -87 25q-48 28 -48 70q0 41 57 80q52 36 96 36h99q6 6 6 21q0 67 -11 101q-18 57 -71 57q-38 0 -70 -48q-29 -44 -29 -84v-6v-5q0 -8 -8 -8q-10 0 -22 12t-12 21q0 28 17 70.5t37 64.5
q25 27 62 27q57 0 105 -36q51 -39 52 -94zM283 130q0 40 -62 40q-49 0 -86 -17q-47 -22 -47 -66q0 -27 25 -42q21 -13 50 -13q43 0 81.5 28t38.5 70z" />
    <glyph glyph-name="b" unicode="b" horiz-adv-x="342" 
d="M317 222q0 -87 -24 -146q-33 -82 -108 -82q-19 0 -51 11l-50 18q-2 -6 -2 -13q0 -5 1 -14.5t1 -14.5q0 -15 -17 -15t-28 14q-7 7 -11 59q-3 41 -3 64v6l19 558h14q14 0 26.5 -14.5t12.5 -29.5q0 -37 -9.5 -110t-9.5 -110v-38q8 3 20 23q15 25 26 35q20 18 49 18
q49 0 89 -40q36 -36 48 -87q7 -34 7 -92zM264 216q0 62 -13 107q-19 70 -64 70q-55 0 -87 -81q-25 -64 -25 -129q0 -58 20 -99q25 -55 76 -55t76 72q17 51 17 115z" />
    <glyph glyph-name="c" unicode="c" horiz-adv-x="364" 
d="M339 104q0 -24 -41 -64.5t-67 -47.5q-35 -11 -58 -11q-73 0 -112 53q-36 47 -36 122q0 77 33 172q41 118 102 118q29 0 77 -28.5t54 -54.5q7 -31 7 -61q0 -110 -33 -110q-8 0 -19 6t-11 14q0 4 4 10.5t5 8.5q4 13 4 60q0 111 -50 111q-55 0 -90 -101q-26 -78 -26 -148
q0 -54 17 -90q23 -47 71 -47q29 0 68 30q35 27 52 57q4 10 12 28q5 7 14 7q6 0 14.5 -13.5t8.5 -20.5z" />
    <glyph glyph-name="d" unicode="d" 
d="M342 635q0 -23 -6 -59q-7 -47 -9 -59q-3 -31 -10 -206q-6 -160 -6 -177q0 -107 19 -151q-7 -11 -18 -11q-10 0 -22.5 10t-15.5 20q0 20 -6 61q-59 -75 -113 -75q-65 0 -100 49q-30 42 -30 111q0 84 31 174q40 118 106 118q28 0 57 -21q6 -4 47 -42q10 68 10 298q7 7 19 7
q19 0 33 -14t14 -33zM267 266q0 44 -20 79q-24 42 -65 42q-50 0 -80 -102q-24 -77 -24 -145q0 -44 14 -76q19 -42 57 -42q62 0 94 96q24 69 24 148z" />
    <glyph glyph-name="e" unicode="e" horiz-adv-x="338" 
d="M318 99q0 -44 -59 -79q-53 -32 -100 -32q-134 0 -134 170q0 75 27 161q36 112 92 112q48 0 105 -48.5t57 -96.5q0 -62 -50 -108t-113 -46q-6 0 -25.5 10t-26.5 10q-13 0 -13 -8q0 -115 76 -115q39 0 72 26q20 15 44 47q19 25 25 25q23 0 23 -28zM249 283q0 35 -20 65.5
t-53 30.5q-40 0 -65 -50q-21 -42 -21 -87q0 -29 18.5 -48.5t47.5 -19.5q41 0 68 35q25 32 25 74z" />
    <glyph glyph-name="f" unicode="f" horiz-adv-x="290" 
d="M348 617q0 -20 -30 -20q-6 0 -9 2q-4 42 -56 42q-49 0 -76 -112q-18 -79 -18 -151q7 1 18 0h27q37 0 37 -22q0 -7 -2 -20q-16 -9 -50 -9q-26 0 -32 -4q-3 -39 -3 -141v-72q0 -48 11 -97q2 -5 2 -9q0 -24 -34 -24q-30 0 -30 81q0 220 4 260q2 0 -51 0q-23 0 -23 22
q0 29 40 29h36q2 20 4 51q15 266 149 266q86 0 86 -72z" />
    <glyph glyph-name="g" unicode="g" horiz-adv-x="359" 
d="M334 300q0 -6 -1 -17q-21 -100 -21 -161q0 -31 3 -95t3 -96q0 -62 -10 -90q-12 -33 -46 -55t-70 -22q-42 0 -97 18q-70 22 -70 53q0 27 21 27q9 0 16 -12q10 -17 13 -19q8 -8 41 -15q30 -8 45 -8q56 0 85 44q25 37 25 97q0 64 -11 102q-48 -63 -115 -63q-20 0 -47 13.5
t-40 29.5q-27 32 -27 101q0 85 31 183q40 127 105 127q52 0 110 -94q6 -11 19 -29q13 -4 38 -19zM274 245q0 21 -15 35q-3 42 -21 72q-23 37 -62 37q-27 0 -54 -61q-20 -46 -27 -86q-10 -60 -10 -102q0 -123 71 -123q54 0 90 90q28 73 28 138z" />
    <glyph glyph-name="h" unicode="h" horiz-adv-x="327" 
d="M294 -27q-8 -8 -30 -8q-11 0 -23 14q1 86 1 137q0 254 -85 254q-36 0 -60 -42q-21 -36 -21 -74q0 -4 -2.5 -12.5t-2.5 -12.5v-128q0 -17 5 -49t5 -48t-24 -16q-17 0 -28.5 16t-11.5 33l6 615q-2 6 -2 12q0 18 20 18q10 0 29.5 -13.5t19.5 -22.5q0 -24 -9.5 -69t-9.5 -68
q0 -2 2 -133q37 33 57 33q32 0 77 -19q87 -36 87 -190v-227z" />
    <glyph glyph-name="i" unicode="i" horiz-adv-x="141" 
d="M116 541q0 -34 -32 -34q-19 0 -35 14t-16 32q0 34 34 34q20 0 34.5 -13t14.5 -33zM97 391q0 -18 -8 -54t-8 -54v-221q0 -22 9 -60q-4 -8 -11 -8q-49 0 -49 47v367q13 7 25 7t25 -7q17 -7 17 -17z" />
    <glyph glyph-name="j" unicode="j" horiz-adv-x="178" 
d="M153 493q0 -14 -12.5 -24t-26.5 -10q-15 0 -43 36v14q0 30 30 30q20 0 36 -13t16 -33zM147 391q-17 -50 -17 -93q0 -68 3 -203.5t3 -203.5q0 -66 -32 -116q-38 -58 -100 -58q-33 0 -96 29q-70 31 -70 59q0 17 21 17q7 0 10 -1q46 -56 114 -56q104 0 104 181q0 5 -7 439
l8 9q31 8 35 8q13 0 24 -11z" />
    <glyph glyph-name="k" unicode="k" horiz-adv-x="381" 
d="M376 -39q-25 -20 -40 -20q-22 0 -76 63q-68 81 -72 85q-12 10 -42 47q-26 31 -46 43l-18 -24v-99q0 -9 6.5 -25.5t6.5 -25.5q0 -6 -8.5 -11.5t-15.5 -5.5q-40 0 -40 43v140q0 13 3.5 38.5t3.5 38.5v276q0 59 -5 93q0 5 -5 22q-3 14 -3 23q0 10 15.5 20t27.5 10
q9 0 19.5 -5.5t10.5 -13.5q0 -1 -5 -24q-7 -27 -7 -105l-4 -290l5 -5q32 20 88 74l70 72q57 58 67 58q15 0 24 -13.5t8 -28.5l-1 -5q-38 -25 -112 -90q-85 -75 -85 -99q0 -9 30 -45q47 -55 93 -110q63 -69 107 -90v-11z" />
    <glyph glyph-name="l" unicode="l" horiz-adv-x="124" 
d="M99 10q0 -26 -28 -26q-44 0 -43 181l3 449q0 11 -3 31.5t-3 30.5q19 14 32 14q14 0 28 -10t14 -24q0 -10 -5 -26q-6 -20 -7 -25q-12 -68 -12 -190q0 -197 -1 -190q3 -123 16 -185q0 -3 4.5 -13.5t4.5 -16.5z" />
    <glyph glyph-name="m" unicode="m" horiz-adv-x="509" 
d="M484 -6q-21 -13 -32 -13q-7 0 -20 7q1 16 1 54q1 35 1 54q0 308 -64 308q-38 0 -66 -96q-22 -77 -22 -130v-100q0 -8 4.5 -22.5t4.5 -21.5q0 -8 -11 -16t-19 -8q-9 0 -20 12.5t-11 21.5v201q0 32 -11 81q-14 62 -34 62q-11 0 -33 -28q-75 -96 -75 -236q0 -17 4 -50.5
t4 -49.5q0 -30 -25 -30q-12 0 -21 10q-4 5 -9 45q-5 36 -5 49v236q0 102 24 102q10 0 20.5 -9.5t10.5 -19.5q0 -21 -6 -55q-6 -44 -7 -55l5 -5l38 86q27 55 64 55q52 0 90 -112q10 12 25 50t27 54q19 24 47 24q27 0 60 -36q61 -65 61 -235v-184z" />
    <glyph glyph-name="n" unicode="n" 
d="M342 -5q-6 -11 -17 -11t-36 14v8q0 9 1 27t1 26q0 332 -83 332q-26 0 -56 -38q-76 -94 -76 -237q0 -19 6.5 -55.5t6.5 -55.5q0 -15 -21 -15q-40 0 -40 63v227q0 9 2 26t2 26q0 13 -3.5 38t-3.5 37q0 8 12.5 18.5t19.5 10.5q13 0 24 -14q-3 -65 -3 -76q0 -15 1 -29
q9 3 24 33q19 38 32 52q24 28 55 28q12 0 36 -9q54 -20 77 -66q39 -79 39 -209v-151z" />
    <glyph glyph-name="o" unicode="o" 
d="M342 197q0 -86 -38 -150q-45 -77 -125 -77q-81 0 -121 63q-33 52 -33 138q0 85 38 167q48 101 122 101q19 0 54 -22q103 -64 103 -220zM294 198q0 64 -17 115q-25 71 -77 71q-60 0 -94 -79q-26 -61 -26 -131q0 -63 18 -106q26 -59 81 -59q60 0 91 68q24 53 24 121z" />
    <glyph glyph-name="p" unicode="p" horiz-adv-x="350" 
d="M325 245q0 -99 -29 -166q-39 -93 -123 -93q-55 0 -96 51q-7 -3 -7 -62q0 -130 13 -184q1 -5 9.5 -24t8.5 -23q0 -16 -20 -16q-24 0 -33.5 7t-16.5 46q-6 33 -6 52v254q0 35 4 94q4 69 5 94q1 27 0 70q-1 55 -1 71q0 69 36 69q18 0 18 -13q0 -25 -4 -73t-4 -72h4
q23 31 46 63q27 35 67 35q67 0 101 -60q28 -48 28 -120zM276 241q0 53 -11 91q-17 56 -55 56q-28 0 -68 -49q-35 -43 -49 -88q-11 -34 -18 -100q-5 -48 -5 -46q0 -3 9 -10q6 -4 12 -9q16 -23 32.5 -46.5t49.5 -23.5q55 0 83 90q20 64 20 135z" />
    <glyph glyph-name="q" unicode="q" horiz-adv-x="353" 
d="M328 312q0 3 -18 -49q-25 -74 -25 -288q0 -205 42 -219v-14q-20 -10 -27 -10q-64 0 -63 283l-5 5q-36 -33 -94 -33q-62 0 -91 56q-22 43 -22 112q0 84 28 167q38 110 105 110q38 0 72 -35q28 -31 55 -62q19 3 14 3q29 0 29 -26zM255 257q0 24 -11 34q2 10 2 20
q0 23 -25 50.5t-48 27.5q-48 0 -77 -96q-23 -72 -23 -137q0 -139 72 -139q61 0 90 94q20 65 20 146z" />
    <glyph glyph-name="r" unicode="r" horiz-adv-x="272" 
d="M247 356q0 -4 -1 -17q-13 -20 -25 -20q-8 0 -14 10q-3 63 -52 63q-32 0 -63 -118q-12 -43 -12 -115q0 -92 5 -113q1 -3 5 -12.5t4 -14.5q0 -22 -30 -22q-34 0 -34 35q0 5 2.5 14.5t2.5 14.5q0 55 -5 165t-5 165q0 20 7 24.5t27 4.5q25 0 29 -18q1 -20 2 -39q26 40 30 45
q22 25 46 25q18 0 36 -11q10 -6 27.5 -31t17.5 -35z" />
    <glyph glyph-name="s" unicode="s" horiz-adv-x="357" 
d="M332 59q0 -35 -53 -59q-44 -19 -85 -19q-27 0 -62 13q-19 8 -61 42q-46 37 -46 51q0 31 37 28h6q2 -30 64 -65q56 -32 90 -32q44 0 44 30q0 18 -54 50q-74 43 -101 69q-55 53 -55 122q0 52 27 99q31 56 78 56q34 0 82 -31.5t56 -63.5q8 -27 8 -63q0 -39 -14 -85
q-9 -7 -21 -7q-7 0 -22 5.5t-15 11.5q0 -4 11 22q8 17 8 62q0 107 -67 107q-35 0 -56 -47q-18 -38 -18 -77q0 -49 57 -95q19 -16 105 -69q57 -35 57 -55z" />
    <glyph glyph-name="t" unicode="t" horiz-adv-x="272" 
d="M234 315q-8 -6 -38 -10q-33 -4 -38 -7q-1 -11 -1 -111q0 -78 2 -105q0 -11 5 -35t5 -37q0 -8 -10 -16t-18 -8q-20 0 -32 41q-8 30 -8 57q0 141 2 208q-6 5 -46 0q-32 -4 -32 23q0 38 81 35l13 181q0 3 -2.5 9.5t-2.5 9.5q0 6 8 11.5t19 4.5q35 -3 35 -35q0 -25 -7 -75
t-7 -74q0 -12 2 -23l55 3q28 0 28 -22q0 -16 -13 -25z" />
    <glyph glyph-name="u" unicode="u" horiz-adv-x="331" 
d="M311 374q0 -31 -6.5 -92.5t-6.5 -106.5q0 -18 3.5 -68.5t3.5 -72.5q0 -44 -10 -53q-6 -4 -17 -4q-22 0 -30 19q-4 19 -8 37q-29 -43 -99 -54q-26 -4 -60 23q-31 24 -41 48q-14 33 -14 127v217q-6 30 34 30q28 0 28 -32q0 -48 -3 -125q-3 -98 -3 -125q-1 -36 16 -72
q20 -43 51 -43q51 0 79 68q20 51 20 112v131q0 8 -5.5 22.5t-5.5 23.5q0 5 1 11q14 13 28 14q45 4 45 -35z" />
    <glyph glyph-name="v" unicode="v" horiz-adv-x="353" 
d="M328 398q6 -86 -36 -237q-45 -168 -95 -168q-60 0 -110 127q-31 77 -52 182q-10 49 -10 103q0 8 8.5 16.5t16.5 8.5q12 0 36 -20q-4 -17 -4 -34q0 -61 24 -147q22 -78 52 -140q17 -34 28 -34q39 0 68 157q22 122 22 198q0 6 9.5 13t16.5 7q25 0 26 -32z" />
    <glyph glyph-name="w" unicode="w" horiz-adv-x="510" 
d="M485 319q0 -95 -25 -188q-35 -132 -102 -132q-49 0 -84 61q-13 30 -26 61l-4 -2q-14 -40 -29 -80q-21 -46 -63 -46q-127 0 -127 305q0 70 4 110q7 10 18 10t26 -8.5t15 -19.5q0 -13 -6.5 -40.5t-6.5 -43.5q0 -260 67 -260q43 0 69 98q21 75 20 135v96q0 21 24 21
q29 0 29 -40q0 -5 -1.5 -15t-1.5 -15v-123q0 -43 15 -92q19 -65 51 -65q43 0 72 109q22 84 22 147t-8 77q0 1 -7 9t-7 11q0 11 9.5 21t20.5 10q36 0 36 -111z" />
    <glyph glyph-name="x" unicode="x" horiz-adv-x="396" 
d="M391 17q0 -10 -14.5 -17t-26.5 -7q-40 0 -90 69q-35 51 -69 102q-56 -58 -136 -227q-40 9 -40 42q0 18 74.5 121t74.5 109q0 10 -48 88q-46 74 -60 90q10 27 41 27q17 0 31 -16q1 -3 21 -47q21 -50 48 -95q38 48 76 95q61 76 76 76q11 0 19 -9.5t8 -20.5q0 -8 -76 -88
t-76 -97q0 -20 65.5 -102t83.5 -82q5 0 18 3v-14z" />
    <glyph glyph-name="y" unicode="y" horiz-adv-x="369" 
d="M345 392q-8 -44 -15 -88q-9 -47 -9 -88l-1 -313q0 -67 -40.5 -106.5t-108.5 -39.5q-37 0 -83 20q-53 22 -73 55q-5 9 -5 18q0 29 28 29q6 0 13 -4q17 -18 34 -35q34 -31 86 -31q66 0 88 46q13 29 13 105q0 10 -4 40q-4 25 -2 44q-28 -26 -40 -33q-22 -14 -48 -14
q-68 0 -103 53q-31 46 -31 117q0 135 4 228q4 32 35 32q38 0 34 -13q-19 -52 -19 -233q0 -140 80 -140q49 0 78 75q22 58 21 117l-1 114q1 17 2.5 43t32.5 24q36 -3 34 -22z" />
    <glyph glyph-name="z" unicode="z" horiz-adv-x="347" 
d="M322 386q0 -25 -24 -53l-126 -140q-91 -108 -93 -147q9 -11 34 -11q56 0 179 28q6 1 14.5 -11.5t8.5 -24.5q0 -27 -39 -27q-35 0 -94 -6.5t-89 -6.5q-26 0 -45 12q-23 14 -23 39q0 38 57 114q20 26 108 129q59 70 63 90q-10 8 -32 8q-40 0 -77 -17q-25 -11 -51 -32
q-22 -17 -24 -17q-25 0 -25 33t94 58q76 20 124 20q60 0 60 -38z" />
    <glyph glyph-name="braceleft" unicode="{" horiz-adv-x="287" 
d="M267 695q-47 -3 -73.5 -32.5t-26.5 -73.5q0 -19 2.5 -56t2.5 -55q0 -123 -81 -171q80 -48 80 -171q0 -19 -2 -56t-2 -55q0 -44 26 -73.5t73 -32.5v-19h-18q-104 0 -126 89l-14 176q-12 105 -88 131v22q79 26 88 133q7 88 13 177q26 88 146 87v-20z" />
    <glyph glyph-name="bar" unicode="|" horiz-adv-x="114" 
d="M94 10q0 -26 -28 -26q-44 0 -43 181l3 449q0 11 -3 31.5t-3 30.5q19 14 32 14q14 0 28 -10t14 -24q0 -10 -5 -26q-6 -20 -7 -25q-12 -68 -12 -190q0 -197 -1 -190q3 -123 16 -185q0 -3 4.5 -13.5t4.5 -16.5z" />
    <glyph glyph-name="braceright" unicode="}" horiz-adv-x="287" 
d="M267 297q-79 -26 -88 -133q-7 -88 -13 -177q-26 -88 -146 -87v20q47 3 73.5 32.5t26.5 73.5q0 19 -2.5 56t-2.5 55q0 123 81 171q-80 48 -80 171q0 19 2 56t2 55q0 44 -26 73.5t-73 32.5v19h18q104 0 126 -89l14 -176q12 -105 88 -131v-22z" />
    <glyph glyph-name="asciitilde" unicode="~" horiz-adv-x="439" 
d="M402 362q0 -12 -16 -26.5t-37 -27.5t-42 -22t-32 -9q-19 0 -37.5 7t-35.5 16t-31.5 16t-24.5 7q-12 0 -27.5 -6.5t-29.5 -14.5t-24 -15l-10 -7q-21 0 -21 20q0 10 16 24t37.5 27t43 21.5t33.5 8.5q19 0 34 -8t29 -17t28.5 -17t31.5 -8q11 0 26 8t29 17t25 17t15 8
q9 0 15 -4.5t5 -14.5z" />
    <glyph glyph-name="nonbreakingspace" unicode="&#xa0;" horiz-adv-x="211" 
 />
    <glyph glyph-name="exclamdown" unicode="&#xa1;" horiz-adv-x="209" 
d="M189 425q0 -29 -14.5 -38.5t-44.5 -9.5q-78 0 -78 30q0 69 77 69q13 0 53 -17q7 -16 7 -34zM135 208v-3l-29 -349q0 -5 5 -22q7 -23 8 -25q-22 -20 -51 -20q-25 0 -48 24q6 8 15 26q37 124 50 316q0 6 2.5 22t2.5 24q0 12 -16 76q5 5 14 13q5 1 15 1q14 0 22 -5
q12 -24 10 -78z" />
    <glyph glyph-name="cent" unicode="&#xa2;" horiz-adv-x="461" 
d="M441 482q0 -26 -38 -26q-26 0 -63.5 28t-56.5 28q-33 0 -33 -31v-250l9 -9q22 6 64 21q7 3 42 27.5t38 24.5h27q4 -5 4 -15q0 -39 -74 -68q-53 -19 -107 -38q4 -92 17 -184q-19 -11 -28 -11q-20 0 -32 26q-10 20 -10 43q0 7 2 22t2 23v81q-78 9 -127 48q-57 45 -57 119
q0 99 124 170q25 10 59 33q1 22 1 45q0 45 -4.5 67t-4.5 23v6q14 18 35 18q16 0 29.5 -13t13.5 -29q0 -15 -8 -45.5t-8 -46.5q0 -14 11 -14q6 0 17.5 1.5t17.5 1.5q39 0 83 -19q55 -24 55 -57zM202 220v259q-136 -61 -136 -150q0 -46 37.5 -79.5t84.5 -33.5q8 0 14 4z" />
    <glyph glyph-name="sterling" unicode="&#xa3;" horiz-adv-x="542" 
d="M522 79q-2 -37 -39 -61q-32 -21 -72 -21q-52 0 -156.5 3t-156.5 3q-10 0 -20.5 7t-10.5 17q0 5 3 9q29 18 53 71l36 84q-3 39 -17 63q-19 26 -37 52l-71 -8q-14 -1 -14 28q0 19 67 15q-6 13 -13 47t-7 47q0 11 2.5 32t2.5 32q0 61 63.5 114.5t125.5 53.5q41 0 105 -21
q38 -12 93 -60q61 -54 61 -87q0 -17 -24 -38t-42 -21q-12 0 -25.5 8.5t-13.5 19.5q0 22 20 22q4 0 10 -1.5t9 -1.5q7 0 10 18q-30 54 -83 88q-56 36 -115 36q-70 0 -114.5 -51t-44.5 -122q0 -78 33 -115h166q17 0 17 -18q0 -24 -17 -23l-150 9q47 -64 47 -114q0 -20 -29 -72
q-32 -59 -37 -76q40 0 121.5 -3.5t122.5 -3.5q84 0 97 45q12 9 21 9q5 0 11 -6.5t12 -8.5z" />
    <glyph glyph-name="currency" unicode="&#xa4;" horiz-adv-x="526" 
d="M423 317q0 -29 -7.5 -54t-21.5 -47q46 -42 75 -67.5t29 -29.5q0 -14 -13.5 -19.5t-24.5 -5.5q-6 0 -30 19t-72 64q-21 -17 -48 -26t-59 -9q-64 0 -106 28q-45 -48 -62.5 -69t-22.5 -21q-6 0 -10.5 5t-8 11.5t-5 12.5t-1.5 9q0 5 17.5 27t57.5 64q-22 36 -22 88
q0 30 8.5 60.5t24.5 57.5l-101 105q5 15 15 24.5t25 9.5q9 0 35 -26.5t60 -68.5q20 20 46.5 32.5t56.5 12.5q31 0 58 -12.5t47 -32.5l96 90q16 -5 27.5 -18t11.5 -31q0 -7 -12 -17t-28.5 -21.5t-33.5 -24t-28 -23.5q13 -23 20 -47.5t7 -49.5zM373 318q0 30 -6.5 56.5
t-19.5 45.5t-31.5 30t-42.5 11q-27 0 -50.5 -13t-40 -35.5t-26 -51.5t-9.5 -62q0 -57 26 -92t78 -35q28 0 51 11.5t38.5 31.5t24 46.5t8.5 56.5z" />
    <glyph glyph-name="yen" unicode="&#xa5;" horiz-adv-x="589" 
d="M569 691q-16 -13 -44 -43q-16 -19 -102.5 -161.5t-86.5 -150.5v-47h132q17 0 17 -26q0 -17 -17 -17h-132v-72h132q17 0 17 -27q0 -17 -17 -17h-132v-102q0 -13 -19 -29.5t-33 -16.5q-9 0 -24.5 10.5t-15.5 19.5q0 2 9 16q5 10 14 102h-117q-17 0 -17 27q0 17 17 17h120
q3 34 5 72h-122q-17 0 -17 26q0 17 17 17h124l3 46q-31 60 -108 171q-93 135 -120 135q-8 0 -14 -9h-11q-7 10 -7 19q0 12 12.5 20.5t25.5 8.5q65 0 247 -289q4 -1 6.5 2t39 65t72.5 125q40 74 57 134q18 14 32 14q21 0 57 -40z" />
    <glyph glyph-name="brokenbar" unicode="&#xa6;" horiz-adv-x="114" 
d="M70 424q0 -10 -7 -14.5t-15 -4.5q-9 0 -16.5 4t-7.5 13l2 192q0 6 -1 14.5t-2 17.5t-2 17t-1 13q20 14 32 14q14 0 28 -10t14 -24q0 -5 -2 -14.5t-10 -36.5q-12 -65 -12 -181zM94 10q0 -26 -28 -26q-44 0 -43 181v64q0 19 22 21q15 0 19.5 -6.5t4.5 -18.5q0 -62 4.5 -108
t11.5 -77q0 -3 4.5 -13.5t4.5 -16.5z" />
    <glyph glyph-name="section" unicode="&#xa7;" horiz-adv-x="357" 
d="M329 293q0 -17 -14 -38t-35 -39t-46.5 -30.5t-48.5 -12.5q-22 0 -43.5 3t-36.5 11q6 -33 23.5 -62.5t41.5 -55t52 -46.5t55 -37q57 -35 57 -55q0 -17 -13.5 -31t-34.5 -24.5t-46 -16.5t-48 -6q-12 0 -22.5 1t-24 6t-30.5 16.5t-42 31.5q-46 37 -46 51q0 17 9 22.5t28 5.5
h6q1 -14 18.5 -31t41.5 -31.5t50 -24.5t44 -10q44 0 44 30q0 10 -20 27q-37 29 -73.5 58.5t-65 63.5t-46.5 74t-18 89q0 28 8 51.5t21 41.5t29.5 31t34.5 20q-85 60 -85 147q0 28 8.5 56t23 50t33.5 35.5t40 13.5q16 0 38 -9t43 -23t37 -31t20 -32q3 -14 5.5 -29.5
t2.5 -33.5q0 -37 -14 -85q-8 -7 -21 -7q-7 0 -21 5t-16 11q2 0 11 23q8 18 8 62q0 107 -67 107q-15 0 -28.5 -11t-23.5 -29t-16 -40t-6 -44q0 -49 57 -95q19 -17 105 -69q57 -35 57 -55zM102 243q25 -17 51 -25t52 -8q15 0 26 8.5t18 20t10.5 23.5t3.5 20q0 13 -22 28
t-64 41q-14 -4 -27 -14.5t-23.5 -25t-17 -32.5t-7.5 -36z" />
    <glyph glyph-name="dieresis" unicode="&#xa8;" horiz-adv-x="270" 
d="M250 749q0 -17 -11.5 -29.5t-28.5 -12.5t-28.5 12.5t-11.5 29.5q0 16 11.5 28.5t28.5 12.5t28.5 -12.5t11.5 -28.5zM100 749q0 -17 -11.5 -29.5t-28.5 -12.5t-28.5 12.5t-11.5 29.5q0 16 11.5 28.5t28.5 12.5t28.5 -12.5t11.5 -28.5z" />
    <glyph glyph-name="copyright" unicode="&#xa9;" horiz-adv-x="764" 
d="M744 331q0 -150 -106 -256t-256 -106t-256 106t-106 256t106 256t256 106t256 -106t106 -256zM704 331q0 133 -94.5 227.5t-227.5 94.5t-227.5 -94.5t-94.5 -227.5t94.5 -227.5t227.5 -94.5t227.5 94.5t94.5 227.5zM574 209q0 -58 -69 -96q-59 -31 -122 -31
q-94 0 -146 61q-49 58 -49 153q0 78 27 146q31 76 88 117q44 32 90 32q63 0 97 -48q29 -42 29 -108q0 -31 -13 -72q-16 -52 -39 -52q-20 0 -32 22q5 3 16 11q23 17 23 83q0 42 -18 78q-22 45 -60 45q-30 0 -64 -30q-28 -24 -46 -57q-43 -73 -43 -180q0 -163 143 -163
q91 0 131 69q4 10 14 29q8 11 21 11q22 0 22 -20z" />
    <glyph glyph-name="ordfeminine" unicode="&#xaa;" horiz-adv-x="306" 
d="M260 402q0 -16 0.5 -29.5t0.5 -25.5q0 -35 -5.5 -54t-25.5 -19q-18 0 -24 8.5t-6 25.5q-30 -15 -62 -15q-17 0 -34 5t-30 14t-21 20.5t-8 23.5q0 16 12 30t30 24t38 15.5t36 5.5q23 0 39 -4v19q0 63 -37 63q-48 0 -48 -45q0 -15 -17 -15q-10 0 -21 9.5t-11 19.5
q0 34 24 55.5t58 21.5q112 0 112 -153zM200 380q0 12 -18 12q-75 0 -75 -35q0 -19 33 -19q23 0 41.5 13t18.5 29z" />
    <glyph glyph-name="guillemotleft" unicode="&#xab;" horiz-adv-x="330" 
d="M310 151q0 -20 -15 -20q-13 0 -23 11q-16 19 -72 101q-60 88 -60 97t10 15l110 165q6 3 12 3q26 0 26 -31q0 -14 -45 -73q-29 -38 -59 -75l112 -170q4 -6 4 -23zM178 492q0 -10 -6 -18l-98 -130l97 -141q4 -5 4 -23q0 -20 -15 -20q-13 0 -23 11q-19 23 -65 86
q-52 73 -52 83q0 9 10 15l110 165q6 3 12 3q26 0 26 -31z" />
    <glyph glyph-name="logicalnot" unicode="&#xac;" horiz-adv-x="520" 
d="M450 410q0 -6 -0.5 -22.5t-0.5 -43.5v-276q0 -23 9 -60q-5 -8 -11 -8q-49 0 -49 47v314h-371q-7 13 -7 25q0 11 8 22.5t18 11.5q7 0 22 -1.5t31 -3t30.5 -2.5t22.5 -1h230q23 0 61 9q7 -4 7 -11z" />
    <glyph glyph-name="softhyphen" unicode="&#xad;" horiz-adv-x="284" 
d="M264 247q0 -4 -8 -4q-9 0 -26.5 6.5t-26.5 6.5q-12 0 -35.5 -2t-34.5 -2q-99 0 -113 52q6 8 12 8q7 0 22.5 -6.5t25.5 -6.5q20 0 60 3.5t60 3.5q38 0 47 -14q1 -2 5 -19q3 -13 12 -15v-11z" />
    <glyph glyph-name="registered" unicode="&#xae;" horiz-adv-x="420" 
d="M400 493q0 -78 -56 -134t-134 -56t-134 56t-56 134t56 134t134 56t134 -56t56 -134zM380 493q0 70 -50 120t-120 50t-120 -50t-50 -120t50 -120t120 -50t120 50t50 120zM311 380v-2l-6 -4l-4 2q-3 14 -50 46.5t-63 32.5h-21v-22q0 -35 12 -51q0 -8 -9 -8q-18 0 -21 33v45
q0 5 -13 9t-13 10q0 8 24 14q1 23 5 69q5 52 5 44l-8.5 0.5t-8.5 6.5q0 5 12.5 12.5t13.5 8.5q4 0 12.5 -3.5t15.5 -3.5q40 0 67 -16q33 -20 33 -57q0 -35 -21 -52q-24 -15 -47 -31l52 -36q33 -24 33 -47zM276 548q0 27 -25 42q-21 12 -50 12q-10 0 -17 -1v-3q0 -11 -4 -25
q-7 -22 -8 -25q-4 -21 -6 -65q27 -10 34 -10q28 0 52 23.5t24 51.5z" />
    <glyph glyph-name="macron" unicode="&#xaf;" horiz-adv-x="224" 
d="M204 724h-184v38h184v-38z" />
    <glyph glyph-name="macron" unicode="&#x2c9;" horiz-adv-x="224" 
d="M204 724h-184v38h184v-38z" />
    <glyph glyph-name="degree" unicode="&#xb0;" horiz-adv-x="297" 
d="M277 518q0 -69 -30 -114q-36 -52 -102 -52q-62 0 -95 43q-30 40 -30 104q0 46 18 92q21 54 55 74q19 12 27 12q12 0 37 -11l9 -24q5 6 15 6q46 0 73 -44q23 -38 23 -86zM236 518q0 66 -50 94q-13 5 -26 10.5t-12 19.5h-11q-31 -15 -53.5 -59t-22.5 -81q0 -112 76 -112
q44 0 73 43q26 39 26 85z" />
    <glyph glyph-name="plusminus" unicode="&#xb1;" horiz-adv-x="520" 
d="M500 360q0 -49 -46 -49h-176v-149q0 -22 9 -60q-5 -8 -11 -8q-49 0 -49 47v170h-200q-7 13 -7 25q0 11 8 22.5t18 11.5q18 0 53 -4t53 -4h75v206q13 7 25 7q11 0 26.5 -7t15.5 -17q0 -18 -8 -54t-8 -54v-81h154q23 0 61 9q7 -4 7 -11zM500 31q0 -49 -46 -49h-427
q-7 13 -7 25q0 11 8 22.5t18 11.5q7 0 22 -1.5t31 -3t30.5 -2.5t22.5 -1h280q23 0 61 9q7 -4 7 -11z" />
    <glyph glyph-name="twosuperior" unicode="&#xb2;" horiz-adv-x="322" 
d="M286 379q0 -7 -5 -14t-13 -7q-5 0 -17.5 3.5t-19.5 3.5q-79 0 -157 -24l-20 -5q-12 0 -21 7t-9 19q0 11 6.5 19.5t28.5 25.5q30 24 56.5 51t45.5 54t30 51.5t11 44.5q0 19 -13 30.5t-31 11.5q-10 0 -22 -4.5t-23 -12t-19.5 -17t-11.5 -19.5q-4 -20 -8 -38t-20 -18
q-7 0 -17.5 8t-10.5 16q0 23 13 44.5t33 38.5t44 27t46 10q16 0 32 -7t28.5 -18.5t20 -27t7.5 -32.5q0 -26 -13 -55t-39 -58q-11 -12 -38.5 -35.5t-69.5 -65.5q40 8 84 14.5t86 9.5q11 0 18.5 -9.5t7.5 -21.5z" />
    <glyph glyph-name="threesuperior" unicode="&#xb3;" horiz-adv-x="353" 
d="M310 464q0 -28 -14 -50t-36.5 -37.5t-49.5 -24t-54 -8.5q-32 0 -57 5t-51 25q-24 18 -24 36q0 9 8 15.5t16 6.5q7 0 13.5 -5.5t11 -12t8 -13t5.5 -8.5q17 -14 55 -14q22 0 43.5 7t38 18t26.5 26t10 31q0 11 -7.5 21t-18.5 17.5t-25.5 12t-27.5 4.5q-2 0 -12.5 -3.5
t-24 -7.5t-27 -7.5t-20.5 -3.5q-11 0 -19.5 4t-8.5 12q0 10 11 22t39 14q18 1 29 2t19 4.5t15 10.5t18 19q10 12 15.5 22t5.5 22q0 28 -29 28q-7 0 -19.5 -3.5t-25 -9t-23.5 -11.5t-15 -12q2 -6 2 -8q-2 -6 -8 -12.5t-13.5 -12.5t-15 -9.5t-11.5 -3.5q-9 0 -18 6.5t-9 14.5
q0 13 15 30t38.5 33t51 27t51.5 11q32 0 53.5 -17.5t21.5 -46.5q0 -23 -13 -45.5t-31 -38.5q88 -18 88 -82z" />
    <glyph glyph-name="acute" unicode="&#xb4;" horiz-adv-x="196" 
d="M176 776l-2 -7q-10 -2 -28 -9q-24 -11 -52 -38q-41 -40 -62 -40q-3 0 -7.5 8t-4.5 12l1 5q102 109 124 109q9 0 20 -15.5t11 -24.5z" />
    <glyph glyph-name="mu" unicode="&#xb5;" horiz-adv-x="331" 
d="M310 374q0 -14 -2 -39t-4.5 -54t-4.5 -57.5t-2 -48.5q0 -6 1 -26t2.5 -42.5t2.5 -43t1 -29.5q0 -35 -5 -46t-22 -11q-14 0 -20.5 5.5t-9 14t-3.5 18.5t-5 18q-14 -20 -42 -37.5t-65 -17.5q-15 0 -31 9.5t-25 20.5q0 -93 5.5 -145t12 -77t12 -31.5t5.5 -9.5
q0 -11 -6.5 -14t-19.5 -3q-10 0 -17 1t-12 6.5t-8.5 16t-6.5 29.5q-6 34 -9.5 64.5t-5 72.5t-1.5 103v156v217q-1 2 -1 7q0 23 35 23q28 0 28 -32q0 -24 -1 -63.5t-2 -78.5t-2 -70t-1 -38q0 -20 5 -40.5t14 -37t21 -27t27 -10.5q22 0 40 14t31 38.5t20.5 57t7.5 70.5v131
q0 8 -5.5 22.5t-5.5 23.5q0 25 37 25t37 -35z" />
    <glyph glyph-name="mu" unicode="&#x3bc;" horiz-adv-x="331" 
d="M310 374q0 -14 -2 -39t-4.5 -54t-4.5 -57.5t-2 -48.5q0 -6 1 -26t2.5 -42.5t2.5 -43t1 -29.5q0 -35 -5 -46t-22 -11q-14 0 -20.5 5.5t-9 14t-3.5 18.5t-5 18q-14 -20 -42 -37.5t-65 -17.5q-15 0 -31 9.5t-25 20.5q0 -93 5.5 -145t12 -77t12 -31.5t5.5 -9.5
q0 -11 -6.5 -14t-19.5 -3q-10 0 -17 1t-12 6.5t-8.5 16t-6.5 29.5q-6 34 -9.5 64.5t-5 72.5t-1.5 103v156v217q-1 2 -1 7q0 23 35 23q28 0 28 -32q0 -24 -1 -63.5t-2 -78.5t-2 -70t-1 -38q0 -20 5 -40.5t14 -37t21 -27t27 -10.5q22 0 40 14t31 38.5t20.5 57t7.5 70.5v131
q0 8 -5.5 22.5t-5.5 23.5q0 25 37 25t37 -35z" />
    <glyph glyph-name="paragraph" unicode="&#xb6;" horiz-adv-x="432" 
d="M412 290q0 -16 -43 -26q-14 -108 -14 -158q0 -18 5.5 -54t5.5 -54q0 -55 -14 -55q-11 0 -19 23q-7 19 -7 32q0 19 -5.5 54.5t-5.5 53.5q0 50 13 150q-23 -4 -44 -6v-31q0 -34 2.5 -100t2.5 -98q0 -21 -20 -21q-17 0 -20 20q-9 60 -6 227q-95 -1 -159 57.5t-64 153.5
q0 85 54 139.5t139 54.5q23 0 44 -1q0 3 -2.5 13t-2.5 15q0 20 21 20t24 -52q17 -2 35 -5q-1 25 -1 47q0 20 20 20q18 0 21 -28v-41v-4q37 -6 37 -24q0 -20 -19 -20q-5 0 -16 3q7 -133 7 -166q0 -57 -7 -122q14 4 19 4q19 0 19 -21zM336 445q0 102 -5 167h-37l-9 -317l46 -3
q5 63 5 153zM259 610q-23 2 -46 2q-67 0 -110 -42.5t-43 -110.5q0 -76 52 -122t129 -45h4q3 74 9 223q-2 32 5 95z" />
    <glyph glyph-name="periodcentered" unicode="&#xb7;" horiz-adv-x="142" 
d="M122 315q0 -19 -15.5 -31t-35.5 -12q-16 0 -33.5 12.5t-17.5 28.5q0 21 20 32q17 10 39 10q15 0 29 -12.5t14 -27.5z" />
    <glyph glyph-name="periodcentered" unicode="&#x2219;" horiz-adv-x="142" 
d="M122 315q0 -19 -15.5 -31t-35.5 -12q-16 0 -33.5 12.5t-17.5 28.5q0 21 20 32q17 10 39 10q15 0 29 -12.5t14 -27.5z" />
    <glyph glyph-name="cedilla" unicode="&#xb8;" horiz-adv-x="166" 
d="M146 -80q0 -30 -35 -52q-16 -10 -61 -27l-11 28q27 10 41 18q28 15 30 29q-5 8 -39.5 13.5t-38.5 10.5q-12 3 -12 10q0 10 16 25q23 21 24 22l29 1q-8 -13 -25 -37q45 -8 50 -9q32 -10 32 -32z" />
    <glyph glyph-name="onesuperior" unicode="&#xb9;" horiz-adv-x="149" 
d="M106 658q0 -7 -6 -34q-8 -35 -11 -62.5t-3 -47.5v-74.5t0.5 -42t1.5 -19.5t2 -6q8 -14 8 -15q0 -18 -19 -18q-34 0 -34 31v208l-8 6q0 19 3.5 37.5t9.5 33.5t13 24t15 9q9 0 18.5 -10.5t9.5 -19.5z" />
    <glyph glyph-name="ordmasculine" unicode="&#xba;" horiz-adv-x="304" 
d="M259 418q0 -29 -8 -54t-23 -43t-35 -28.5t-44 -10.5q-50 0 -77 32.5t-27 89.5q0 29 8.5 57.5t23 51t34 36.5t42.5 14q18 0 35 -10.5t28 -21.5q43 -40 43 -113zM206 419q0 92 -44 92q-27 0 -43.5 -30t-16.5 -75q0 -80 47 -80q28 0 42.5 26t14.5 67z" />
    <glyph glyph-name="guillemotright" unicode="&#xbb;" horiz-adv-x="320" 
d="M300 345q0 -10 -10 -15l-100 -165q-6 -3 -12 -3q-26 0 -26 31q0 14 41 73q26 37 53 75q-28 38 -55 76q-42 61 -42 74q0 20 25 20q8 0 14 -5q11 -10 61.5 -81.5t50.5 -79.5zM180 345q0 -10 -10 -15l-110 -175q-6 -3 -12 -3q-26 0 -26 31q0 14 45 78q30 40 59 80l-60 84
q-46 66 -46 81q0 19 24 19q9 0 15 -5q12 -10 66.5 -88.5t54.5 -86.5z" />
    <glyph glyph-name="onequarter" unicode="&#xbc;" horiz-adv-x="548" 
d="M120 658q0 -7 -6 -34q-8 -35 -11 -62.5t-3 -47.5v-74.5t0.5 -42t1.5 -19.5t2 -6q8 -14 8 -15q0 -18 -19 -18q-34 0 -34 31v208l-8 6q0 19 3.5 37.5t9.5 33.5t13 24t15 9q9 0 18.5 -10.5t9.5 -19.5zM380 639q0 -7 -5 -10q-16 -9 -44.5 -49.5t-67.5 -115.5
q-41 -77 -79.5 -162t-71.5 -176q-33 -92 -33 -101q0 -4 6.5 -9.5t6.5 -9.5q0 -14 -15 -14q-2 0 -7.5 1.5t-11 6t-9.5 12t-4 19.5q0 5 6 28t26 77q36 95 73.5 181t79.5 167q27 52 45.5 88t28.5 56q4 16 11 31.5t21 15.5q15 0 29.5 -10.5t14.5 -25.5zM492 78l-21 3
q-11 2 -25 3.5t-31 1.5q0 -18 1 -37t9 -31q4 -9 4 -12q0 -5 -5 -13.5t-19 -8.5q-7 0 -13 1.5t-10.5 6.5t-7.5 15t-3 27v13.5t0.5 15t0.5 13.5v8q-9 -1 -26 -3t-36.5 -4t-37 -3.5t-27.5 -1.5q-9 0 -19.5 4t-20 10t-16 13.5t-6.5 14.5q0 17 23 38.5t55 47.5q18 15 45 38.5
t62 55.5q10 9 15.5 16.5t11 13t11 8.5t15.5 3q12 0 21 -8t9 -19q0 -8 -3 -17t-7 -17q-4 -23 -8 -47t-7 -45t-5 -36.5t-2 -19.5q5 0 10.5 0.5t13.5 0.5q25 0 42.5 -7t17.5 -21q0 -8 -2.5 -14.5t-8.5 -6.5zM387 254q-17 -12 -38 -28t-46 -36q-66 -56 -66 -72q0 -4 8 -4
q4 0 19 1.5t34.5 3t40 3.5t36.5 3q3 58 12 129z" />
    <glyph glyph-name="onehalf" unicode="&#xbd;" horiz-adv-x="513" 
d="M115 658q0 -7 -6 -34q-8 -35 -11 -62.5t-3 -47.5v-74.5t0.5 -42t1.5 -19.5t2 -6q8 -14 8 -15q0 -18 -19 -18q-34 0 -34 31v208l-8 6q0 19 3.5 37.5t9.5 33.5t13 24t15 9q9 0 18.5 -10.5t9.5 -19.5zM380 639q0 -7 -5 -10q-16 -9 -44.5 -49.5t-67.5 -115.5
q-41 -77 -79.5 -162t-71.5 -176q-33 -92 -33 -101q0 -4 6.5 -9.5t6.5 -9.5q0 -14 -15 -14q-2 0 -7.5 1.5t-11 6t-9.5 12t-4 19.5q0 5 6 28t26 77q36 95 73.5 181t79.5 167q27 52 45.5 88t28.5 56q4 16 11 31.5t21 15.5q15 0 29.5 -10.5t14.5 -25.5zM468 31q0 -7 -5 -14
t-13 -7q-5 0 -17.5 3.5t-19.5 3.5q-79 0 -157 -24l-20 -5q-12 0 -21 7t-9 19q0 11 6.5 19.5t28.5 25.5q30 24 56.5 51t45.5 54t30 51.5t11 44.5q0 19 -13 30.5t-31 11.5q-10 0 -22 -4.5t-23 -12t-19.5 -17t-11.5 -19.5q-4 -20 -8 -38t-20 -18q-7 0 -17.5 8t-10.5 16
q0 23 13 44.5t33 38.5t44 27t46 10q16 0 32 -7t28.5 -18.5t20 -27t7.5 -32.5q0 -26 -13 -55t-39 -58q-11 -12 -38.5 -35.5t-69.5 -65.5q40 8 84 14.5t86 9.5q11 0 18.5 -9.5t7.5 -21.5z" />
    <glyph glyph-name="threequarters" unicode="&#xbe;" horiz-adv-x="698" 
d="M331 464q0 -28 -14 -50t-36.5 -37.5t-49.5 -24t-54 -8.5q-32 0 -57 5t-51 25q-24 18 -24 36q0 9 8 15.5t16 6.5q7 0 13.5 -5.5t11 -12t8 -13t5.5 -8.5q17 -14 55 -14q22 0 43.5 7t38 18t26.5 26t10 31q0 11 -7.5 21t-18.5 17.5t-25.5 12t-27.5 4.5q-2 0 -12.5 -3.5
t-24 -7.5t-27 -7.5t-20.5 -3.5q-11 0 -19.5 4t-8.5 12q0 10 11 22t39 14q18 1 29 2t19 4.5t15 10.5t18 19q10 12 15.5 22t5.5 22q0 28 -29 28q-7 0 -19.5 -3.5t-25 -9t-23.5 -11.5t-15 -12q2 -6 2 -8q-2 -6 -8 -12.5t-13.5 -12.5t-15 -9.5t-11.5 -3.5q-9 0 -18 6.5t-9 14.5
q0 13 15 30t38.5 33t51 27t51.5 11q32 0 53.5 -17.5t21.5 -46.5q0 -23 -13 -45.5t-31 -38.5q88 -18 88 -82zM538 639q0 -7 -5 -10q-16 -9 -44.5 -49.5t-67.5 -115.5q-41 -77 -79.5 -162t-71.5 -176q-33 -92 -33 -101q0 -4 6.5 -9.5t6.5 -9.5q0 -14 -15 -14q-2 0 -7.5 1.5
t-11 6t-9.5 12t-4 19.5q0 5 6 28t26 77q36 95 73.5 181t79.5 167q27 52 45.5 88t28.5 56q4 16 11 31.5t21 15.5q15 0 29.5 -10.5t14.5 -25.5zM642 78l-21 3q-11 2 -25 3.5t-31 1.5q0 -18 1 -37t9 -31q4 -9 4 -12q0 -5 -5 -13.5t-19 -8.5q-7 0 -13 1.5t-10.5 6.5t-7.5 15
t-3 27v13.5t0.5 15t0.5 13.5v8q-9 -1 -26 -3t-36.5 -4t-37 -3.5t-27.5 -1.5q-9 0 -19.5 4t-20 10t-16 13.5t-6.5 14.5q0 17 23 38.5t55 47.5q18 15 45 38.5t62 55.5q10 9 15.5 16.5t11 13t11 8.5t15.5 3q12 0 21 -8t9 -19q0 -8 -3 -17t-7 -17q-4 -23 -8 -47t-7 -45t-5 -36.5
t-2 -19.5q5 0 10.5 0.5t13.5 0.5q25 0 42.5 -7t17.5 -21q0 -8 -2.5 -14.5t-8.5 -6.5zM537 254q-17 -12 -38 -28t-46 -36q-66 -56 -66 -72q0 -4 8 -4q4 0 19 1.5t34.5 3t40 3.5t36.5 3q3 58 12 129z" />
    <glyph glyph-name="questiondown" unicode="&#xbf;" horiz-adv-x="506" 
d="M367 404q0 -13 -20.5 -23t-35.5 -10q-21 0 -34 14.5t-13 35.5q0 44 41 44q27 0 44.5 -17t17.5 -44zM486 -26q0 -33 -64 -88q-57 -50 -97 -64q-73 -26 -103 -26q-62 0 -130 48q-72 52 -72 111q0 34 31 81q27 41 163 135q119 82 122 124q-14 9 -28 19q-10 8 -10 31
q3 4 10 4q18 0 45 -30.5t27 -48.5q0 -46 -60 -90q-49 -31 -97 -62q-137 -97 -137 -163q0 -47 35 -76.5t83 -29.5q50 0 125.5 44.5t100.5 88.5q-3 5 -10 5q-3 0 -9 -1.5t-10 -1.5q-25 0 -25 15q0 11 16.5 23t27.5 12q18 0 42 -21t24 -39z" />
    <glyph glyph-name="Agrave" unicode="&#xc0;" horiz-adv-x="518" 
d="M383 702q0 -4 -4.5 -12t-7.5 -8q-21 0 -62 40q-28 27 -52 38q-11 3 -28 9l-3 7q1 9 12 24.5t20 15.5q22 0 124 -109zM498 169q0 -32 -25 -32q-10 0 -21 4q0 -31 25 -94q-1 -13 -12.5 -21t-25.5 -8q-12 0 -27 7q-8 16 -8 50q0 9 1 27t1 27q0 5 -1 9q-7 0 -25 2t-27 2
q-55 0 -140 -7q-111 -9 -126 -22t-18 -121q-5 -7 -14 -7q-13 0 -29 13t-16 25q0 2 17 53q19 76 65 225q132 375 204 375q77 0 119 -206q13 -65 35 -274q6 -5 30 -11q18 -4 18 -16zM401 188q-32 226 -32 227q-33 183 -70 183q-30 0 -101 -163q-42 -95 -81 -203
q-17 -47 -17 -58q0 -7 14 -7q-1 0 65 12q76 14 222 9z" />
    <glyph glyph-name="Aacute" unicode="&#xc1;" horiz-adv-x="518" 
d="M372 776l-3 -7q-10 -2 -28 -9q-24 -11 -52 -38q-41 -40 -62 -40q-3 0 -7.5 8t-4.5 12l1 5q102 109 124 109q9 0 20 -15.5t12 -24.5zM498 169q0 -32 -25 -32q-10 0 -21 4q0 -31 25 -94q-1 -13 -12.5 -21t-25.5 -8q-12 0 -27 7q-8 16 -8 50q0 9 1 27t1 27q0 5 -1 9
q-7 0 -25 2t-27 2q-55 0 -140 -7q-111 -9 -126 -22t-18 -121q-5 -7 -14 -7q-13 0 -29 13t-16 25q0 2 17 53q19 76 65 225q132 375 204 375q77 0 119 -206q13 -65 35 -274q6 -5 30 -11q18 -4 18 -16zM401 188q-32 226 -32 227q-33 183 -70 183q-30 0 -101 -163
q-42 -95 -81 -203q-17 -47 -17 -58q0 -7 14 -7q-1 0 65 12q76 14 222 9z" />
    <glyph glyph-name="Acircumflex" unicode="&#xc2;" horiz-adv-x="518" 
d="M423 702q0 -4 -4.5 -12t-7.5 -8q-19 0 -62 40q-13 12 -25 16q-17 7 -25 11q-14 -3 -50 -27q-43 -40 -62 -40q-3 0 -7.5 8t-4.5 12l1 5q111 100 123 100t123 -100zM498 169q0 -32 -25 -32q-10 0 -21 4q0 -31 25 -94q-1 -13 -12.5 -21t-25.5 -8q-12 0 -27 7q-8 16 -8 50
q0 9 1 27t1 27q0 5 -1 9q-7 0 -25 2t-27 2q-55 0 -140 -7q-111 -9 -126 -22t-18 -121q-5 -7 -14 -7q-13 0 -29 13t-16 25q0 2 17 53q19 76 65 225q132 375 204 375q77 0 119 -206q13 -65 35 -274q6 -5 30 -11q18 -4 18 -16zM401 188q-32 226 -32 227q-33 183 -70 183
q-30 0 -101 -163q-42 -95 -81 -203q-17 -47 -17 -58q0 -7 14 -7q-1 0 65 12q76 14 222 9z" />
    <glyph glyph-name="Atilde" unicode="&#xc3;" horiz-adv-x="518" 
d="M433 783q0 -17 -38.5 -41.5t-57.5 -24.5q-28 0 -54 18t-43 18q-20 0 -43 -15.5l-23 -15.5q-16 0 -16 15q0 17 40 40q37 21 56 21q26 0 49.5 -19.5t42.5 -19.5q20 0 44.5 19.5t27.5 19.5q15 0 15 -15zM498 169q0 -32 -25 -32q-10 0 -21 4q0 -31 25 -94q-1 -13 -12.5 -21
t-25.5 -8q-12 0 -27 7q-8 16 -8 50q0 9 1 27t1 27q0 5 -1 9q-7 0 -25 2t-27 2q-55 0 -140 -7q-111 -9 -126 -22t-18 -121q-5 -7 -14 -7q-13 0 -29 13t-16 25q0 2 17 53q19 76 65 225q132 375 204 375q77 0 119 -206q13 -65 35 -274q6 -5 30 -11q18 -4 18 -16zM401 188
q-32 226 -32 227q-33 183 -70 183q-30 0 -101 -163q-42 -95 -81 -203q-17 -47 -17 -58q0 -7 14 -7q-1 0 65 12q76 14 222 9z" />
    <glyph glyph-name="Adieresis" unicode="&#xc4;" horiz-adv-x="518" 
d="M409 749q0 -17 -11.5 -29.5t-28.5 -12.5t-28.5 12.5t-11.5 29.5q0 16 11.5 28.5t28.5 12.5t28.5 -12.5t11.5 -28.5zM259 749q0 -17 -11.5 -29.5t-28.5 -12.5t-28.5 12.5t-11.5 29.5q0 16 11.5 28.5t28.5 12.5t28.5 -12.5t11.5 -28.5zM498 169q0 -32 -25 -32q-10 0 -21 4
q0 -31 25 -94q-1 -13 -12.5 -21t-25.5 -8q-12 0 -27 7q-8 16 -8 50q0 9 1 27t1 27q0 5 -1 9q-7 0 -25 2t-27 2q-55 0 -140 -7q-111 -9 -126 -22t-18 -121q-5 -7 -14 -7q-13 0 -29 13t-16 25q0 2 17 53q19 76 65 225q132 375 204 375q77 0 119 -206q13 -65 35 -274
q6 -5 30 -11q18 -4 18 -16zM401 188q-32 226 -32 227q-33 183 -70 183q-30 0 -101 -163q-42 -95 -81 -203q-17 -47 -17 -58q0 -7 14 -7q-1 0 65 12q76 14 222 9z" />
    <glyph glyph-name="Aring" unicode="&#xc5;" horiz-adv-x="518" 
d="M358 773q0 -23 -17 -40t-40 -17t-40 17t-17 40t17 40t40 17t40 -17t17 -40zM498 169q0 -32 -25 -32q-10 0 -21 4q0 -31 25 -94q-1 -13 -12.5 -21t-25.5 -8q-12 0 -27 7q-8 16 -8 50q0 9 1 27t1 27q0 5 -1 9q-7 0 -25 2t-27 2q-55 0 -140 -7q-111 -9 -126 -22t-18 -121
q-5 -7 -14 -7q-13 0 -29 13t-16 25q0 2 17 53q19 76 65 225q132 375 204 375q77 0 119 -206q13 -65 35 -274q6 -5 30 -11q18 -4 18 -16zM338 773q0 15 -11 26t-26 11t-26 -11t-11 -26t11 -26t26 -11t26 11t11 26zM401 188q-32 226 -32 227q-33 183 -70 183q-30 0 -101 -163
q-42 -95 -81 -203q-17 -47 -17 -58q0 -7 14 -7q-1 0 65 12q76 14 222 9z" />
    <glyph glyph-name="AE" unicode="&#xc6;" horiz-adv-x="856" 
d="M836 51q0 -10 -15 -10q-4 0 -11.5 1.5t-11.5 1.5q-45 0 -130 -28.5t-131 -28.5q-105 0 -109 151q-60 4 -50 4q-56 0 -141 -7q-109 -9 -129 -23q-15 -11 -34 -120q-5 -7 -14 -7q-14 0 -27 12.5t-13 25.5q0 1 24 53q29 76 94 225q181 375 253 375q13 0 37 -6.5t37 -6.5
q93 0 213 24q46 10 58 10q56 0 91 -42q-11 -11 -25 -11q-6 0 -18.5 1.5t-18.5 1.5q-56 0 -138 -10q-103 -14 -127 -33q-7 -90 -13 -270l4 -1q5 0 14.5 5t14.5 5q62 0 117 7q14 2 20 2q31 0 68 -18v-16q0 -9 -14 -20q-16 15 -28 15q-30 0 -101 -11q-74 -13 -98 -23
q0 -2 -1 -83q5 -5 27 -10q17 -4 17 -17q0 -32 -29 -32q-10 0 -20 4q2 -109 67 -109q40 0 112.5 28t113.5 28q51 0 63 -23q0 -3 1 -7.5t1 -6.5zM438 559q0 5 -1 22v23q-14 23 -37 23q-29 0 -129 -176q-60 -105 -117 -219q-25 -50 -25 -58q0 -7 13 -7q16 0 40 6q33 7 40 8
q78 12 206 7v85q-14 -4 -17 -4q-17 0 -17 23q0 18 10 24q5 4 25 7q1 31 5 118q4 74 4 118z" />
    <glyph glyph-name="Ccedilla" unicode="&#xc7;" horiz-adv-x="488" 
d="M468 154q0 -71 -68 -122q-60 -45 -135 -51q-6 -11 -20 -30q40 -6 50 -9q32 -11 32 -32q0 -30 -35 -52q-17 -11 -61 -27l-10 28q26 10 41 18q26 14 29 29q-7 9 -39 14t-39 10q-12 4 -12 10q0 10 13 22q11 9 21 18q-111 4 -168 100q-47 79 -47 199q0 107 31 200
q35 109 104 170q50 45 103 45q77 0 115 -74q30 -58 30 -143q0 -42 -13 -97q-17 -72 -44 -72q-20 0 -30 22q6 4 19 14q26 24 26 122q0 59 -22 113q-28 70 -77 70q-39 0 -82 -47q-32 -35 -55 -81q-51 -105 -51 -261q0 -103 36 -164q45 -76 140 -76q52 0 95.5 27.5t65.5 73.5
q4 15 17 42q8 13 20 13q20 0 20 -22z" />
    <glyph glyph-name="Egrave" unicode="&#xc8;" horiz-adv-x="465" 
d="M273 732q0 -4 -4.5 -12t-7.5 -8q-21 0 -62 40q-28 27 -52 38q-11 3 -28 9l-3 7q1 9 12 24.5t20 15.5q22 0 124 -109zM445 42q-5 -11 -12 -11q-4 0 -11.5 1.5t-11.5 1.5q-43 0 -124.5 -27.5t-124.5 -27.5q-141 0 -141 237q0 188 10 321l2 32q0 9 -2.5 24.5t-3.5 21.5
q10 9 34 19q37 4 136 30q89 23 132 23q56 0 91 -42q-11 -11 -25 -11q-6 0 -18.5 1.5t-18.5 1.5q-46 0 -135 -16q-100 -19 -124 -39q-8 -86 -19 -258q4 -5 11 -5q30 0 89 14t90 14q25 0 50 -13l8 -30q2 -4 -26 -14q-14 9 -36 9q-27 0 -96.5 -14t-92.5 -24q-4 -22 -4 -82
q0 -151 77 -151q37 0 106.5 25t106.5 25q64 0 83 -36z" />
    <glyph glyph-name="Eacute" unicode="&#xc9;" horiz-adv-x="465" 
d="M302 776l-3 -7q-10 -2 -28 -9q-24 -11 -52 -38q-41 -40 -62 -40q-3 0 -7.5 8t-4.5 12l1 5q102 109 124 109q9 0 20 -15.5t12 -24.5zM445 42q-5 -11 -12 -11q-4 0 -11.5 1.5t-11.5 1.5q-43 0 -124.5 -27.5t-124.5 -27.5q-141 0 -141 237q0 188 10 321l2 32q0 9 -2.5 24.5
t-3.5 21.5q10 9 34 19q37 4 136 30q89 23 132 23q56 0 91 -42q-11 -11 -25 -11q-6 0 -18.5 1.5t-18.5 1.5q-46 0 -135 -16q-100 -19 -124 -39q-8 -86 -19 -258q4 -5 11 -5q30 0 89 14t90 14q25 0 50 -13l8 -30q2 -4 -26 -14q-14 9 -36 9q-27 0 -96.5 -14t-92.5 -24
q-4 -22 -4 -82q0 -151 77 -151q37 0 106.5 25t106.5 25q64 0 83 -36z" />
    <glyph glyph-name="Ecircumflex" unicode="&#xca;" horiz-adv-x="465" 
d="M347 734q0 -20 -12 -20q-20 0 -64 33q-14 11 -27 14q-18 4 -26 8q-13 -4 -46 -32q-41 -46 -58 -46q-4 0 -9 7.5t-5 12.5v3q102 112 112 112q13 0 133 -86zM445 42q-5 -11 -12 -11q-4 0 -11.5 1.5t-11.5 1.5q-43 0 -124.5 -27.5t-124.5 -27.5q-141 0 -141 237
q0 188 10 321l2 32q0 9 -2.5 24.5t-3.5 21.5q10 9 34 19q37 4 136 30q89 23 132 23q56 0 91 -42q-11 -11 -25 -11q-6 0 -18.5 1.5t-18.5 1.5q-46 0 -135 -16q-100 -19 -124 -39q-8 -86 -19 -258q4 -5 11 -5q30 0 89 14t90 14q25 0 50 -13l8 -30q2 -4 -26 -14q-14 9 -36 9
q-27 0 -96.5 -14t-92.5 -24q-4 -22 -4 -82q0 -151 77 -151q37 0 106.5 25t106.5 25q64 0 83 -36z" />
    <glyph glyph-name="Edieresis" unicode="&#xcb;" horiz-adv-x="465" 
d="M329 759q0 -17 -11.5 -29.5t-28.5 -12.5t-28.5 12.5t-11.5 29.5q0 16 11.5 28.5t28.5 12.5t28.5 -12.5t11.5 -28.5zM179 749q0 -17 -11.5 -29.5t-28.5 -12.5t-28.5 12.5t-11.5 29.5q0 16 11.5 28.5t28.5 12.5t28.5 -12.5t11.5 -28.5zM445 42q-5 -11 -12 -11
q-4 0 -11.5 1.5t-11.5 1.5q-43 0 -124.5 -27.5t-124.5 -27.5q-141 0 -141 237q0 188 10 321l2 32q0 9 -2.5 24.5t-3.5 21.5q10 9 34 19q37 4 136 30q89 23 132 23q56 0 91 -42q-11 -11 -25 -11q-6 0 -18.5 1.5t-18.5 1.5q-46 0 -135 -16q-100 -19 -124 -39q-8 -86 -19 -258
q4 -5 11 -5q30 0 89 14t90 14q25 0 50 -13l8 -30q2 -4 -26 -14q-14 9 -36 9q-27 0 -96.5 -14t-92.5 -24q-4 -22 -4 -82q0 -151 77 -151q37 0 106.5 25t106.5 25q64 0 83 -36z" />
    <glyph glyph-name="Igrave" unicode="&#xcc;" horiz-adv-x="196" 
d="M176 702q0 -4 -4 -12t-8 -8q-20 0 -61 40q-28 27 -52 38q-11 3 -28 9l-3 7q0 9 11.5 24.5t19.5 15.5q23 0 125 -109v-5zM145 641q0 -1 -8 -17q-4 -8 -9 -53q-21 -205 -21 -369q0 -143 29 -187q-18 -13 -29 -13q-34 0 -43 70q-7 58 -8 88l-2 464q-1 14 18.5 30t32.5 16
q9 0 24.5 -10.5t15.5 -18.5z" />
    <glyph glyph-name="Iacute" unicode="&#xcd;" horiz-adv-x="196" 
d="M176 776l-2 -7q-10 -2 -28 -9q-24 -11 -52 -38q-41 -40 -62 -40q-3 0 -7.5 8t-4.5 12l1 5q102 109 124 109q9 0 20 -15.5t11 -24.5zM147 641q0 -1 -9 -17q-4 -8 -8 -53q-22 -205 -22 -369q0 -143 30 -187q-19 -13 -30 -13q-33 0 -42 70q-8 58 -8 88l-3 464q0 14 19 30
t33 16q9 0 24.5 -10.5t15.5 -18.5z" />
    <glyph glyph-name="Icircumflex" unicode="&#xce;" horiz-adv-x="288" 
d="M268 692q0 -4 -4.5 -12t-7.5 -8q-19 0 -62 40q-13 12 -25 16q-17 7 -25 11q-14 -3 -50 -27q-43 -40 -62 -40q-3 0 -7.5 8t-4.5 12l1 5q111 100 123 100q11 0 123 -100zM187 641q0 -1 -9 -17q-4 -8 -8 -53q-22 -205 -22 -369q0 -143 30 -187q-19 -13 -30 -13q-33 0 -42 70
q-8 58 -8 88l-3 464q0 14 19 30t33 16q9 0 24.5 -10.5t15.5 -18.5z" />
    <glyph glyph-name="Idieresis" unicode="&#xcf;" horiz-adv-x="240" 
d="M220 749q0 -17 -11.5 -29.5t-28.5 -12.5t-28.5 12.5t-11.5 29.5q0 16 11.5 28.5t28.5 12.5t28.5 -12.5t11.5 -28.5zM100 739q0 -17 -11.5 -29.5t-28.5 -12.5t-28.5 12.5t-11.5 29.5q0 16 11.5 28.5t28.5 12.5t28.5 -12.5t11.5 -28.5zM163 641q0 -1 -9 -17q-4 -8 -8 -53
q-22 -205 -22 -369q0 -143 30 -187q-19 -13 -30 -13q-33 0 -42 70q-8 58 -8 88l-3 464q0 14 19 30t33 16q9 0 24.5 -10.5t15.5 -18.5z" />
    <glyph glyph-name="Eth" unicode="&#xd0;" horiz-adv-x="517" 
d="M487 419q0 -152 -67 -285q-83 -162 -220 -162q-50 0 -94 35q-16 -22 -22 -22q-12 0 -22 7q-14 40 -14 150v65t1 83q-6 -2 -11.5 -4t-11.5 -2q-8 0 -13 6.5t-8 15.5t-4 18.5t-1 15.5q0 7 7 7l43 4q0 10 0.5 19.5t0.5 20.5q3 166 3 251q0 2 -1 7.5t-1 8.5q0 22 24 22
q12 0 26 -9.5t14 -20.5q0 -12 -6.5 -29.5t-6.5 -28.5v-39q13 8 35 49q23 42 47 62q38 32 95 32q108 0 162 -89q45 -74 45 -188zM354 320q0 -17 -3 -22.5t-14 -5.5q-3 0 -11.5 4.5t-13.5 6.5q-14 6 -50 8t-96 2q-20 0 -37 -1t-31 -3v-171q0 -47 25 -81q29 -38 74 -38
q80 0 143 84q52 69 72 158q16 77 16 163q0 90 -26 151q-35 84 -114 84q-56 0 -111 -69q-45 -57 -63 -121q-8 -27 -12 -55.5t-4 -58.5q49 4 97 5t97 1q21 0 41.5 -10.5t20.5 -30.5z" />
    <glyph glyph-name="Ntilde" unicode="&#xd1;" horiz-adv-x="492" 
d="M383 773q0 -17 -38.5 -41.5t-57.5 -24.5q-28 0 -54 18t-43 18q-20 0 -43 -15.5l-23 -15.5q-16 0 -16 15q0 17 40 40q37 21 56 21q26 0 49.5 -19.5t42.5 -19.5q20 0 44.5 19.5t27.5 19.5q15 0 15 -15zM472 672q1 -9 -9 -13t-19 -8q-14 -8 -25 -90q-9 -65 -9 -104l-3 -303
q-1 -42 -13 -82q-17 -56 -49 -56q-79 0 -147 218q-30 101 -90 302q-11 -2 -12 -20q-2 -27 -16 -140q-11 -86 -11 -140q0 -161 20 -186q11 -16 11 -18q0 -11 -14.5 -21t-25.5 -10q-40 0 -40 131q0 18 1 54t1 54q0 43 10 128.5t10 129.5v129q0 2 -1.5 6.5t-1.5 6.5q0 26 51 26
q40 0 56 -26q4 -7 8 -44q3 -24 6 -49q13 -79 73 -263q70 -212 101 -212q27 0 26 107l-3 300q0 53 19 118q25 85 65 85q15 0 31 -10z" />
    <glyph glyph-name="Ograve" unicode="&#xd2;" horiz-adv-x="552" 
d="M373 722q0 -4 -4.5 -12t-7.5 -8q-21 0 -62 40q-28 27 -52 38q-11 3 -28 9l-3 7q1 9 12 24.5t20 15.5q22 0 124 -109zM532 339q0 -140 -63 -240q-73 -117 -205 -117q-33 0 -77 15q-95 30 -135 113q-32 66 -32 177q0 144 64 259q76 138 209 138q116 0 183 -119
q56 -99 56 -226zM476 348q0 222 -148 272q-16 6 -28 6q-64 0 -126 -59q-105 -100 -105 -309q0 -19 8 -60q17 -86 56 -128q46 -48 129 -48q114 0 170 113q44 87 44 213z" />
    <glyph glyph-name="Oacute" unicode="&#xd3;" horiz-adv-x="552" 
d="M362 786l-3 -7q-10 -2 -28 -9q-24 -11 -52 -38q-41 -40 -62 -40q-3 0 -7.5 8t-4.5 12l1 5q102 109 124 109q9 0 20 -15.5t12 -24.5zM532 339q0 -140 -63 -240q-73 -117 -205 -117q-33 0 -77 15q-95 30 -135 113q-32 66 -32 177q0 144 64 259q76 138 209 138
q116 0 183 -119q56 -99 56 -226zM476 348q0 222 -148 272q-16 6 -28 6q-64 0 -126 -59q-105 -100 -105 -309q0 -19 8 -60q17 -86 56 -128q46 -48 129 -48q114 0 170 113q44 87 44 213z" />
    <glyph glyph-name="Ocircumflex" unicode="&#xd4;" horiz-adv-x="552" 
d="M413 712q0 -4 -4.5 -12t-7.5 -8q-19 0 -62 40q-13 12 -25 16q-17 7 -25 11q-14 -3 -50 -27q-43 -40 -62 -40q-3 0 -7.5 8t-4.5 12l1 5q111 100 123 100t123 -100zM532 339q0 -140 -63 -240q-73 -117 -205 -117q-33 0 -77 15q-95 30 -135 113q-32 66 -32 177q0 144 64 259
q76 138 209 138q116 0 183 -119q56 -99 56 -226zM476 348q0 222 -148 272q-16 6 -28 6q-64 0 -126 -59q-105 -100 -105 -309q0 -19 8 -60q17 -86 56 -128q46 -48 129 -48q114 0 170 113q44 87 44 213z" />
    <glyph glyph-name="Otilde" unicode="&#xd5;" horiz-adv-x="552" 
d="M433 783q0 -17 -38.5 -41.5t-57.5 -24.5q-28 0 -54 18t-43 18q-20 0 -43 -15.5l-23 -15.5q-16 0 -16 15q0 17 40 40q37 21 56 21q26 0 49.5 -19.5t42.5 -19.5q20 0 44.5 19.5t27.5 19.5q15 0 15 -15zM532 339q0 -140 -63 -240q-73 -117 -205 -117q-33 0 -77 15
q-95 30 -135 113q-32 66 -32 177q0 144 64 259q76 138 209 138q116 0 183 -119q56 -99 56 -226zM476 348q0 222 -148 272q-16 6 -28 6q-64 0 -126 -59q-105 -100 -105 -309q0 -19 8 -60q17 -86 56 -128q46 -48 129 -48q114 0 170 113q44 87 44 213z" />
    <glyph glyph-name="Odieresis" unicode="&#xd6;" horiz-adv-x="552" 
d="M409 749q0 -17 -11.5 -29.5t-28.5 -12.5t-28.5 12.5t-11.5 29.5q0 16 11.5 28.5t28.5 12.5t28.5 -12.5t11.5 -28.5zM259 749q0 -17 -11.5 -29.5t-28.5 -12.5t-28.5 12.5t-11.5 29.5q0 16 11.5 28.5t28.5 12.5t28.5 -12.5t11.5 -28.5zM532 339q0 -140 -63 -240
q-73 -117 -205 -117q-33 0 -77 15q-95 30 -135 113q-32 66 -32 177q0 144 64 259q76 138 209 138q116 0 183 -119q56 -99 56 -226zM476 348q0 222 -148 272q-16 6 -28 6q-64 0 -126 -59q-105 -100 -105 -309q0 -19 8 -60q17 -86 56 -128q46 -48 129 -48q114 0 170 113
q44 87 44 213z" />
    <glyph glyph-name="multiply" unicode="&#xd7;" horiz-adv-x="520" 
d="M413 165q-4 0 -10 3t-21.5 16.5t-45 41.5t-80.5 79q-55 -55 -83.5 -86t-41.5 -46.5t-16 -19t-6 -3.5q-6 0 -10.5 5t-8 11.5t-5 12.5t-1.5 9q0 4 3 10t16 21.5t40.5 44t76.5 77.5l-141 141q5 15 15 24.5t25 9.5q8 0 20 -11t28.5 -30t38.5 -44.5t50 -53.5l146 146
q16 -5 27.5 -18t11.5 -31q0 -7 -11.5 -17t-27 -20.5t-30.5 -21t-22 -17.5l-57 -57q42 -42 71.5 -69.5t49 -45t28.5 -25.5t9 -11q0 -14 -13.5 -19.5t-24.5 -5.5z" />
    <glyph glyph-name="Oslash" unicode="&#xd8;" horiz-adv-x="552" 
d="M532 339q0 -140 -63 -240q-73 -117 -205 -117q-53 0 -112 27q-36 -69 -67 -69q-19 0 -19 16q0 3 20 37l24 42q-90 72 -90 252q0 144 64 259q76 138 209 138q49 0 90 -22q2 22 14 64q6 14 23 24t33 10q13 0 26 -14q-12 -20 -33 -62l-22 -52q53 -50 82 -135q26 -76 26 -158
zM476 348q0 161 -74 231l-112 -270q-65 -155 -121 -266q40 -21 93 -21q114 0 170 113q44 87 44 213zM364 606q-38 20 -64 20q-64 0 -126 -59q-105 -101 -105 -309q0 -46 16 -97q17 -56 45 -87q140 283 234 532z" />
    <glyph glyph-name="Ugrave" unicode="&#xd9;" horiz-adv-x="425" 
d="M273 702q0 -4 -4.5 -12t-7.5 -8q-21 0 -62 40q-28 27 -52 38q-11 3 -28 9l-3 7q1 9 12 24.5t20 15.5q22 0 124 -109zM405 369q0 -81 -19 -178q-23 -121 -61 -162q-49 -52 -114 -52q-60 0 -106 39q-53 45 -72 126q-13 54 -13 149q0 49 6 146.5t6 145.5q0 9 -6 25.5
t-6 24.5q0 10 16.5 21t27.5 11q23 0 40.5 -11.5t15.5 -33.5q-21 -1 -26 -50q-19 -185 -19 -228v-130q0 -69 26 -121q33 -66 95 -66q167 0 167 484q0 93 -17 127q-8 17 -8 19q0 10 7.5 22.5t17.5 12.5q11 0 26.5 -9.5t15.5 -19.5v-292z" />
    <glyph glyph-name="Uacute" unicode="&#xda;" horiz-adv-x="425" 
d="M302 776l-3 -7q-10 -2 -28 -9q-24 -11 -52 -38q-41 -40 -62 -40q-3 0 -7.5 8t-4.5 12l1 5q102 109 124 109q9 0 20 -15.5t12 -24.5zM405 369q0 -81 -19 -178q-23 -121 -61 -162q-49 -52 -114 -52q-60 0 -106 39q-53 45 -72 126q-13 54 -13 149q0 49 6 146.5t6 145.5
q0 9 -6 25.5t-6 24.5q0 10 16.5 21t27.5 11q23 0 40.5 -11.5t15.5 -33.5q-21 -1 -26 -50q-19 -185 -19 -228v-130q0 -69 26 -121q33 -66 95 -66q167 0 167 484q0 93 -17 127q-8 17 -8 19q0 10 7.5 22.5t17.5 12.5q11 0 26.5 -9.5t15.5 -19.5v-292z" />
    <glyph glyph-name="Ucircumflex" unicode="&#xdb;" horiz-adv-x="425" 
d="M333 722q0 -4 -4.5 -12t-7.5 -8q-19 0 -62 40q-13 12 -25 16q-17 7 -25 11q-14 -3 -50 -27q-43 -40 -62 -40q-3 0 -7.5 8t-4.5 12l1 5q111 100 123 100t123 -100zM405 369q0 -81 -19 -178q-23 -121 -61 -162q-49 -52 -114 -52q-60 0 -106 39q-53 45 -72 126
q-13 54 -13 149q0 49 6 146.5t6 145.5q0 9 -6 25.5t-6 24.5q0 10 16.5 21t27.5 11q23 0 40.5 -11.5t15.5 -33.5q-21 -1 -26 -50q-19 -185 -19 -228v-130q0 -69 26 -121q33 -66 95 -66q167 0 167 484q0 93 -17 127q-8 17 -8 19q0 10 7.5 22.5t17.5 12.5q11 0 26.5 -9.5
t15.5 -19.5v-292z" />
    <glyph glyph-name="Udieresis" unicode="&#xdc;" horiz-adv-x="425" 
d="M329 749q0 -17 -11.5 -29.5t-28.5 -12.5t-28.5 12.5t-11.5 29.5q0 16 11.5 28.5t28.5 12.5t28.5 -12.5t11.5 -28.5zM179 749q0 -17 -11.5 -29.5t-28.5 -12.5t-28.5 12.5t-11.5 29.5q0 16 11.5 28.5t28.5 12.5t28.5 -12.5t11.5 -28.5zM405 369q0 -81 -19 -178
q-23 -121 -61 -162q-49 -52 -114 -52q-60 0 -106 39q-53 45 -72 126q-13 54 -13 149q0 49 6 146.5t6 145.5q0 9 -6 25.5t-6 24.5q0 10 16.5 21t27.5 11q23 0 40.5 -11.5t15.5 -33.5q-21 -1 -26 -50q-19 -185 -19 -228v-130q0 -69 26 -121q33 -66 95 -66q167 0 167 484
q0 93 -17 127q-8 17 -8 19q0 10 7.5 22.5t17.5 12.5q11 0 26.5 -9.5t15.5 -19.5v-292z" />
    <glyph glyph-name="Yacute" unicode="&#xdd;" horiz-adv-x="486" 
d="M466 641q-10 -18 -37 -49.5t-36 -50.5q-73 -143 -127 -281q-79 -202 -71 -287q-18 -13 -34 -13q-32 0 -51 56q6 5 19.5 18.5t42.5 95.5q18 55 37 110q-64 50 -111 157q-78 179 -78 243q0 41 32 41q21 0 34 -22q10 -20 10 -42q0 -7 -4.5 -18t-4.5 -17q0 -46 50 -157
q55 -120 92 -119q17 18 95 200q69 163 103 163q36 0 39 -28zM321 815l-2 -7q-10 -2 -28 -9q-24 -11 -52 -38q-41 -40 -62 -40q-3 0 -7.5 8t-4.5 12l1 5q102 109 124 109q9 0 20 -15.5t11 -24.5z" />
    <glyph glyph-name="Thorn" unicode="&#xde;" horiz-adv-x="501" 
d="M132 641q0 -5 -1.5 -7t-4 -7.5t-5.5 -18t-6 -37.5q-3 -28 -6 -54.5t-5 -52.5q42 54 91.5 81.5t90.5 27.5q52 0 87 -16.5t57 -44.5t31.5 -65.5t9.5 -79.5q0 -50 -11 -103t-35 -96.5t-63 -71.5t-96 -28q-63 0 -105 23t-68 54q5 -104 30 -140q-19 -13 -30 -13q-43 0 -52 70
q-5 44 -6.5 67t-1.5 40q0 110 2 223.5t5 231.5q0 7 5.5 15t14 15t17.5 11.5t15 4.5q4 0 11 -3t13.5 -7.5t11 -9.5t4.5 -9zM251 117q50 0 83 22.5t52.5 57t27.5 76.5t8 82q0 31 -6 62.5t-21 56.5t-40 41t-63 16q-27 0 -55.5 -13t-54.5 -34.5t-47.5 -48t-35.5 -53.5
q-6 -87 -6 -167q12 -18 29 -35.5t37.5 -31.5t43.5 -22.5t48 -8.5z" />
    <glyph glyph-name="germandbls" unicode="&#xdf;" horiz-adv-x="418" 
d="M400 129q0 -86 -40.5 -148t-119.5 -87q-37 -11 -64 -11q-28 0 -28 20q0 11 21 16q64 14 96.5 37.5t61.5 79.5q8 16 16 51t8 53q0 61 -30 116.5t-81 83.5q-27 15 -37 15h-6q-3 -1 -5 -1q-22 0 -22 21q0 8 4 16q19 8 72 71q46 55 46 108q0 79 -66 79q-110 0 -144 -178
q-15 -80 -15 -266q0 -83 5 -129q7 -64 7 -56q0 -7 -9.5 -15.5t-17.5 -8.5q-12 0 -22 16t-10 208q0 201 23 292q44 179 183 179q52 0 83.5 -31.5t31.5 -85.5q0 -49 -29 -101q-26 -48 -68 -81q0 -1 3 -4q73 -29 115 -106q38 -70 38 -153z" />
    <glyph glyph-name="agrave" unicode="&#xe0;" horiz-adv-x="351" 
d="M239 462q0 -3 -3.5 -10t-6.5 -7q-18 0 -53 34q-23 23 -44 33q-9 1 -24 7l-2 6q1 7 10.5 20.5t16.5 13.5q19 0 106 -93v-4zM331 -29q0 -14 -22 -14q-24 0 -29 20q-1 3 -1 39q0 10 -3 16q-56 -41 -121 -41q-45 0 -87 25q-48 28 -48 70q0 41 57 80q52 36 96 36h99q6 6 6 21
q0 67 -11 101q-18 57 -71 57q-38 0 -70 -48q-29 -44 -29 -84v-6v-5q0 -8 -8 -8q-10 0 -22 12t-12 21q0 28 17 70.5t37 64.5q25 27 62 27q57 0 105 -36q51 -39 52 -94zM278 130q0 40 -62 40q-49 0 -86 -17q-47 -22 -47 -66q0 -27 25 -42q21 -13 50 -13q43 0 81.5 28t38.5 70z
" />
    <glyph glyph-name="aacute" unicode="&#xe1;" horiz-adv-x="351" 
d="M260 525l-2 -6q-9 -2 -24 -7q-21 -10 -44 -33q-35 -34 -53 -34q-3 0 -6.5 7t-3.5 10v4q87 93 106 93q7 0 16.5 -13.5t10.5 -20.5zM331 -29q0 -14 -22 -14q-24 0 -29 20q-1 3 -1 39q0 10 -3 16q-56 -41 -121 -41q-45 0 -87 25q-48 28 -48 70q0 41 57 80q52 36 96 36h99
q6 6 6 21q0 67 -11 101q-18 57 -71 57q-38 0 -70 -48q-29 -44 -29 -84v-6v-5q0 -8 -8 -8q-10 0 -22 12t-12 21q0 28 17 70.5t37 64.5q25 27 62 27q57 0 105 -36q51 -39 52 -94zM278 130q0 40 -62 40q-49 0 -86 -17q-47 -22 -47 -66q0 -27 25 -42q21 -13 50 -13q43 0 81.5 28
t38.5 70z" />
    <glyph glyph-name="acircumflex" unicode="&#xe2;" horiz-adv-x="351" 
d="M294 457q0 -3 -3.5 -10t-6.5 -7q-16 0 -52 34q-12 10 -22 14q-15 5 -21 9q-12 -2 -43 -23q-36 -34 -52 -34q-3 0 -6.5 7t-3.5 10v4q95 85 105 85t105 -85v-4zM331 -29q0 -14 -22 -14q-24 0 -29 20q-1 3 -1 39q0 10 -3 16q-56 -41 -121 -41q-45 0 -87 25q-48 28 -48 70
q0 41 57 80q52 36 96 36h99q6 6 6 21q0 67 -11 101q-18 57 -71 57q-38 0 -70 -48q-29 -44 -29 -84v-6v-5q0 -8 -8 -8q-10 0 -22 12t-12 21q0 28 17 70.5t37 64.5q25 27 62 27q57 0 105 -36q51 -39 52 -94zM278 130q0 40 -62 40q-49 0 -86 -17q-47 -22 -47 -66q0 -27 25 -42
q21 -13 50 -13q43 0 81.5 28t38.5 70z" />
    <glyph glyph-name="atilde" unicode="&#xe3;" horiz-adv-x="351" 
d="M311 520q0 -14 -33 -35t-49 -21q-24 0 -46 15.5t-36 15.5q-18 0 -37.5 -13.5l-19.5 -13.5q-13 0 -13 13q0 15 32.5 33.5t48.5 18.5q22 0 42 -16.5t36 -16.5q17 0 38 16.5t23 16.5q14 0 14 -13zM331 -29q0 -14 -22 -14q-24 0 -29 20q-1 3 -1 39q0 10 -3 16
q-56 -41 -121 -41q-45 0 -87 25q-48 28 -48 70q0 41 57 80q52 36 96 36h99q6 6 6 21q0 67 -11 101q-18 57 -71 57q-38 0 -70 -48q-29 -44 -29 -84v-6v-5q0 -8 -8 -8q-10 0 -22 12t-12 21q0 28 17 70.5t37 64.5q25 27 62 27q57 0 105 -36q51 -39 52 -94zM278 130q0 40 -62 40
q-49 0 -86 -17q-47 -22 -47 -66q0 -27 25 -42q21 -13 50 -13q43 0 81.5 28t38.5 70z" />
    <glyph glyph-name="adieresis" unicode="&#xe4;" horiz-adv-x="351" 
d="M275 483q0 -12 -9 -21.5t-22 -9.5q-12 0 -21 9.5t-9 21.5q0 13 9 22.5t21 9.5q13 0 22 -9.5t9 -22.5zM160 483q0 -12 -9 -21.5t-21 -9.5q-13 0 -22 9.5t-9 21.5q0 13 9 22.5t22 9.5q12 0 21 -9.5t9 -22.5zM331 -29q0 -14 -22 -14q-24 0 -29 20q-1 3 -1 39q0 10 -3 16
q-56 -41 -121 -41q-45 0 -87 25q-48 28 -48 70q0 41 57 80q52 36 96 36h99q6 6 6 21q0 67 -11 101q-18 57 -71 57q-38 0 -70 -48q-29 -44 -29 -84v-6v-5q0 -8 -8 -8q-10 0 -22 12t-12 21q0 28 17 70.5t37 64.5q25 27 62 27q57 0 105 -36q51 -39 52 -94zM278 130q0 40 -62 40
q-49 0 -86 -17q-47 -22 -47 -66q0 -27 25 -42q21 -13 50 -13q43 0 81.5 28t38.5 70z" />
    <glyph glyph-name="aring" unicode="&#xe5;" horiz-adv-x="351" 
d="M248 513q0 -23 -17 -40t-40 -17t-40 17t-17 40t17 40t40 17t40 -17t17 -40zM331 -29q0 -14 -22 -14q-24 0 -29 20q-1 3 -1 39q0 10 -3 16q-56 -41 -121 -41q-45 0 -87 25q-48 28 -48 70q0 41 57 80q52 36 96 36h99q6 6 6 21q0 67 -11 101q-18 57 -71 57q-38 0 -70 -48
q-29 -44 -29 -84v-6v-5q0 -8 -8 -8q-10 0 -22 12t-12 21q0 28 17 70.5t37 64.5q25 27 62 27q57 0 105 -36q51 -39 52 -94zM228 513q0 15 -11 26t-26 11t-26 -11t-11 -26t11 -26t26 -11t26 11t11 26zM278 130q0 40 -62 40q-49 0 -86 -17q-47 -22 -47 -66q0 -27 25 -42
q21 -13 50 -13q43 0 81.5 28t38.5 70z" />
    <glyph glyph-name="ae" unicode="&#xe6;" horiz-adv-x="594" 
d="M574 99q0 -44 -59 -79q-53 -32 -100 -32q-31 0 -63 14q-36 16 -50 40q-69 -51 -147 -51q-45 0 -87 25q-48 28 -48 70q0 41 57 80q52 36 96 36h99q6 6 6 21q0 67 -11 101q-18 57 -71 57q-38 0 -70 -48q-29 -44 -29 -84v-6v-5q0 -8 -8 -8q-10 0 -22 12t-12 21q0 52 32 103
q36 59 84 59q39 0 84 -23q48 -26 62 -60q33 89 83 89q48 0 105 -48.5t57 -96.5q0 -62 -50 -108t-113 -46q-9 0 -30.5 10t-31.5 10q-13 0 -13 -8q0 -115 95 -115q36 0 66 25q17 15 41 47q18 26 25 26q23 0 23 -28zM505 283q0 35 -18 64q-22 32 -55 32q-37 0 -68 -52
q-28 -47 -28 -88q0 -27 23.5 -46t52.5 -19q41 0 68 35q25 32 25 74zM278 130q0 40 -62 40q-49 0 -86 -17q-47 -22 -47 -66q0 -27 25 -42q21 -13 50 -13q43 0 81.5 28t38.5 70z" />
    <glyph glyph-name="ccedilla" unicode="&#xe7;" horiz-adv-x="354" 
d="M334 104q0 -24 -41 -64.5t-68 -48t-49 -9.5q-6 -11 -21 -31q43 -7 50 -9q32 -10 32 -32q0 -30 -35 -52q-16 -10 -61 -27l-10 28q27 10 41 18q27 15 29 29q-5 8 -39 13.5t-39 10.5q-12 3 -12 10q0 11 14 23q11 10 22 19q-63 8 -97 60q-30 46 -30 114q0 77 33 172
q41 118 102 118q29 0 77 -28.5t54 -54.5q7 -32 7 -61q0 -110 -33 -110q-8 0 -19 6t-11 14q0 -3 9 19q4 12 4 60q0 111 -50 111q-55 0 -90 -101q-26 -78 -26 -148q0 -54 17 -90q23 -47 71 -47q29 0 68 30q35 27 52 57q3 10 12 28q5 7 14 7q6 0 14.5 -13.5t8.5 -20.5z" />
    <glyph glyph-name="egrave" unicode="&#xe8;" horiz-adv-x="343" 
d="M236 462q0 -3 -3.5 -10t-6.5 -7q-18 0 -53 34q-23 23 -44 33q-9 1 -24 7l-2 6q1 7 10.5 20.5t16.5 13.5q19 0 106 -93v-4zM318 99q0 -44 -59 -79q-53 -32 -100 -32q-134 0 -134 170q0 75 27 161q36 112 92 112q48 0 105 -48.5t57 -96.5q0 -62 -50 -108t-113 -46
q-6 0 -25.5 10t-26.5 10q-13 0 -13 -8q0 -115 76 -115q39 0 72 26q20 15 44 47q19 25 25 25q23 0 23 -28zM249 283q0 35 -20 65.5t-53 30.5q-40 0 -65 -50q-21 -42 -21 -87q0 -29 18.5 -48.5t47.5 -19.5q41 0 68 35q25 32 25 74z" />
    <glyph glyph-name="eacute" unicode="&#xe9;" horiz-adv-x="343" 
d="M245 525l-2 -6q-9 -2 -24 -7q-21 -10 -44 -33q-35 -34 -53 -34q-3 0 -6.5 7t-3.5 10v4q87 93 106 93q7 0 16.5 -13.5t10.5 -20.5zM318 99q0 -44 -59 -79q-53 -32 -100 -32q-134 0 -134 170q0 75 27 161q36 112 92 112q48 0 105 -48.5t57 -96.5q0 -62 -50 -108t-113 -46
q-6 0 -25.5 10t-26.5 10q-13 0 -13 -8q0 -115 76 -115q39 0 72 26q20 15 44 47q19 25 25 25q23 0 23 -28zM249 283q0 35 -20 65.5t-53 30.5q-40 0 -65 -50q-21 -42 -21 -87q0 -29 18.5 -48.5t47.5 -19.5q41 0 68 35q25 32 25 74z" />
    <glyph glyph-name="ecircumflex" unicode="&#xea;" horiz-adv-x="343" 
d="M259 457q0 -3 -3.5 -10t-6.5 -7q-16 0 -52 34q-12 11 -22 14q-15 5 -21 9q-12 -2 -43 -23q-36 -34 -52 -34q-3 0 -6.5 7t-3.5 10v4q95 85 105 85t105 -85v-4zM318 99q0 -44 -59 -79q-53 -32 -100 -32q-134 0 -134 170q0 75 27 161q36 112 92 112q48 0 105 -48.5t57 -96.5
q0 -62 -50 -108t-113 -46q-6 0 -25.5 10t-26.5 10q-13 0 -13 -8q0 -115 76 -115q39 0 72 26q20 15 44 47q19 25 25 25q23 0 23 -28zM249 283q0 35 -20 65.5t-53 30.5q-40 0 -65 -50q-21 -42 -21 -87q0 -29 18.5 -48.5t47.5 -19.5q41 0 68 35q25 32 25 74z" />
    <glyph glyph-name="edieresis" unicode="&#xeb;" horiz-adv-x="343" 
d="M250 483q0 -12 -9 -21.5t-22 -9.5q-12 0 -21 9.5t-9 21.5q0 13 9 22.5t21 9.5q13 0 22 -9.5t9 -22.5zM135 483q0 -12 -9 -21.5t-21 -9.5q-13 0 -22 9.5t-9 21.5q0 13 9 22.5t22 9.5q12 0 21 -9.5t9 -22.5zM318 99q0 -44 -59 -79q-53 -32 -100 -32q-134 0 -134 170
q0 75 27 161q36 112 92 112q48 0 105 -48.5t57 -96.5q0 -62 -50 -108t-113 -46q-6 0 -25.5 10t-26.5 10q-13 0 -13 -8q0 -115 76 -115q39 0 72 26q20 15 44 47q19 25 25 25q23 0 23 -28zM249 283q0 35 -20 65.5t-53 30.5q-40 0 -65 -50q-21 -42 -21 -87q0 -29 18.5 -48.5
t47.5 -19.5q41 0 68 35q25 32 25 74z" />
    <glyph glyph-name="igrave" unicode="&#xec;" horiz-adv-x="148" 
d="M143 452q0 -3 -3.5 -10t-6.5 -7q-18 0 -53 34q-24 23 -44 33q-9 1 -24 7l-2 6q0 7 9.5 20.5t16.5 13.5q20 0 106 -93q1 -2 1 -4zM110 400q0 -18 -8 -54t-8 -54v-221q0 -22 9 -60q-4 -8 -11 -8q-49 0 -49 47v367q13 7 26 7q11 0 26 -7t15 -17z" />
    <glyph glyph-name="iacute" unicode="&#xed;" horiz-adv-x="128" 
d="M153 525l-2 -6q-9 -2 -24 -7q-20 -10 -44 -33q-35 -34 -53 -34q-3 0 -6.5 7t-3.5 10l1 4q86 93 106 93q7 0 16.5 -13.5t9.5 -20.5zM90 391q0 -18 -8 -54t-8 -54v-221q0 -22 10 -60q-5 -8 -11 -8q-50 0 -50 47v367q13 7 26 7q11 0 26 -7t15 -17z" />
    <glyph glyph-name="icircumflex" unicode="&#xee;" horiz-adv-x="147" 
d="M162 460q0 -5 -5 -12t-10 -7q-6 0 -18.5 12t-22.5 15q-15 5 -22 9q-11 -2 -42 -23q-23 -22 -31 -22q-3 0 -7 7t-4 10l1 4q62 73 83 73q16 0 77 -62q0 -1 1 -4zM112 391q0 -18 -8 -54t-8 -54v-221q0 -22 10 -60q-5 -8 -11 -8q-50 0 -50 47v367q13 7 26 7q11 0 26 -7
t15 -17z" />
    <glyph glyph-name="idieresis" unicode="&#xef;" horiz-adv-x="134" 
d="M145 483q0 -12 -9 -21.5t-22 -9.5q-12 0 -21 9.5t-9 21.5q0 13 9 22.5t21 9.5q13 0 22 -9.5t9 -22.5zM50 483q0 -12 -9 -21.5t-21 -9.5q-13 0 -22 9.5t-9 21.5q0 13 9 22.5t22 9.5q12 0 21 -9.5t9 -22.5zM97 391q0 -18 -8 -54t-8 -54v-221q0 -22 9 -60q-4 -8 -11 -8
q-49 0 -49 47v367q13 7 25 7t25 -7q17 -7 17 -17z" />
    <glyph glyph-name="eth" unicode="&#xf0;" 
d="M322 631q10 -15 10 -19q0 -13 -31 -17q-18 -6 -69 -45q28 -45 49 -95t34.5 -100t20 -97.5t6.5 -87.5q0 -41 -12 -77.5t-33.5 -63.5t-51.5 -43t-66 -16q-75 0 -114.5 46.5t-39.5 130.5q0 42 12.5 84.5t34 76t50.5 55t63 21.5q20 0 37.5 -5.5t31.5 -15.5q-14 39 -31 77.5
t-38 73.5q-29 -24 -44 -41q-6 -6 -10.5 -16t-8.5 -19t-9.5 -15.5t-12.5 -6.5q-6 0 -13 4.5t-13 10t-10.5 10.5t-4.5 7q0 4 2 6q25 25 50 48t51 46q-11 16 -24.5 32t-28.5 29t-31 21t-31 8q-4 9 -4 19q0 23 12.5 29t19.5 6q11 0 26 -8.5t30 -19.5t28 -23t19 -19q8 -8 15 -17
t14 -19q22 18 37 29t25 17t16.5 8t12.5 2q15 0 24 -11zM294 171q0 35 -6.5 65t-18.5 52t-29.5 34.5t-39.5 12.5q-26 0 -48 -15t-38 -40.5t-25 -59t-9 -70.5q0 -66 25.5 -106t73.5 -40q26 0 47.5 13t36.5 36t23 53t8 65z" />
    <glyph glyph-name="ntilde" unicode="&#xf1;" horiz-adv-x="357" 
d="M301 520q0 -14 -33 -35t-49 -21q-24 0 -46 15.5t-36 15.5q-18 0 -37.5 -13.5l-19.5 -13.5q-13 0 -13 13q0 15 32.5 33.5t48.5 18.5q22 0 42 -16.5t36 -16.5q17 0 38 16.5t23 16.5q14 0 14 -13zM337 -5q-6 -11 -17 -11t-36 14v8q0 9 1 27t1 26q0 332 -83 332
q-26 0 -56 -38q-76 -94 -76 -237q0 -19 6.5 -56t6.5 -55q0 -15 -21 -15q-40 0 -40 63v227q0 9 2 26t2 26q0 13 -3.5 38t-3.5 37q0 8 12.5 18.5t19.5 10.5q13 0 24 -14q-3 -65 -3 -76q0 -15 1 -29q9 3 24 33q19 38 32 52q24 28 55 28q12 0 36 -9q54 -20 77 -66
q39 -79 39 -209v-151z" />
    <glyph glyph-name="ograve" unicode="&#xf2;" horiz-adv-x="357" 
d="M251 462q0 -3 -3.5 -10t-6.5 -7q-18 0 -53 34q-23 23 -44 33q-9 1 -24 7l-2 6q1 7 10.5 20.5t16.5 13.5q19 0 106 -93v-4zM337 197q0 -86 -38 -150q-45 -77 -125 -77q-81 0 -121 63q-33 52 -33 138q0 85 38 167q48 101 122 101q19 0 54 -22q103 -64 103 -220zM289 198
q0 64 -17 115q-25 71 -77 71q-60 0 -94 -79q-26 -61 -26 -131q0 -63 18 -106q26 -59 81 -59q60 0 91 68q24 53 24 121z" />
    <glyph glyph-name="oacute" unicode="&#xf3;" horiz-adv-x="357" 
d="M240 535l-2 -6q-9 -2 -24 -7q-21 -10 -44 -33q-35 -34 -53 -34q-3 0 -6.5 7t-3.5 10v4q87 93 106 93q7 0 16.5 -13.5t10.5 -20.5zM337 197q0 -86 -38 -150q-45 -77 -125 -77q-81 0 -121 63q-33 52 -33 138q0 85 38 167q48 101 122 101q19 0 54 -22q103 -64 103 -220z
M289 198q0 64 -17 115q-25 71 -77 71q-60 0 -94 -79q-26 -61 -26 -131q0 -63 18 -106q26 -59 81 -59q60 0 91 68q24 53 24 121z" />
    <glyph glyph-name="ocircumflex" unicode="&#xf4;" horiz-adv-x="357" 
d="M284 457q0 -3 -3.5 -10t-6.5 -7q-16 0 -52 34q-12 11 -22 14q-15 5 -21 9q-12 -2 -43 -23q-36 -34 -52 -34q-3 0 -6.5 7t-3.5 10v4q95 85 105 85t105 -85v-4zM337 197q0 -86 -38 -150q-45 -77 -125 -77q-81 0 -121 63q-33 52 -33 138q0 85 38 167q48 101 122 101
q19 0 54 -22q103 -64 103 -220zM289 198q0 64 -17 115q-25 71 -77 71q-60 0 -94 -79q-26 -61 -26 -131q0 -63 18 -106q26 -59 81 -59q60 0 91 68q24 53 24 121z" />
    <glyph glyph-name="otilde" unicode="&#xf5;" horiz-adv-x="357" 
d="M301 530q0 -14 -33 -35t-49 -21q-24 0 -46 15.5t-36 15.5q-18 0 -37.5 -13.5l-19.5 -13.5q-13 0 -13 13q0 15 32.5 33.5t48.5 18.5q22 0 42 -16.5t36 -16.5q17 0 38 16.5t23 16.5q14 0 14 -13zM337 197q0 -86 -38 -150q-45 -77 -125 -77q-81 0 -121 63q-33 52 -33 138
q0 85 38 167q48 101 122 101q19 0 54 -22q103 -64 103 -220zM289 198q0 64 -17 115q-25 71 -77 71q-60 0 -94 -79q-26 -61 -26 -131q0 -63 18 -106q26 -59 81 -59q60 0 91 68q24 53 24 121z" />
    <glyph glyph-name="odieresis" unicode="&#xf6;" horiz-adv-x="357" 
d="M265 483q0 -12 -9 -21.5t-22 -9.5q-12 0 -21 9.5t-9 21.5q0 13 9 22.5t21 9.5q13 0 22 -9.5t9 -22.5zM150 483q0 -12 -9 -21.5t-21 -9.5q-13 0 -22 9.5t-9 21.5q0 13 9 22.5t22 9.5q12 0 21 -9.5t9 -22.5zM337 197q0 -86 -38 -150q-45 -77 -125 -77q-81 0 -121 63
q-33 52 -33 138q0 85 38 167q48 101 122 101q19 0 54 -22q103 -64 103 -220zM289 198q0 64 -17 115q-25 71 -77 71q-60 0 -94 -79q-26 -61 -26 -131q0 -63 18 -106q26 -59 81 -59q60 0 91 68q24 53 24 121z" />
    <glyph glyph-name="divide" unicode="&#xf7;" horiz-adv-x="520" 
d="M500 360q0 -49 -46 -49h-427q-7 13 -7 25q0 11 8 22.5t18 11.5q7 0 22 -1.5t31 -3t30.5 -2.5t22.5 -1h280q23 0 61 9q7 -4 7 -11zM309 529q0 -19 -15.5 -31t-35.5 -12q-16 0 -33.5 12.5t-17.5 28.5q0 20 18 31t41 11q15 0 29 -12.5t14 -27.5zM300 143q0 -13 -11 -26.5
t-24 -13.5q-8 0 -18 4.5t-19 12t-15 16.5t-6 17q0 12 12 26t23 14q21 0 39.5 -14.5t18.5 -35.5z" />
    <glyph glyph-name="oslash" unicode="&#xf8;" horiz-adv-x="357" 
d="M337 197q0 -86 -38 -150q-45 -77 -125 -77q-43 0 -75 18q-31 -60 -58 -60q-15 0 -15 14q0 -4 40 72q-46 53 -46 157q0 85 38 167q48 101 122 101q25 0 69 -32q12 36 20 48q16 24 44 24q11 0 22 -11q-15 -19 -39 -60l-14 -31q55 -66 55 -180zM236 369q-18 15 -41 15
q-60 0 -94 -79q-26 -61 -26 -131q0 -63 18 -106q50 99 143 301zM289 198q0 81 -26 136q-46 -102 -143 -305q22 -20 54 -20q60 0 91 68q24 53 24 121z" />
    <glyph glyph-name="ugrave" unicode="&#xf9;" horiz-adv-x="321" 
d="M211 462q0 -3 -3.5 -10t-6.5 -7q-18 0 -53 34q-23 23 -44 33q-9 1 -24 7l-2 6q1 7 10.5 20.5t16.5 13.5q19 0 106 -93v-4zM301 368q0 -34 -7.5 -102.5t-7.5 -102.5q0 -2 3 -182q-6 -4 -17 -4q-22 0 -28 19t-10 37q-56 -40 -87 -40q-24 0 -57 14.5t-44 32.5
q-26 43 -26 137q0 33 3 117q2 74 1 117q17 13 30 13q28 0 28 -32q0 -17 -4.5 -51.5t-4.5 -51.5v-154q0 -2 5 -25q9 -39 18 -55q17 -28 48 -28q51 0 78 68q20 51 20 112v131q0 28 -9 57q11 10 25 10q16 0 29.5 -10.5t13.5 -26.5z" />
    <glyph glyph-name="uacute" unicode="&#xfa;" horiz-adv-x="321" 
d="M240 525l-2 -6q-9 -2 -24 -7q-21 -10 -44 -33q-35 -34 -53 -34q-3 0 -6.5 7t-3.5 10v4q87 93 106 93q7 0 16.5 -13.5t10.5 -20.5zM301 368q0 -34 -7.5 -102.5t-7.5 -102.5q0 -2 3 -182q-6 -4 -17 -4q-22 0 -28 19t-10 37q-56 -40 -87 -40q-24 0 -57 14.5t-44 32.5
q-26 43 -26 137q0 33 3 117q2 74 1 117q17 13 30 13q28 0 28 -32q0 -17 -4.5 -51.5t-4.5 -51.5v-154q0 -2 5 -25q9 -39 18 -55q17 -28 48 -28q51 0 78 68q20 51 20 112v131q0 28 -9 57q11 10 25 10q16 0 29.5 -10.5t13.5 -26.5z" />
    <glyph glyph-name="ucircumflex" unicode="&#xfb;" horiz-adv-x="321" 
d="M264 457q0 -3 -3.5 -10t-6.5 -7q-16 0 -52 34q-12 11 -22 14q-15 5 -21 9q-12 -2 -43 -23q-36 -34 -52 -34q-3 0 -6.5 7t-3.5 10v4q95 85 105 85t105 -85v-4zM301 368q0 -34 -7.5 -102.5t-7.5 -102.5q0 -2 3 -182q-6 -4 -17 -4q-22 0 -28 19t-10 37q-56 -40 -87 -40
q-24 0 -57 14.5t-44 32.5q-26 43 -26 137q0 33 3 117q2 74 1 117q17 13 30 13q28 0 28 -32q0 -17 -4.5 -51.5t-4.5 -51.5v-154q0 -2 5 -25q9 -39 18 -55q17 -28 48 -28q51 0 78 68q20 51 20 112v131q0 28 -9 57q11 10 25 10q16 0 29.5 -10.5t13.5 -26.5z" />
    <glyph glyph-name="udieresis" unicode="&#xfc;" horiz-adv-x="321" 
d="M245 483q0 -12 -9 -21.5t-22 -9.5q-12 0 -21 9.5t-9 21.5q0 13 9 22.5t21 9.5q13 0 22 -9.5t9 -22.5zM130 483q0 -12 -9 -21.5t-21 -9.5q-13 0 -22 9.5t-9 21.5q0 13 9 22.5t22 9.5q12 0 21 -9.5t9 -22.5zM301 368q0 -34 -7.5 -102.5t-7.5 -102.5q0 -2 3 -182
q-6 -4 -17 -4q-22 0 -28 19t-10 37q-56 -40 -87 -40q-24 0 -57 14.5t-44 32.5q-26 43 -26 137q0 33 3 117q2 74 1 117q17 13 30 13q28 0 28 -32q0 -17 -4.5 -51.5t-4.5 -51.5v-154q0 -2 5 -25q9 -39 18 -55q17 -28 48 -28q51 0 78 68q20 51 20 112v131q0 28 -9 57
q11 10 25 10q16 0 29.5 -10.5t13.5 -26.5z" />
    <glyph glyph-name="yacute" unicode="&#xfd;" horiz-adv-x="369" 
d="M345 392q-8 -44 -15 -88q-9 -47 -9 -88l-1 -313q0 -67 -40.5 -106.5t-108.5 -39.5q-37 0 -83 20q-53 22 -73 55q-5 9 -5 18q0 29 28 29q6 0 13 -4q17 -18 34 -35q34 -31 86 -31q66 0 88 46q13 29 13 105q0 10 -4 40q-4 25 -2 44q-28 -26 -40 -33q-22 -14 -48 -14
q-68 0 -103 53q-31 46 -31 117q0 135 4 228q4 32 35 32q38 0 34 -13q-19 -52 -19 -233q0 -140 80 -140q49 0 78 75q22 58 21 117l-1 114q1 17 2.5 43t32.5 24q36 -3 34 -22zM256 562l-2 -7q-10 -2 -28 -9q-24 -11 -52 -38q-41 -40 -62 -40q-3 0 -7.5 8t-4.5 12l1 5
q102 109 124 109q9 0 20 -15.5t11 -24.5z" />
    <glyph glyph-name="thorn" unicode="&#xfe;" horiz-adv-x="350" 
d="M324 211q0 -38 -8.5 -71t-19.5 -61q-39 -93 -123 -93q-56 0 -96 51q-7 -3 -7 -62q0 -66 2.5 -112t10.5 -72q8 -28 13 -36t5 -10q0 -17 -20 -17q-24 0 -34 7q-3 3 -7 15t-7.5 27t-5.5 30.5t-2 25.5v132.5t0.5 112.5t2 109.5t3.5 123.5t5 154t8 202h14q14 0 26.5 -14.5
t12.5 -29.5t-3 -45.5t-6.5 -64.5t-6.5 -64.5t-3 -45.5v-38q8 3 20 23q19 32 34.5 42.5t40.5 10.5q35 0 63 -17.5t47.5 -48.5t30 -73t10.5 -91zM256 106q8 26 13.5 52t5.5 58q0 16 -5.5 45.5t-16.5 59t-27.5 51t-38.5 21.5q-26 0 -47.5 -21t-37 -59t-24 -91t-8.5 -118
q2 -1 8 -5.5t13 -12.5q7 -11 14.5 -23t16.5 -22.5t21.5 -17.5t29.5 -7q54 0 83 90z" />
    <glyph glyph-name="ydieresis" unicode="&#xff;" horiz-adv-x="359" 
d="M285 483q0 -12 -9 -21.5t-22 -9.5q-12 0 -21 9.5t-9 21.5q0 13 9 22.5t21 9.5q13 0 22 -9.5t9 -22.5zM170 483q0 -12 -9 -21.5t-21 -9.5q-13 0 -22 9.5t-9 21.5q0 13 9 22.5t22 9.5q12 0 21 -9.5t9 -22.5zM339 392l-16 -100q-9 -59 -9 -100v-289q0 -141 -139 -141
q-45 0 -94 20q-61 24 -61 61q0 14 17 14q5 0 20 -14q18 -19 36 -28q28 -15 65 -15q67 0 92 51q17 35 17 109q0 51 -5 78q-46 -41 -90 -41q-68 0 -103 53q-30 45 -30 116q0 7 10 254q16 7 28 7q14 0 35 -14q-20 -51 -20 -233q0 -155 78 -155q49 0 80 84q23 66 23 127v129
q0 4 -1 12t-1 11q25 14 40 14q14 0 28 -10z" />
    <glyph glyph-name="Amacron" unicode="&#x100;" horiz-adv-x="508" 
d="M498 189q0 -32 -25 -32q-10 0 -21 4q0 -51 25 -114q-1 -13 -12.5 -21t-25.5 -8q-12 0 -27 7q-8 16 -8 50q0 9 1 33v33q0 18 -3 24q-9 1 -25.5 -1t-23.5 -2q-43 0 -135 -12q-105 -14 -121 -28q-9 -7 -19 -72q-8 -53 -9 -78q-5 -7 -14 -7q-13 0 -29 13t-16 25q0 6 8 27
t9 26q17 111 65 245q132 375 204 375q77 0 119 -196q15 -69 35 -264q6 -5 30 -11q18 -4 18 -16zM401 218q-25 176 -32 213q-33 168 -70 167q-41 -2 -103 -154q-35 -96 -69 -192q-6 -13 -13 -39q-4 -24 14 -24q6 0 61 10q43 8 212 19zM147 724q-1 3 -1 10q0 5 1 10.5t5 8.5
q27 3 75.5 6t100.5 3q22 0 28 -5.5t6 -16.5q0 -20 -19 -20q-17 0 -43.5 1t-50.5 1t-39.5 -1t-25.5 -2t-15.5 -2t-9.5 -1q-10 0 -12 8z" />
    <glyph glyph-name="amacron" unicode="&#x101;" horiz-adv-x="361" 
d="M336 -29q0 -14 -22 -14q-24 0 -29 20q-1 3 -1 39q0 10 -3 16q-56 -41 -121 -41q-45 0 -87 25q-48 28 -48 70q0 41 57 80q52 36 96 36h99q6 6 6 21q0 67 -11 101q-18 57 -71 57q-38 0 -70 -48q-29 -44 -29 -84v-6v-5q0 -8 -8 -8q-10 0 -22 12t-12 21q0 28 17 70.5t37 64.5
q25 27 62 27q57 0 105 -36q51 -39 52 -94zM283 130q0 40 -62 40q-49 0 -86 -17q-47 -22 -47 -66q0 -27 25 -42q21 -13 50 -13q43 0 81.5 28t38.5 70zM73 473q-1 3 -1 10q0 5 1 10.5t5 8.5q27 3 75.5 6t100.5 3q22 0 28 -5.5t6 -16.5q0 -20 -19 -20q-17 0 -43.5 1t-50.5 1
t-39.5 -1t-25.5 -2t-15.5 -2t-9.5 -1q-10 0 -12 8z" />
    <glyph glyph-name="Abreve" unicode="&#x102;" horiz-adv-x="508" 
d="M498 189q0 -32 -25 -32q-10 0 -21 4q0 -51 25 -114q-1 -13 -12.5 -21t-25.5 -8q-12 0 -27 7q-8 16 -8 50q0 9 1 33v33q0 18 -3 24q-9 1 -25.5 -1t-23.5 -2q-43 0 -135 -12q-105 -14 -121 -28q-9 -7 -19 -72q-8 -53 -9 -78q-5 -7 -14 -7q-13 0 -29 13t-16 25q0 6 8 27
t9 26q17 111 65 245q132 375 204 375q77 0 119 -196q15 -69 35 -264q6 -5 30 -11q18 -4 18 -16zM401 218q-25 176 -32 213q-33 168 -70 167q-41 -2 -103 -154q-35 -96 -69 -192q-6 -13 -13 -39q-4 -24 14 -24q6 0 61 10q43 8 212 19zM364 803q0 -40 -34.5 -63.5t-75.5 -23.5
t-74 22q-36 25 -36 65q0 15 15 15t15 -15q0 -48 77 -48q29 0 52 10q31 13 31 38q0 15 15 15t15 -15z" />
    <glyph glyph-name="abreve" unicode="&#x103;" horiz-adv-x="361" 
d="M336 -29q0 -14 -22 -14q-24 0 -29 20q-1 3 -1 39q0 10 -3 16q-56 -41 -121 -41q-45 0 -87 25q-48 28 -48 70q0 41 57 80q52 36 96 36h99q6 6 6 21q0 67 -11 101q-18 57 -71 57q-38 0 -70 -48q-29 -44 -29 -84v-6v-5q0 -8 -8 -8q-10 0 -22 12t-12 21q0 28 17 70.5t37 64.5
q25 27 62 27q57 0 105 -36q51 -39 52 -94zM283 130q0 40 -62 40q-49 0 -86 -17q-47 -22 -47 -66q0 -27 25 -42q21 -13 50 -13q43 0 81.5 28t38.5 70zM290 553q0 -40 -34.5 -63.5t-75.5 -23.5t-74 22q-36 25 -36 65q0 15 15 15t15 -15q0 -48 77 -48q29 0 52 10q31 13 31 38
q0 15 15 15t15 -15z" />
    <glyph glyph-name="Aogonek" unicode="&#x104;" horiz-adv-x="508" 
d="M498 189q0 -32 -25 -32q-10 0 -21 4q0 -51 25 -114q-1 -13 -12.5 -21t-25.5 -8q-12 0 -27 7q-8 16 -8 50q0 9 1 33v33q0 18 -3 24q-9 1 -25.5 -1t-23.5 -2q-43 0 -135 -12q-105 -14 -121 -28q-9 -7 -19 -72q-8 -53 -9 -78q-5 -7 -14 -7q-13 0 -29 13t-16 25q0 6 8 27
t9 26q17 111 65 245q132 375 204 375q77 0 119 -196q15 -69 35 -264q6 -5 30 -11q18 -4 18 -16zM401 218q-25 176 -32 213q-33 168 -70 167q-41 -2 -103 -154q-35 -96 -69 -192q-6 -13 -13 -39q-4 -24 14 -24q6 0 61 10q43 8 212 19zM498 -198q0 -15 -26 -26q-21 -8 -39 -8
q-34 0 -57.5 24.5t-23.5 58.5q0 52 57 107q8 8 16 8q13 0 13 -13q0 -7 -21 -40.5t-21 -56.5q0 -20 14 -39t33 -19q12 0 23.5 9.5t16.5 9.5q15 0 15 -15z" />
    <glyph glyph-name="aogonek" unicode="&#x105;" horiz-adv-x="361" 
d="M336 -29q0 -14 -22 -14q-24 0 -29 20q-1 3 -1 39q0 10 -3 16q-56 -41 -121 -41q-45 0 -87 25q-48 28 -48 70q0 41 57 80q52 36 96 36h99q6 6 6 21q0 67 -11 101q-18 57 -71 57q-38 0 -70 -48q-29 -44 -29 -84v-6v-5q0 -8 -8 -8q-10 0 -22 12t-12 21q0 28 17 70.5t37 64.5
q25 27 62 27q57 0 105 -36q51 -39 52 -94zM283 130q0 40 -62 40q-49 0 -86 -17q-47 -22 -47 -66q0 -27 25 -42q21 -13 50 -13q43 0 81.5 28t38.5 70zM336 -206q0 -15 -26 -26q-21 -8 -39 -8q-34 0 -57.5 24.5t-23.5 58.5q0 52 57 107q8 8 16 8q13 0 13 -13q0 -7 -21 -40.5
t-21 -56.5q0 -20 14 -39t33 -19q12 0 23.5 9.5t16.5 9.5q15 0 15 -15z" />
    <glyph glyph-name="Cacute" unicode="&#x106;" horiz-adv-x="478" 
d="M468 154q0 -16 -9 -42q-21 -61 -85 -98q-59 -34 -128 -34q-117 0 -176 96q-50 79 -50 203q0 106 31 200q35 110 104 170q51 45 103 45q77 0 115 -74q30 -58 30 -143q0 -42 -13 -97q-17 -72 -44 -72q-21 0 -30 22q6 4 19 14q26 25 26 122q0 59 -22 113q-28 70 -77 70
q-39 0 -82 -47q-32 -35 -55 -81q-51 -106 -51 -261q0 -103 36 -164q45 -76 140 -76q52 0 95 27.5t66 73.5q4 15 17 42q8 13 20 13q20 0 20 -22zM322 828l-2 -7q-10 -2 -28 -9q-24 -11 -52 -38q-41 -40 -62 -40q-3 0 -7.5 8t-4.5 12l1 5q102 109 124 109q9 0 20 -15.5
t11 -24.5z" />
    <glyph glyph-name="cacute" unicode="&#x107;" horiz-adv-x="364" 
d="M339 104q0 -24 -41 -64.5t-67 -47.5q-35 -11 -58 -11q-73 0 -112 53q-36 47 -36 122q0 77 33 172q41 118 102 118q29 0 77 -28.5t54 -54.5q7 -31 7 -61q0 -110 -33 -110q-8 0 -19 6t-11 14q0 4 4 10.5t5 8.5q4 13 4 60q0 111 -50 111q-55 0 -90 -101q-26 -78 -26 -148
q0 -54 17 -90q23 -47 71 -47q29 0 68 30q35 27 52 57q4 10 12 28q5 7 14 7q6 0 14.5 -13.5t8.5 -20.5zM260 581l-2 -7q-10 -2 -28 -9q-24 -11 -52 -38q-41 -40 -62 -40q-3 0 -7.5 8t-4.5 12l1 5q102 109 124 109q9 0 20 -15.5t11 -24.5z" />
    <glyph glyph-name="Ccircumflex" unicode="&#x108;" horiz-adv-x="478" 
d="M468 154q0 -16 -9 -42q-21 -61 -85 -98q-59 -34 -128 -34q-117 0 -176 96q-50 79 -50 203q0 106 31 200q35 110 104 170q51 45 103 45q77 0 115 -74q30 -58 30 -143q0 -42 -13 -97q-17 -72 -44 -72q-21 0 -30 22q6 4 19 14q26 25 26 122q0 59 -22 113q-28 70 -77 70
q-39 0 -82 -47q-32 -35 -55 -81q-51 -106 -51 -261q0 -103 36 -164q45 -76 140 -76q52 0 95 27.5t66 73.5q4 15 17 42q8 13 20 13q20 0 20 -22zM368 754q0 -4 -4.5 -12t-7.5 -8q-19 0 -62 40q-13 12 -25 16q-17 7 -25 11q-14 -3 -50 -27q-43 -40 -62 -40q-3 0 -7.5 8
t-4.5 12l1 5q111 100 123 100q11 0 123 -100z" />
    <glyph glyph-name="ccircumflex" unicode="&#x109;" horiz-adv-x="364" 
d="M339 104q0 -24 -41 -64.5t-67 -47.5q-35 -11 -58 -11q-73 0 -112 53q-36 47 -36 122q0 77 33 172q41 118 102 118q29 0 77 -28.5t54 -54.5q7 -31 7 -61q0 -110 -33 -110q-8 0 -19 6t-11 14q0 4 4 10.5t5 8.5q4 13 4 60q0 111 -50 111q-55 0 -90 -101q-26 -78 -26 -148
q0 -54 17 -90q23 -47 71 -47q29 0 68 30q35 27 52 57q4 10 12 28q5 7 14 7q6 0 14.5 -13.5t8.5 -20.5zM306 507q0 -4 -4.5 -12t-7.5 -8q-19 0 -62 40q-13 12 -25 16q-17 7 -25 11q-14 -3 -50 -27q-43 -40 -62 -40q-3 0 -7.5 8t-4.5 12l1 5q111 100 123 100q11 0 123 -100z
" />
    <glyph glyph-name="Cdotaccent" unicode="&#x10a;" horiz-adv-x="478" 
d="M468 154q0 -16 -9 -42q-21 -61 -85 -98q-59 -34 -128 -34q-117 0 -176 96q-50 79 -50 203q0 106 31 200q35 110 104 170q51 45 103 45q77 0 115 -74q30 -58 30 -143q0 -42 -13 -97q-17 -72 -44 -72q-21 0 -30 22q6 4 19 14q26 25 26 122q0 59 -22 113q-28 70 -77 70
q-39 0 -82 -47q-32 -35 -55 -81q-51 -106 -51 -261q0 -103 36 -164q45 -76 140 -76q52 0 95 27.5t66 73.5q4 15 17 42q8 13 20 13q20 0 20 -22zM284 776q0 -17 -11.5 -29.5t-28.5 -12.5t-28.5 12.5t-11.5 29.5q0 16 11.5 28.5t28.5 12.5t28.5 -12.5t11.5 -28.5z" />
    <glyph glyph-name="cdotaccent" unicode="&#x10b;" horiz-adv-x="364" 
d="M339 104q0 -24 -41 -64.5t-67 -47.5q-35 -11 -58 -11q-73 0 -112 53q-36 47 -36 122q0 77 33 172q41 118 102 118q29 0 77 -28.5t54 -54.5q7 -31 7 -61q0 -110 -33 -110q-8 0 -19 6t-11 14q0 4 4 10.5t5 8.5q4 13 4 60q0 111 -50 111q-55 0 -90 -101q-26 -78 -26 -148
q0 -54 17 -90q23 -47 71 -47q29 0 68 30q35 27 52 57q4 10 12 28q5 7 14 7q6 0 14.5 -13.5t8.5 -20.5zM222 529q0 -17 -11.5 -29.5t-28.5 -12.5t-28.5 12.5t-11.5 29.5q0 16 11.5 28.5t28.5 12.5t28.5 -12.5t11.5 -28.5z" />
    <glyph glyph-name="Ccaron" unicode="&#x10c;" horiz-adv-x="478" 
d="M468 154q0 -16 -9 -42q-21 -61 -85 -98q-59 -34 -128 -34q-117 0 -176 96q-50 79 -50 203q0 106 31 200q35 110 104 170q51 45 103 45q77 0 115 -74q30 -58 30 -143q0 -42 -13 -97q-17 -72 -44 -72q-21 0 -30 22q6 4 19 14q26 25 26 122q0 59 -22 113q-28 70 -77 70
q-39 0 -82 -47q-32 -35 -55 -81q-51 -106 -51 -261q0 -103 36 -164q45 -76 140 -76q52 0 95 27.5t66 73.5q4 15 17 42q8 13 20 13q20 0 20 -22zM368 839l-1 -5q-111 -100 -123 -100t-123 100l-1 5q0 4 4.5 11.5t7.5 7.5q19 0 62 -39q13 -12 25 -17q17 -6 25 -10q14 3 50 27
q43 39 62 39q3 0 7.5 -7.5t4.5 -11.5z" />
    <glyph glyph-name="ccaron" unicode="&#x10d;" horiz-adv-x="364" 
d="M339 104q0 -24 -41 -64.5t-67 -47.5q-35 -11 -58 -11q-73 0 -112 53q-36 47 -36 122q0 77 33 172q41 118 102 118q29 0 77 -28.5t54 -54.5q7 -31 7 -61q0 -110 -33 -110q-8 0 -19 6t-11 14q0 4 4 10.5t5 8.5q4 13 4 60q0 111 -50 111q-55 0 -90 -101q-26 -78 -26 -148
q0 -54 17 -90q23 -47 71 -47q29 0 68 30q35 27 52 57q4 10 12 28q5 7 14 7q6 0 14.5 -13.5t8.5 -20.5zM306 592l-1 -5q-111 -100 -123 -100t-123 100l-1 5q0 4 4.5 11.5t7.5 7.5q19 0 62 -39q13 -12 25 -17q17 -6 25 -10q14 3 50 27q43 39 62 39q3 0 7.5 -7.5t4.5 -11.5z
" />
    <glyph glyph-name="Dcaron" unicode="&#x10e;" horiz-adv-x="499" 
d="M469 419q0 -152 -67 -285q-83 -162 -220 -162q-50 0 -94 35q-17 -22 -22 -22q-11 0 -22 7q-14 39 -14 150q0 84 3 249.5t3 250.5q0 2 -1 7.5t-1 8.5q0 22 24 22q12 0 26 -9.5t14 -20.5q0 -12 -6.5 -29.5t-6.5 -28.5v-39q12 7 35 49t47 62q37 32 95 32q108 0 162 -89
q45 -73 45 -188zM410 424q0 91 -26 151q-35 84 -114 84q-56 0 -111 -69q-45 -57 -63 -121q-16 -58 -16 -124v-207q0 -47 25 -81q28 -38 74 -38q80 0 143 84q53 69 72 158q16 79 16 163zM373 841l-1 -5q-111 -100 -123 -100t-123 100l-1 5q0 4 4.5 11.5t7.5 7.5q19 0 62 -39
q13 -12 25 -17q17 -6 25 -10q14 3 50 27q43 39 62 39q3 0 7.5 -7.5t4.5 -11.5z" />
    <glyph glyph-name="dcaron" unicode="&#x10f;" horiz-adv-x="545" 
d="M342 635q0 -23 -6 -59q-7 -47 -9 -59q-3 -31 -10 -206q-6 -160 -6 -177q0 -107 19 -151q-7 -11 -18 -11q-10 0 -22.5 10t-15.5 20q0 20 -6 61q-59 -75 -113 -75q-65 0 -100 49q-30 42 -30 111q0 84 31 174q40 118 106 118q28 0 57 -21q6 -4 47 -42q10 68 10 298q7 7 19 7
q19 0 33 -14t14 -33zM267 266q0 44 -20 79q-24 42 -65 42q-50 0 -80 -102q-24 -77 -24 -145q0 -44 14 -76q19 -42 57 -42q62 0 94 96q24 69 24 148zM417 680q0 12 8 23t35 11q18 0 32 -11.5t19 -38.5q7 -42 5.5 -72.5t-20.5 -62.5q-17 -29 -37 -46.5t-40 -17.5
q-16 0 -18 13.5t12 25.5q17 15 35.5 28t28.5 37q8 20 0 42.5t-25 33.5t-26 17.5t-9 17.5z" />
    <glyph glyph-name="Uni0110" unicode="&#x110;" horiz-adv-x="517" 
d="M487 419q0 -152 -67 -285q-83 -162 -220 -162q-50 0 -94 35q-16 -22 -22 -22q-12 0 -22 7q-14 40 -14 150v65t1 83q-6 -2 -11.5 -4t-11.5 -2q-8 0 -13 6.5t-8 15.5t-4 18.5t-1 15.5q0 7 7 7l43 4q0 10 0.5 19.5t0.5 20.5q3 166 3 251q0 2 -1 7.5t-1 8.5q0 22 24 22
q12 0 26 -9.5t14 -20.5q0 -12 -6.5 -29.5t-6.5 -28.5v-39q13 8 35 49q23 42 47 62q38 32 95 32q108 0 162 -89q45 -74 45 -188zM354 320q0 -17 -3 -22.5t-14 -5.5q-3 0 -11.5 4.5t-13.5 6.5q-14 6 -50 8t-96 2q-20 0 -37 -1t-31 -3v-171q0 -47 25 -81q29 -38 74 -38
q80 0 143 84q52 69 72 158q16 77 16 163q0 90 -26 151q-35 84 -114 84q-56 0 -111 -69q-45 -57 -63 -121q-8 -27 -12 -55.5t-4 -58.5q49 4 97 5t97 1q21 0 41.5 -10.5t20.5 -30.5z" />
    <glyph glyph-name="Uni0111" unicode="&#x111;" horiz-adv-x="392" 
d="M412 527q0 -17 -3 -22.5t-14 -5.5q-13 0 -25.5 5.5t-43.5 9.5q0 -9 -1.5 -45t-4 -88t-5 -116.5t-4.5 -130.5q0 -110 19 -151q-8 -11 -18 -11t-22.5 10t-15.5 20q0 20 -6 61q-59 -75 -113 -75q-60 0 -95 42.5t-35 117.5q0 87 31 174q40 118 106 118q32 0 58 -20t46 -43
q3 20 5 54t3 85h-46q-23 0 -41.5 -1.5t-32.5 -3.5q-18 -3 -32.5 -11t-29.5 -8q-8 0 -13 6t-7.5 14t-3.5 16.5t-1 14.5q0 7 6 7q52 6 101.5 9t100.5 4q1 25 1 53v59q7 7 19 7q19 0 33 -14t14 -33q0 -23 -6 -59l-2 -12h17q21 0 41 -8.5t20 -28.5zM267 266q0 24 -6.5 46
t-17.5 38.5t-27 26.5t-34 10q-50 0 -80 -102q-24 -78 -24 -145q0 -54 19 -86t52 -32q26 0 47.5 19.5t37.5 53t24.5 77.5t8.5 94z" />
    <glyph glyph-name="Emacron" unicode="&#x112;" horiz-adv-x="465" 
d="M455 42q-5 -11 -12 -11q-4 0 -11.5 1.5t-11.5 1.5q-43 0 -124.5 -27.5t-124.5 -27.5q-141 0 -141 237q0 188 10 321l2 32q0 8 -2.5 20.5t-2.5 17.5q0 24 33 27q37 4 146 31q99 24 142 24q5 0 14 -2q16 1 31 -9t15 -21q0 -20 -51 -20q-46 0 -135 -16q-100 -19 -124 -39
q-8 -76 -19 -238q4 -5 11 -5q30 0 89 19t90 19q25 0 50 -13l8 -30q2 -4 -26 -14q-14 9 -36 9q-25 0 -94.5 -18t-94.5 -30q-4 -22 -4 -102q0 -151 77 -151q37 0 106.5 25t106.5 25q64 0 83 -36zM135 736q-1 3 -1 10q0 5 1 10.5t5 8.5q27 3 75.5 6t100.5 3q22 0 28 -5.5
t6 -16.5q0 -20 -19 -20q-17 0 -43.5 1t-50.5 1t-39.5 -1t-25.5 -2t-15.5 -2t-9.5 -1q-10 0 -12 8z" />
    <glyph glyph-name="emacron" unicode="&#x113;" horiz-adv-x="338" 
d="M318 99q0 -44 -59 -79q-53 -32 -100 -32q-134 0 -134 170q0 75 27 161q36 112 92 112q48 0 105 -48.5t57 -96.5q0 -62 -50 -108t-113 -46q-6 0 -25.5 10t-26.5 10q-13 0 -13 -8q0 -115 76 -115q39 0 72 26q20 15 44 47q19 25 25 25q23 0 23 -28zM249 283q0 35 -20 65.5
t-53 30.5q-40 0 -65 -50q-21 -42 -21 -87q0 -29 18.5 -48.5t47.5 -19.5q41 0 68 35q25 32 25 74zM64 479q-1 3 -1 10q0 5 1 10.5t5 8.5q27 3 75.5 6t100.5 3q22 0 28 -5.5t6 -16.5q0 -20 -19 -20q-17 0 -43.5 1t-50.5 1t-39.5 -1t-25.5 -2t-15.5 -2t-9.5 -1q-10 0 -12 8z
" />
    <glyph glyph-name="Ebreve" unicode="&#x114;" horiz-adv-x="465" 
d="M455 42q-5 -11 -12 -11q-4 0 -11.5 1.5t-11.5 1.5q-43 0 -124.5 -27.5t-124.5 -27.5q-141 0 -141 237q0 188 10 321l2 32q0 8 -2.5 20.5t-2.5 17.5q0 24 33 27q37 4 146 31q99 24 142 24q5 0 14 -2q16 1 31 -9t15 -21q0 -20 -51 -20q-46 0 -135 -16q-100 -19 -124 -39
q-8 -76 -19 -238q4 -5 11 -5q30 0 89 19t90 19q25 0 50 -13l8 -30q2 -4 -26 -14q-14 9 -36 9q-25 0 -94.5 -18t-94.5 -30q-4 -22 -4 -102q0 -151 77 -151q37 0 106.5 25t106.5 25q64 0 83 -36zM352 816q0 -40 -34.5 -63.5t-75.5 -23.5t-74 22q-36 25 -36 65q0 15 15 15
t15 -15q0 -48 77 -48q29 0 52 10q31 13 31 38q0 15 15 15t15 -15z" />
    <glyph glyph-name="ebreve" unicode="&#x115;" horiz-adv-x="338" 
d="M318 99q0 -44 -59 -79q-53 -32 -100 -32q-134 0 -134 170q0 75 27 161q36 112 92 112q48 0 105 -48.5t57 -96.5q0 -62 -50 -108t-113 -46q-6 0 -25.5 10t-26.5 10q-13 0 -13 -8q0 -115 76 -115q39 0 72 26q20 15 44 47q19 25 25 25q23 0 23 -28zM249 283q0 35 -20 65.5
t-53 30.5q-40 0 -65 -50q-21 -42 -21 -87q0 -29 18.5 -48.5t47.5 -19.5q41 0 68 35q25 32 25 74zM281 559q0 -40 -34.5 -63.5t-75.5 -23.5t-74 22q-36 25 -36 65q0 15 15 15t15 -15q0 -48 77 -48q29 0 52 10q31 13 31 38q0 15 15 15t15 -15z" />
    <glyph glyph-name="Edotaccent" unicode="&#x116;" horiz-adv-x="465" 
d="M455 42q-5 -11 -12 -11q-4 0 -11.5 1.5t-11.5 1.5q-43 0 -124.5 -27.5t-124.5 -27.5q-141 0 -141 237q0 188 10 321l2 32q0 8 -2.5 20.5t-2.5 17.5q0 24 33 27q37 4 146 31q99 24 142 24q5 0 14 -2q16 1 31 -9t15 -21q0 -20 -51 -20q-46 0 -135 -16q-100 -19 -124 -39
q-8 -76 -19 -238q4 -5 11 -5q30 0 89 19t90 19q25 0 50 -13l8 -30q2 -4 -26 -14q-14 9 -36 9q-25 0 -94.5 -18t-94.5 -30q-4 -22 -4 -102q0 -151 77 -151q37 0 106.5 25t106.5 25q64 0 83 -36zM282 771q0 -17 -11.5 -29.5t-28.5 -12.5t-28.5 12.5t-11.5 29.5q0 16 11.5 28.5
t28.5 12.5t28.5 -12.5t11.5 -28.5z" />
    <glyph glyph-name="edotaccent" unicode="&#x117;" horiz-adv-x="338" 
d="M318 99q0 -44 -59 -79q-53 -32 -100 -32q-134 0 -134 170q0 75 27 161q36 112 92 112q48 0 105 -48.5t57 -96.5q0 -62 -50 -108t-113 -46q-6 0 -25.5 10t-26.5 10q-13 0 -13 -8q0 -115 76 -115q39 0 72 26q20 15 44 47q19 25 25 25q23 0 23 -28zM249 283q0 35 -20 65.5
t-53 30.5q-40 0 -65 -50q-21 -42 -21 -87q0 -29 18.5 -48.5t47.5 -19.5q41 0 68 35q25 32 25 74zM211 514q0 -17 -11.5 -29.5t-28.5 -12.5t-28.5 12.5t-11.5 29.5q0 16 11.5 28.5t28.5 12.5t28.5 -12.5t11.5 -28.5z" />
    <glyph glyph-name="Eogonek" unicode="&#x118;" horiz-adv-x="465" 
d="M455 42q-5 -11 -12 -11q-4 0 -11.5 1.5t-11.5 1.5q-43 0 -124.5 -27.5t-124.5 -27.5q-141 0 -141 237q0 188 10 321l2 32q0 8 -2.5 20.5t-2.5 17.5q0 24 33 27q37 4 146 31q99 24 142 24q5 0 14 -2q16 1 31 -9t15 -21q0 -20 -51 -20q-46 0 -135 -16q-100 -19 -124 -39
q-8 -76 -19 -238q4 -5 11 -5q30 0 89 19t90 19q25 0 50 -13l8 -30q2 -4 -26 -14q-14 9 -36 9q-25 0 -94.5 -18t-94.5 -30q-4 -22 -4 -102q0 -151 77 -151q37 0 106.5 25t106.5 25q64 0 83 -36zM315 -184q0 -15 -26 -26q-21 -8 -39 -8q-34 0 -57.5 24.5t-23.5 58.5
q0 52 57 107q8 8 16 8q13 0 13 -13q0 -7 -21 -40.5t-21 -56.5q0 -20 14 -39t33 -19q12 0 23.5 9.5t16.5 9.5q15 0 15 -15z" />
    <glyph glyph-name="eogonek" unicode="&#x119;" horiz-adv-x="338" 
d="M318 99q0 -44 -59 -79q-53 -32 -100 -32q-134 0 -134 170q0 75 27 161q36 112 92 112q48 0 105 -48.5t57 -96.5q0 -62 -50 -108t-113 -46q-6 0 -25.5 10t-26.5 10q-13 0 -13 -8q0 -115 76 -115q39 0 72 26q20 15 44 47q19 25 25 25q23 0 23 -28zM249 283q0 35 -20 65.5
t-53 30.5q-40 0 -65 -50q-21 -42 -21 -87q0 -29 18.5 -48.5t47.5 -19.5q41 0 68 35q25 32 25 74zM244 -175q0 -15 -26 -26q-21 -8 -39 -8q-34 0 -57.5 24.5t-23.5 58.5q0 52 57 107q8 8 16 8q13 0 13 -13q0 -7 -21 -40.5t-21 -56.5q0 -20 14 -39t33 -19q12 0 23.5 9.5
t16.5 9.5q15 0 15 -15z" />
    <glyph glyph-name="Ecaron" unicode="&#x11a;" horiz-adv-x="465" 
d="M455 42q-5 -11 -12 -11q-4 0 -11.5 1.5t-11.5 1.5q-43 0 -124.5 -27.5t-124.5 -27.5q-141 0 -141 237q0 188 10 321l2 32q0 8 -2.5 20.5t-2.5 17.5q0 24 33 27q37 4 146 31q99 24 142 24q5 0 14 -2q16 1 31 -9t15 -21q0 -20 -51 -20q-46 0 -135 -16q-100 -19 -124 -39
q-8 -76 -19 -238q4 -5 11 -5q30 0 89 19t90 19q25 0 50 -13l8 -30q2 -4 -26 -14q-14 9 -36 9q-25 0 -94.5 -18t-94.5 -30q-4 -22 -4 -102q0 -151 77 -151q37 0 106.5 25t106.5 25q64 0 83 -36zM366 834l-1 -5q-111 -100 -123 -100t-123 100l-1 5q0 4 4.5 11.5t7.5 7.5
q19 0 62 -39q13 -12 25 -17q17 -6 25 -10q14 3 50 27q43 39 62 39q3 0 7.5 -7.5t4.5 -11.5z" />
    <glyph glyph-name="ecaron" unicode="&#x11b;" horiz-adv-x="338" 
d="M318 99q0 -44 -59 -79q-53 -32 -100 -32q-134 0 -134 170q0 75 27 161q36 112 92 112q48 0 105 -48.5t57 -96.5q0 -62 -50 -108t-113 -46q-6 0 -25.5 10t-26.5 10q-13 0 -13 -8q0 -115 76 -115q39 0 72 26q20 15 44 47q19 25 25 25q23 0 23 -28zM249 283q0 35 -20 65.5
t-53 30.5q-40 0 -65 -50q-21 -42 -21 -87q0 -29 18.5 -48.5t47.5 -19.5q41 0 68 35q25 32 25 74zM295 577l-1 -5q-111 -100 -123 -100t-123 100l-1 5q0 4 4.5 11.5t7.5 7.5q19 0 62 -39q13 -12 25 -17q17 -6 25 -10q14 3 50 27q43 39 62 39q3 0 7.5 -7.5t4.5 -11.5z" />
    <glyph glyph-name="Gcircumflex" unicode="&#x11c;" horiz-adv-x="483" 
d="M463 165q0 -82 -70 -131q-64 -45 -156 -45q-120 0 -175 103q-42 79 -42 211q0 133 52 246q67 143 183 143q9 0 30 -8q58 -23 100 -104q40 -76 40 -144q0 -122 -49 -122q-28 0 -28 23q0 4 13 29t13 40q0 71 -27 140q-35 90 -96 90q-62 0 -108 -75q-36 -59 -48.5 -133.5
t-12.5 -129.5q0 -105 18 -155q27 -78 108 -102q26 -8 42 -8q46 0 87 23t62 62q20 36 20 50q0 22 -34 22q-69 0 -110 -19.5t-39 -19.5q-33 0 -33 53q0 12 13 20t73 18q57 10 78 10q40 0 68 -24t28 -63zM365 752q0 -4 -4.5 -12t-7.5 -8q-19 0 -62 40q-13 12 -25 16
q-17 7 -25 11q-14 -3 -50 -27q-43 -40 -62 -40q-3 0 -7.5 8t-4.5 12l1 5q111 100 123 100q11 0 123 -100z" />
    <glyph glyph-name="gcircumflex" unicode="&#x11d;" horiz-adv-x="359" 
d="M334 300q0 -6 -1 -17q-21 -100 -21 -161q0 -31 3 -95t3 -96q0 -62 -10 -90q-12 -33 -46 -55t-70 -22q-42 0 -97 18q-70 22 -70 53q0 27 21 27q9 0 16 -12q10 -17 13 -19q8 -8 41 -15q30 -8 45 -8q56 0 85 44q25 37 25 97q0 64 -11 102q-48 -63 -115 -63q-20 0 -47 13.5
t-40 29.5q-27 32 -27 101q0 85 31 183q40 127 105 127q52 0 110 -94q6 -11 19 -29q13 -4 38 -19zM274 245q0 21 -15 35q-3 42 -21 72q-23 37 -62 37q-27 0 -54 -61q-20 -46 -27 -86q-10 -60 -10 -102q0 -123 71 -123q54 0 90 90q28 73 28 138zM303 503q0 -4 -4.5 -12
t-7.5 -8q-19 0 -62 40q-13 12 -25 16q-17 7 -25 11q-14 -3 -50 -27q-43 -40 -62 -40q-3 0 -7.5 8t-4.5 12l1 5q111 100 123 100q11 0 123 -100z" />
    <glyph glyph-name="Gbreve" unicode="&#x11e;" horiz-adv-x="483" 
d="M463 165q0 -82 -70 -131q-64 -45 -156 -45q-120 0 -175 103q-42 79 -42 211q0 133 52 246q67 143 183 143q9 0 30 -8q58 -23 100 -104q40 -76 40 -144q0 -122 -49 -122q-28 0 -28 23q0 4 13 29t13 40q0 71 -27 140q-35 90 -96 90q-62 0 -108 -75q-36 -59 -48.5 -133.5
t-12.5 -129.5q0 -105 18 -155q27 -78 108 -102q26 -8 42 -8q46 0 87 23t62 62q20 36 20 50q0 22 -34 22q-69 0 -110 -19.5t-39 -19.5q-33 0 -33 53q0 12 13 20t73 18q57 10 78 10q40 0 68 -24t28 -63zM351 819q0 -40 -34.5 -63.5t-75.5 -23.5t-74 22q-36 25 -36 65
q0 15 15 15t15 -15q0 -48 77 -48q29 0 52 10q31 13 31 38q0 15 15 15t15 -15z" />
    <glyph glyph-name="gbreve" unicode="&#x11f;" horiz-adv-x="359" 
d="M334 300q0 -6 -1 -17q-21 -100 -21 -161q0 -31 3 -95t3 -96q0 -62 -10 -90q-12 -33 -46 -55t-70 -22q-42 0 -97 18q-70 22 -70 53q0 27 21 27q9 0 16 -12q10 -17 13 -19q8 -8 41 -15q30 -8 45 -8q56 0 85 44q25 37 25 97q0 64 -11 102q-48 -63 -115 -63q-20 0 -47 13.5
t-40 29.5q-27 32 -27 101q0 85 31 183q40 127 105 127q52 0 110 -94q6 -11 19 -29q13 -4 38 -19zM274 245q0 21 -15 35q-3 42 -21 72q-23 37 -62 37q-27 0 -54 -61q-20 -46 -27 -86q-10 -60 -10 -102q0 -123 71 -123q54 0 90 90q28 73 28 138zM289 570q0 -40 -34.5 -63.5
t-75.5 -23.5t-74 22q-36 25 -36 65q0 15 15 15t15 -15q0 -48 77 -48q29 0 52 10q31 13 31 38q0 15 15 15t15 -15z" />
    <glyph glyph-name="Gdotaccent" unicode="&#x120;" horiz-adv-x="483" 
d="M463 165q0 -82 -70 -131q-64 -45 -156 -45q-120 0 -175 103q-42 79 -42 211q0 133 52 246q67 143 183 143q9 0 30 -8q58 -23 100 -104q40 -76 40 -144q0 -122 -49 -122q-28 0 -28 23q0 4 13 29t13 40q0 71 -27 140q-35 90 -96 90q-62 0 -108 -75q-36 -59 -48.5 -133.5
t-12.5 -129.5q0 -105 18 -155q27 -78 108 -102q26 -8 42 -8q46 0 87 23t62 62q20 36 20 50q0 22 -34 22q-69 0 -110 -19.5t-39 -19.5q-33 0 -33 53q0 12 13 20t73 18q57 10 78 10q40 0 68 -24t28 -63zM281 774q0 -17 -11.5 -29.5t-28.5 -12.5t-28.5 12.5t-11.5 29.5
q0 16 11.5 28.5t28.5 12.5t28.5 -12.5t11.5 -28.5z" />
    <glyph glyph-name="gdotaccent" unicode="&#x121;" horiz-adv-x="359" 
d="M334 300q0 -6 -1 -17q-21 -100 -21 -161q0 -31 3 -95t3 -96q0 -62 -10 -90q-12 -33 -46 -55t-70 -22q-42 0 -97 18q-70 22 -70 53q0 27 21 27q9 0 16 -12q10 -17 13 -19q8 -8 41 -15q30 -8 45 -8q56 0 85 44q25 37 25 97q0 64 -11 102q-48 -63 -115 -63q-20 0 -47 13.5
t-40 29.5q-27 32 -27 101q0 85 31 183q40 127 105 127q52 0 110 -94q6 -11 19 -29q13 -4 38 -19zM274 245q0 21 -15 35q-3 42 -21 72q-23 37 -62 37q-27 0 -54 -61q-20 -46 -27 -86q-10 -60 -10 -102q0 -123 71 -123q54 0 90 90q28 73 28 138zM219 525q0 -17 -11.5 -29.5
t-28.5 -12.5t-28.5 12.5t-11.5 29.5q0 16 11.5 28.5t28.5 12.5t28.5 -12.5t11.5 -28.5z" />
    <glyph glyph-name="Gcommaaccent" unicode="&#x122;" horiz-adv-x="483" 
d="M463 165q0 -82 -70 -131q-64 -45 -156 -45q-120 0 -175 103q-42 79 -42 211q0 133 52 246q67 143 183 143q9 0 30 -8q58 -23 100 -104q40 -76 40 -144q0 -122 -49 -122q-28 0 -28 23q0 4 13 29t13 40q0 71 -27 140q-35 90 -96 90q-62 0 -108 -75q-36 -59 -48.5 -133.5
t-12.5 -129.5q0 -105 18 -155q27 -78 108 -102q26 -8 42 -8q46 0 87 23t62 62q20 36 20 50q0 22 -34 22q-69 0 -110 -19.5t-39 -19.5q-33 0 -33 53q0 12 13 20t73 18q57 10 78 10q40 0 68 -24t28 -63zM313 -48q-75 -165 -95 -165q-14 0 -49 14l1 8q70 65 89 176q9 4 12 4
q9 0 24 -13.5t18 -23.5z" />
    <glyph glyph-name="Uni0123" unicode="&#x123;" horiz-adv-x="359" 
d="M334 300q0 -6 -1 -17q-21 -100 -21 -161q0 -31 3 -95t3 -96q0 -62 -10 -90q-12 -33 -46 -55t-70 -22q-42 0 -97 18q-70 22 -70 53q0 27 21 27q9 0 16 -12q10 -17 13 -19q8 -8 41 -15q30 -8 45 -8q56 0 85 44q25 37 25 97q0 64 -11 102q-48 -63 -115 -63q-20 0 -47 13.5
t-40 29.5q-27 32 -27 101q0 85 31 183q40 127 105 127q52 0 110 -94q6 -11 19 -29q13 -4 38 -19zM274 245q0 21 -15 35q-3 42 -21 72q-23 37 -62 37q-27 0 -54 -61q-20 -46 -27 -86q-10 -60 -10 -102q0 -123 71 -123q54 0 90 90q28 73 28 138zM267 629q-75 -165 -95 -165
q-14 0 -49 14l1 8q70 65 89 176q9 4 12 4q9 0 24 -13.5t18 -23.5z" />
    <glyph glyph-name="Hcircumflex" unicode="&#x124;" horiz-adv-x="554" 
d="M534 632q-16 -12 -17 -13q-7 -7 -11 -18q-22 -57 -26 -314q36 -8 36 -24q0 -10 -9 -23q-10 -4 -29 -12q0 -44 10 -129q1 -5 10 -30q7 -20 7 -28q0 -12 -9 -24t-21 -12q-27 0 -37 40q-1 5 -8 63.5t-7 75.5q0 18 3 34q-62 -1 -146 -17q-72 -14 -144 -29l-18 -18
q1 -38 1 -77q4 -59 19 -76q-4 -13 -12.5 -13t-20 -4.5t-17.5 -4.5q-19 0 -24 75q-2 47 -3 94l-7 10l-4 -1q-13 0 -24 7.5t-11 19.5q0 8 9 22.5t18 14.5q2 0 5.5 -1t5.5 -1l5 1q1 44 1 176q0 175 24 238q11 27 36 27q16 0 31 -10.5t15 -26.5q0 -6 -9 -27q-10 -25 -11 -29
q-27 -96 -27 -290q0 -45 17 -45q5 0 53 10q108 20 144 20q9 0 30.5 5.5t42 5.5t19.5 28l-2 88q-2 85 8 170q15 134 54 134q20 0 36 -21q13 -19 14 -41zM398 754q0 -4 -4.5 -12t-7.5 -8q-19 0 -62 40q-13 12 -25 16q-17 7 -25 11q-14 -3 -50 -27q-43 -40 -62 -40q-3 0 -7.5 8
t-4.5 12l1 5q111 100 123 100q11 0 123 -100z" />
    <glyph glyph-name="hcircumflex" unicode="&#x125;" horiz-adv-x="327" 
d="M294 -27q-8 -8 -30 -8q-11 0 -23 14q1 86 1 137q0 254 -85 254q-36 0 -60 -42q-21 -36 -21 -74q0 -4 -2.5 -12.5t-2.5 -12.5v-128q0 -17 5 -49t5 -48t-24 -16q-17 0 -28.5 16t-11.5 33l6 615q-2 6 -2 12q0 18 20 18q10 0 29.5 -13.5t19.5 -22.5q0 -24 -9.5 -69t-9.5 -68
q0 -2 2 -133q37 33 57 33q32 0 77 -19q87 -36 87 -190v-227zM279 742q0 -4 -4.5 -12t-7.5 -8q-19 0 -62 40q-13 12 -25 16q-17 7 -25 11q-14 -3 -50 -27q-43 -40 -62 -40q-3 0 -7.5 8t-4.5 12l1 5q111 100 123 100q11 0 123 -100z" />
    <glyph glyph-name="Itilde" unicode="&#x128;" horiz-adv-x="172" 
d="M132 641q0 -1 -9 -17q-4 -8 -8 -53q-22 -205 -22 -379q0 -143 30 -187q-19 -13 -30 -13q-43 0 -52 70q-8 62 -8 88l7 474q0 14 19 30t33 16q9 0 24.5 -10.5t15.5 -18.5zM219 776q0 -17 -38.5 -41.5t-57.5 -24.5q-28 0 -54 18t-43 18q-20 0 -43 -15.5l-23 -15.5
q-16 0 -16 15q0 17 40 40q37 21 56 21q26 0 49.5 -19.5t42.5 -19.5q20 0 44.5 19.5t27.5 19.5q15 0 15 -15z" />
    <glyph glyph-name="itilde" unicode="&#x129;" horiz-adv-x="107" 
d="M87 391q0 -18 -8 -54t-8 -54v-221q0 -22 9 -60q-4 -8 -11 -8q-49 0 -49 47v367q13 7 25 7t25 -7q17 -7 17 -17zM190 522q0 -17 -38.5 -41.5t-57.5 -24.5q-28 0 -54 18t-43 18q-20 0 -43 -15.5l-23 -15.5q-16 0 -16 15q0 17 40 40q37 21 56 21q26 0 49.5 -19.5t42.5 -19.5
q20 0 44.5 19.5t27.5 19.5q15 0 15 -15z" />
    <glyph glyph-name="Imacron" unicode="&#x12a;" horiz-adv-x="172" 
d="M132 641q0 -1 -9 -17q-4 -8 -8 -53q-22 -205 -22 -379q0 -143 30 -187q-19 -13 -30 -13q-43 0 -52 70q-8 62 -8 88l7 474q0 14 19 30t33 16q9 0 24.5 -10.5t15.5 -18.5zM-25 718q-1 3 -1 10q0 5 1 10.5t5 8.5q27 3 75.5 6t100.5 3q22 0 28 -5.5t6 -16.5q0 -20 -19 -20
q-17 0 -43.5 1t-50.5 1t-39.5 -1t-25.5 -2t-15.5 -2t-9.5 -1q-10 0 -12 8z" />
    <glyph glyph-name="imacron" unicode="&#x12b;" horiz-adv-x="107" 
d="M87 391q0 -18 -8 -54t-8 -54v-221q0 -22 9 -60q-4 -8 -11 -8q-49 0 -49 47v367q13 7 25 7t25 -7q17 -7 17 -17zM-54 463q-1 3 -1 10q0 5 1 10.5t5 8.5q27 3 75.5 6t100.5 3q22 0 28 -5.5t6 -16.5q0 -20 -19 -20q-17 0 -43.5 1t-50.5 1t-39.5 -1t-25.5 -2t-15.5 -2
t-9.5 -1q-10 0 -12 8z" />
    <glyph glyph-name="Ibreve" unicode="&#x12c;" horiz-adv-x="172" 
d="M132 641q0 -1 -9 -17q-4 -8 -8 -53q-22 -205 -22 -379q0 -143 30 -187q-19 -13 -30 -13q-43 0 -52 70q-8 62 -8 88l7 474q0 14 19 30t33 16q9 0 24.5 -10.5t15.5 -18.5zM193 798q0 -40 -34.5 -63.5t-75.5 -23.5t-74 22q-36 25 -36 65q0 15 15 15t15 -15q0 -48 77 -48
q29 0 52 10q31 13 31 38q0 15 15 15t15 -15z" />
    <glyph glyph-name="ibreve" unicode="&#x12d;" horiz-adv-x="107" 
d="M87 391q0 -18 -8 -54t-8 -54v-221q0 -22 9 -60q-4 -8 -11 -8q-49 0 -49 47v367q13 7 25 7t25 -7q17 -7 17 -17zM164 543q0 -40 -34.5 -63.5t-75.5 -23.5t-74 22q-36 25 -36 65q0 15 15 15t15 -15q0 -48 77 -48q29 0 52 10q31 13 31 38q0 15 15 15t15 -15z" />
    <glyph glyph-name="Uni012E" unicode="&#x12e;" horiz-adv-x="172" 
d="M132 641q0 -1 -9 -17q-4 -8 -8 -53q-22 -205 -22 -379q0 -143 30 -187q-19 -13 -30 -13q-43 0 -52 70q-8 62 -8 88l7 474q0 14 19 30t33 16q9 0 24.5 -10.5t15.5 -18.5zM155 -171q0 -15 -26 -26q-21 -8 -39 -8q-34 0 -57.5 24.5t-23.5 58.5q0 52 57 107q8 8 16 8
q13 0 13 -13q0 -7 -21 -40.5t-21 -56.5q0 -20 14 -39t33 -19q12 0 23.5 9.5t16.5 9.5q15 0 15 -15z" />
    <glyph glyph-name="Uni012F" unicode="&#x12f;" horiz-adv-x="141" 
d="M116 541q0 -34 -32 -34q-19 0 -35 14t-16 32q0 34 34 34q20 0 34.5 -13t14.5 -33zM97 391q0 -18 -8 -54t-8 -54v-221q0 -22 9 -60q-4 -8 -11 -8q-49 0 -49 47v367q13 7 25 7t25 -7q17 -7 17 -17zM146 -169q0 -15 -26 -26q-21 -8 -39 -8q-34 0 -57.5 24.5t-23.5 58.5
q0 52 57 107q8 8 16 8q13 0 13 -13q0 -7 -21 -40.5t-21 -56.5q0 -20 14 -39t33 -19q12 0 23.5 9.5t16.5 9.5q15 0 15 -15z" />
    <glyph glyph-name="Idotaccent" unicode="&#x130;" horiz-adv-x="172" 
d="M132 641q0 -1 -9 -17q-4 -8 -8 -53q-22 -205 -22 -379q0 -143 30 -187q-19 -13 -30 -13q-43 0 -52 70q-8 62 -8 88l7 474q0 14 19 30t33 16q9 0 24.5 -10.5t15.5 -18.5zM122 753q0 -17 -11.5 -29.5t-28.5 -12.5t-28.5 12.5t-11.5 29.5q0 16 11.5 28.5t28.5 12.5
t28.5 -12.5t11.5 -28.5z" />
    <glyph glyph-name="dotlessi" unicode="&#x131;" horiz-adv-x="107" 
d="M87 391q0 -18 -8 -54t-8 -54v-221q0 -22 9 -60q-4 -8 -11 -8q-49 0 -49 47v367q13 7 25 7t25 -7q17 -7 17 -17z" />
    <glyph glyph-name="IJ" unicode="&#x132;" horiz-adv-x="591" 
d="M132 641q0 -1 -9 -17q-4 -8 -8 -53q-22 -205 -22 -379q0 -143 30 -187q-19 -13 -30 -13q-43 0 -52 70q-8 62 -8 88l7 474q0 14 19 30t33 16q9 0 24.5 -10.5t15.5 -18.5zM641 636q0 -17 -20 -17q-6 0 -18 1.5t-18 1.5q-48 0 -48 -30q0 -8 1.5 -23t1.5 -23q0 -171 -14 -294
q-13 -111 -35 -167q-40 -97 -121 -97q-69 0 -126 81q-52 74 -52 146q0 82 28 82q45 0 45 -76q0 -12 -1 -34.5t-1 -33.5q0 -37 32 -75t69 -38q112 0 112 332q0 231 1 214l-2 2q-28 -1 -80 -30t-56 -29q-12 0 -19 12.5t-7 24.5q0 17 22 27q18 7 72 22q45 13 70 28l2 3
q4 31 27 31q6 0 18.5 -9t18.5 -9q9 0 25.5 4.5t25.5 4.5q15 0 31 -9.5t16 -22.5z" />
    <glyph glyph-name="ij" unicode="&#x133;" horiz-adv-x="319" 
d="M116 541q0 -34 -32 -34q-19 0 -35 14t-16 32q0 34 34 34q20 0 34.5 -13t14.5 -33zM97 391q0 -18 -8 -54t-8 -54v-221q0 -22 9 -60q-4 -8 -11 -8q-49 0 -49 47v367q13 7 25 7t25 -7q17 -7 17 -17zM294 493q0 -14 -12.5 -24t-26.5 -10q-15 0 -43 36v14q0 30 30 30
q20 0 36 -13t16 -33zM288 391q-17 -50 -17 -93q0 -68 3 -203.5t3 -203.5q0 -66 -32 -116q-38 -58 -100 -58q-33 0 -96 29q-70 31 -70 59q0 17 21 17q7 0 10 -1q46 -56 114 -56q104 0 104 181q0 5 -7 439l8 9q31 8 35 8q13 0 24 -11z" />
    <glyph glyph-name="Jcircumflex" unicode="&#x134;" horiz-adv-x="419" 
d="M469 636q0 -17 -20 -17q-6 0 -18 1.5t-18 1.5q-48 0 -48 -30q0 -8 1.5 -23t1.5 -23q0 -171 -14 -294q-13 -111 -35 -167q-40 -97 -121 -97q-69 0 -126 81q-52 74 -52 146q0 82 28 82q45 0 45 -76q0 -12 -1 -34.5t-1 -33.5q0 -37 32 -75t69 -38q112 0 112 332q0 231 1 214
l-2 2q-28 -1 -80 -30t-56 -29q-12 0 -19 12.5t-7 24.5q0 17 22 27q18 7 72 22q45 13 70 28l2 3q4 31 27 31q6 0 18.5 -9t18.5 -9q9 0 25.5 4.5t25.5 4.5q15 0 31 -9.5t16 -22.5zM368 737q0 -4 -4.5 -12t-7.5 -8q-19 0 -62 40q-13 12 -25 16q-17 7 -25 11q-14 -3 -50 -27
q-43 -40 -62 -40q-3 0 -7.5 8t-4.5 12l1 5q111 100 123 100q11 0 123 -100z" />
    <glyph glyph-name="Kcommaaccent" unicode="&#x136;" horiz-adv-x="491" 
d="M531 66q0 -21 -28 -36q-24 -14 -46 -14q-83 0 -165 114q-36 51 -106 189q-30 -34 -64 -85q-44 -65 -44 -91q0 -105 23 -144l2 -17q-11 -13 -24 -13q-22 0 -35 31q-7 16 -17 70.5t-9 72.5l18 489q0 4 -1.5 9.5t-1.5 8.5q0 37 28 37q15 0 39 -15t24 -29q0 -6 -7 -9
q-10 -5 -11 -6q-8 -7 -12 -45q-19 -208 -19 -314l5 -5q160 217 170 230q139 177 184 177q6 0 10 -1q1 -3 17 -24q11 -15 11 -26q0 -14 -12 -14q-2 0 -12 2.5t-12 2.5q-18 0 -95 -85q-73 -82 -85 -109q-10 -22 -10 -38q0 -70 71 -189q76 -128 138 -128q11 0 30 9t29 9
q17 0 17 -14zM346 -68q-75 -165 -95 -165q-14 0 -49 14l1 8q70 65 89 176q9 4 12 4q9 0 24 -13.5t18 -23.5z" />
    <glyph glyph-name="kcommaaccent" unicode="&#x137;" horiz-adv-x="381" 
d="M376 -39q-25 -20 -40 -20q-22 0 -76 63q-68 81 -72 85q-12 10 -42 47q-26 31 -46 43l-18 -24v-99q0 -9 6.5 -25.5t6.5 -25.5q0 -6 -8.5 -11.5t-15.5 -5.5q-40 0 -40 43v140q0 13 3.5 38.5t3.5 38.5v276q0 59 -5 93q0 5 -5 22q-3 14 -3 23q0 10 15.5 20t27.5 10
q9 0 19.5 -5.5t10.5 -13.5q0 -1 -5 -24q-7 -27 -7 -105l-4 -290l5 -5q32 20 88 74l70 72q57 58 67 58q15 0 24 -13.5t8 -28.5l-1 -5q-38 -25 -112 -90q-85 -75 -85 -99q0 -9 30 -45q47 -55 93 -110q63 -69 107 -90v-11zM272 -95q-75 -165 -95 -165q-14 0 -49 14l1 8
q70 65 89 176q9 4 12 4q9 0 24 -13.5t18 -23.5z" />
    <glyph glyph-name="Lacute" unicode="&#x139;" horiz-adv-x="379" 
d="M369 22q-92 -35 -208 -35q-86 0 -118 67q-23 47 -23 144q0 62 9.5 185t9.5 184q0 13 -2 38t-2 38q0 10 1 21q11 13 30 13q35 0 35 -82q0 -71 -13 -213t-13 -213q0 -135 90 -135q30 0 84.5 17t84.5 17q16 0 25.5 -14.5t9.5 -31.5zM272 811l-2 -7q-10 -2 -28 -9
q-24 -11 -52 -38q-41 -40 -62 -40q-3 0 -7.5 8t-4.5 12l1 5q102 109 124 109q9 0 20 -15.5t11 -24.5z" />
    <glyph glyph-name="lacute" unicode="&#x13a;" horiz-adv-x="124" 
d="M99 10q0 -26 -28 -26q-44 0 -43 181l3 449q0 11 -3 31.5t-3 30.5q19 14 32 14q14 0 28 -10t14 -24q0 -10 -5 -26q-6 -20 -7 -25q-12 -68 -12 -190q0 -197 -1 -190q3 -123 16 -185q0 -3 4.5 -13.5t4.5 -16.5zM140 824l-2 -7q-10 -2 -28 -9q-24 -11 -52 -38
q-41 -40 -62 -40q-3 0 -7.5 8t-4.5 12l1 5q102 109 124 109q9 0 20 -15.5t11 -24.5z" />
    <glyph glyph-name="Lcommaaccent" unicode="&#x13b;" horiz-adv-x="379" 
d="M369 22q-92 -35 -208 -35q-86 0 -118 67q-23 47 -23 144q0 62 9.5 185t9.5 184q0 13 -2 38t-2 38q0 10 1 21q11 13 30 13q35 0 35 -82q0 -71 -13 -213t-13 -213q0 -135 90 -135q30 0 84.5 17t84.5 17q16 0 25.5 -14.5t9.5 -31.5zM266 -50q-75 -165 -95 -165q-14 0 -49 14
l1 8q70 65 89 176q9 4 12 4q9 0 24 -13.5t18 -23.5z" />
    <glyph glyph-name="lcommaaccent" unicode="&#x13c;" horiz-adv-x="124" 
d="M99 10q0 -26 -28 -26q-44 0 -43 181l3 449q0 11 -3 31.5t-3 30.5q19 14 32 14q14 0 28 -10t14 -24q0 -10 -5 -26q-6 -20 -7 -25q-12 -68 -12 -190q0 -197 -1 -190q3 -123 16 -185q0 -3 4.5 -13.5t4.5 -16.5zM134 -53q-75 -165 -95 -165q-14 0 -49 14l1 8q70 65 89 176
q9 4 12 4q9 0 24 -13.5t18 -23.5z" />
    <glyph glyph-name="Lcaron" unicode="&#x13d;" horiz-adv-x="379" 
d="M369 22q-92 -35 -208 -35q-86 0 -118 67q-23 47 -23 144q0 62 9.5 185t9.5 184q0 13 -2 38t-2 38q0 10 1 21q11 13 30 13q35 0 35 -82q0 -71 -13 -213t-13 -213q0 -135 90 -135q30 0 84.5 17t84.5 17q16 0 25.5 -14.5t9.5 -31.5zM318 822l-1 -5q-111 -100 -123 -100
t-123 100l-1 5q0 4 4.5 11.5t7.5 7.5q19 0 62 -39q13 -12 25 -17q17 -6 25 -10q14 3 50 27q43 39 62 39q3 0 7.5 -7.5t4.5 -11.5z" />
    <glyph glyph-name="lcaron" unicode="&#x13e;" horiz-adv-x="124" 
d="M99 10q0 -26 -28 -26q-44 0 -43 181l3 449q0 11 -3 31.5t-3 30.5q19 14 32 14q14 0 28 -10t14 -24q0 -10 -5 -26q-6 -20 -7 -25q-12 -68 -12 -190q0 -197 -1 -190q3 -123 16 -185q0 -3 4.5 -13.5t4.5 -16.5zM186 835l-1 -5q-111 -100 -123 -100t-123 100l-1 5
q0 4 4.5 11.5t7.5 7.5q19 0 62 -39q13 -12 25 -17q17 -6 25 -10q14 3 50 27q43 39 62 39q3 0 7.5 -7.5t4.5 -11.5z" />
    <glyph glyph-name="u013F" unicode="&#x13f;" horiz-adv-x="379" 
d="M369 22q-92 -35 -208 -35q-86 0 -118 67q-23 47 -23 144q0 62 9.5 185t9.5 184q0 13 -2 38t-2 38q0 10 1 21q11 13 30 13q35 0 35 -82q0 -71 -13 -213t-13 -213q0 -135 90 -135q30 0 84.5 17t84.5 17q16 0 25.5 -14.5t9.5 -31.5zM239 331q0 -17 -11.5 -29.5t-28.5 -12.5
t-28.5 12.5t-11.5 29.5q0 16 11.5 28.5t28.5 12.5t28.5 -12.5t11.5 -28.5z" />
    <glyph glyph-name="u0140" unicode="&#x140;" horiz-adv-x="225" 
d="M99 10q0 -26 -28 -26q-44 0 -43 181l3 449q0 11 -3 31.5t-3 30.5q19 14 32 14q14 0 28 -10t14 -24q0 -10 -5 -26q-6 -20 -7 -25q-12 -68 -12 -190q0 -197 -1 -190q3 -123 16 -185q0 -3 4.5 -13.5t4.5 -16.5zM215 330q0 -17 -11.5 -29.5t-28.5 -12.5t-28.5 12.5
t-11.5 29.5q0 16 11.5 28.5t28.5 12.5t28.5 -12.5t11.5 -28.5z" />
    <glyph glyph-name="Lslash" unicode="&#x141;" horiz-adv-x="418" 
d="M408 22q-93 -35 -208 -35q-37 0 -63.5 11.5t-44 36.5t-25.5 65t-8 98q0 16 0.5 36t1.5 44q-6 -9 -13.5 -18t-17.5 -9q-6 0 -13 5t-13 12.5t-10.5 14.5t-4.5 12q0 4 9 10.5t21.5 14t25.5 14.5t20 11l3 38q5 62 7.5 107.5t2.5 76.5q0 6 -0.5 16.5t-1.5 21.5t-1.5 21.5
t-0.5 16.5q0 20 7 27t24 7q35 0 35 -82q0 -58 -7 -111.5t-7 -105.5q16 9 36 20t40.5 21.5t41 17.5t37.5 7q20 0 32 -12.5t12 -26.5q0 -10 -4.5 -10t-24 -3.5t-61 -17t-114.5 -50.5q-4 -50 -5.5 -88.5t-1.5 -66.5q0 -135 90 -135q13 0 36 5.5t48.5 11.5t48.5 11.5t36 5.5
q16 0 25.5 -14.5t9.5 -31.5z" />
    <glyph glyph-name="lslash" unicode="&#x142;" horiz-adv-x="258" 
d="M175 10q0 -26 -28 -26q-16 0 -25 22t-14 64.5t-6.5 105.5t-1.5 145q0 14 0.5 27t0.5 27q-8 -5 -18 -14t-20.5 -18t-19.5 -16t-15 -7t-12.5 5.5t-12.5 13t-9.5 15t-3.5 12.5t15.5 14t35 18.5t37.5 17t24 10.5q1 48 3 94t2 94q0 12 -3 32t-3 30q20 14 32 14q14 0 28 -10
t14 -24q0 -4 -3 -13.5t-9 -37.5q-7 -29 -9 -68t-3 -90q37 15 50 18.5t21 3.5q20 0 33.5 -12t13.5 -30q0 -4 -4.5 -8.5t-12.5 -4.5q-13 0 -23 2t-13 2q-5 0 -17 -4t-48 -18q0 -171 -1 -171q2 -63 5.5 -108.5t10.5 -76.5q0 -3 4.5 -13.5t4.5 -16.5z" />
    <glyph glyph-name="Nacute" unicode="&#x143;" horiz-adv-x="456" 
d="M476 672q1 -9 -9 -13t-19 -8q-14 -8 -25 -90q-9 -65 -9 -104l-3 -303q-1 -40 -17 -87q-21 -60 -53 -60q-49 0 -91 91q-17 36 -47.5 136.5t-90.5 301.5q-11 -2 -12 -20q-2 -27 -16 -140q-11 -86 -11 -140q0 -161 20 -186q11 -16 11 -18q0 -11 -14.5 -21t-25.5 -10
q-40 0 -40 131q0 18 -2 51t-2 51q0 43 13 131.5t13 132.5v129q0 2 -1.5 6.5t-1.5 6.5q0 26 51 26q42 0 58 -26q4 -7 8 -44q3 -24 6 -49q13 -80 72 -263q69 -212 100 -212q27 0 26 107l-3 300q0 53 19 118q25 85 65 85q15 0 31 -10zM326 816l-2 -7q-10 -2 -28 -9
q-24 -11 -52 -38q-41 -40 -62 -40q-3 0 -7.5 8t-4.5 12l1 5q102 109 124 109q9 0 20 -15.5t11 -24.5z" />
    <glyph glyph-name="nacute" unicode="&#x144;" 
d="M342 -5q-6 -11 -17 -11t-36 14v8q0 9 1 27t1 26q0 332 -83 332q-26 0 -56 -38q-76 -94 -76 -237q0 -19 6.5 -55.5t6.5 -55.5q0 -15 -21 -15q-40 0 -40 63v227q0 9 2 26t2 26q0 13 -3.5 38t-3.5 37q0 8 12.5 18.5t19.5 10.5q13 0 24 -14q-3 -65 -3 -76q0 -15 1 -29
q9 3 24 33q19 38 32 52q24 28 55 28q12 0 36 -9q54 -20 77 -66q39 -79 39 -209v-151zM261 571l-2 -7q-10 -2 -28 -9q-24 -11 -52 -38q-41 -40 -62 -40q-3 0 -7.5 8t-4.5 12l1 5q102 109 124 109q9 0 20 -15.5t11 -24.5z" />
    <glyph glyph-name="Ncommaaccent" unicode="&#x145;" horiz-adv-x="456" 
d="M476 672q1 -9 -9 -13t-19 -8q-14 -8 -25 -90q-9 -65 -9 -104l-3 -303q-1 -40 -17 -87q-21 -60 -53 -60q-49 0 -91 91q-17 36 -47.5 136.5t-90.5 301.5q-11 -2 -12 -20q-2 -27 -16 -140q-11 -86 -11 -140q0 -161 20 -186q11 -16 11 -18q0 -11 -14.5 -21t-25.5 -10
q-40 0 -40 131q0 18 -2 51t-2 51q0 43 13 131.5t13 132.5v129q0 2 -1.5 6.5t-1.5 6.5q0 26 51 26q42 0 58 -26q4 -7 8 -44q3 -24 6 -49q13 -80 72 -263q69 -212 100 -212q27 0 26 107l-3 300q0 53 19 118q25 85 65 85q15 0 31 -10zM320 -36q-75 -165 -95 -165q-14 0 -49 14
l1 8q70 65 89 176q9 4 12 4q9 0 24 -13.5t18 -23.5z" />
    <glyph glyph-name="ncedilla" unicode="&#x146;" 
d="M342 -5q-6 -11 -17 -11t-36 14v8q0 9 1 27t1 26q0 332 -83 332q-26 0 -56 -38q-76 -94 -76 -237q0 -19 6.5 -55.5t6.5 -55.5q0 -15 -21 -15q-40 0 -40 63v227q0 9 2 26t2 26q0 13 -3.5 38t-3.5 37q0 8 12.5 18.5t19.5 10.5q13 0 24 -14q-3 -65 -3 -76q0 -15 1 -29
q9 3 24 33q19 38 32 52q24 28 55 28q12 0 36 -9q54 -20 77 -66q39 -79 39 -209v-151zM255 -53q-75 -165 -95 -165q-14 0 -49 14l1 8q70 65 89 176q9 4 12 4q9 0 24 -13.5t18 -23.5z" />
    <glyph glyph-name="Ncaron" unicode="&#x147;" horiz-adv-x="456" 
d="M476 672q1 -9 -9 -13t-19 -8q-14 -8 -25 -90q-9 -65 -9 -104l-3 -303q-1 -40 -17 -87q-21 -60 -53 -60q-49 0 -91 91q-17 36 -47.5 136.5t-90.5 301.5q-11 -2 -12 -20q-2 -27 -16 -140q-11 -86 -11 -140q0 -161 20 -186q11 -16 11 -18q0 -11 -14.5 -21t-25.5 -10
q-40 0 -40 131q0 18 -2 51t-2 51q0 43 13 131.5t13 132.5v129q0 2 -1.5 6.5t-1.5 6.5q0 26 51 26q42 0 58 -26q4 -7 8 -44q3 -24 6 -49q13 -80 72 -263q69 -212 100 -212q27 0 26 107l-3 300q0 53 19 118q25 85 65 85q15 0 31 -10zM372 827l-1 -5q-111 -100 -123 -100
t-123 100l-1 5q0 4 4.5 11.5t7.5 7.5q19 0 62 -39q13 -12 25 -17q17 -6 25 -10q14 3 50 27q43 39 62 39q3 0 7.5 -7.5t4.5 -11.5z" />
    <glyph glyph-name="ncaron" unicode="&#x148;" 
d="M342 -5q-6 -11 -17 -11t-36 14v8q0 9 1 27t1 26q0 332 -83 332q-26 0 -56 -38q-76 -94 -76 -237q0 -19 6.5 -55.5t6.5 -55.5q0 -15 -21 -15q-40 0 -40 63v227q0 9 2 26t2 26q0 13 -3.5 38t-3.5 37q0 8 12.5 18.5t19.5 10.5q13 0 24 -14q-3 -65 -3 -76q0 -15 1 -29
q9 3 24 33q19 38 32 52q24 28 55 28q12 0 36 -9q54 -20 77 -66q39 -79 39 -209v-151zM307 582l-1 -5q-111 -100 -123 -100t-123 100l-1 5q0 4 4.5 11.5t7.5 7.5q19 0 62 -39q13 -12 25 -17q17 -6 25 -10q14 3 50 27q43 39 62 39q3 0 7.5 -7.5t4.5 -11.5z" />
    <glyph glyph-name="napostrophe" unicode="&#x149;" horiz-adv-x="545" 
d="M50 680q0 12 8 23t35 11q18 0 32 -11.5t19 -38.5q7 -42 5.5 -72.5t-20.5 -62.5q-17 -29 -37 -46.5t-40 -17.5q-16 0 -18 13.5t12 25.5q17 15 35.5 28t28.5 37q8 20 0 42.5t-25 33.5t-26 17.5t-9 17.5zM520 -5q-6 -11 -17 -11t-36 14v8q0 9 1 27t1 26q0 332 -83 332
q-26 0 -56 -38q-76 -94 -76 -237q0 -19 6.5 -55.5t6.5 -55.5q0 -15 -21 -15q-40 0 -40 63v227q0 9 2 26t2 26q0 13 -3.5 38t-3.5 37q0 8 12.5 18.5t19.5 10.5q13 0 24 -14q-3 -65 -3 -76q0 -15 1 -29q9 3 24 33q19 38 32 52q24 28 55 28q12 0 36 -9q54 -20 77 -66
q39 -79 39 -209v-151z" />
    <glyph glyph-name="Omacron" unicode="&#x14c;" horiz-adv-x="572" 
d="M536 339q0 -141 -63 -245q-74 -122 -205 -122q-33 0 -77 15q-167 53 -167 300q0 144 64 259q76 138 209 138q116 0 183 -119q56 -99 56 -226zM480 348q0 222 -148 272q-16 6 -28 6q-64 0 -126 -59q-105 -100 -105 -309q0 -19 8 -60q17 -86 56 -128q46 -48 129 -48
q114 0 170 113q44 87 44 213zM173 731q-1 3 -1 10q0 5 1 10.5t5 8.5q27 3 75.5 6t100.5 3q22 0 28 -5.5t6 -16.5q0 -20 -19 -20q-17 0 -43.5 1t-50.5 1t-39.5 -1t-25.5 -2t-15.5 -2t-9.5 -1q-10 0 -12 8z" />
    <glyph glyph-name="omacron" unicode="&#x14d;" 
d="M342 197q0 -86 -38 -150q-45 -77 -125 -77q-81 0 -121 63q-33 52 -33 138q0 85 38 167q48 101 122 101q19 0 54 -22q103 -64 103 -220zM294 198q0 64 -17 115q-25 71 -77 71q-60 0 -94 -79q-26 -61 -26 -131q0 -63 18 -106q26 -59 81 -59q60 0 91 68q24 53 24 121z
M76 487q-1 3 -1 10q0 5 1 10.5t5 8.5q27 3 75.5 6t100.5 3q22 0 28 -5.5t6 -16.5q0 -20 -19 -20q-17 0 -43.5 1t-50.5 1t-39.5 -1t-25.5 -2t-15.5 -2t-9.5 -1q-10 0 -12 8z" />
    <glyph glyph-name="Obreve" unicode="&#x14e;" horiz-adv-x="572" 
d="M536 339q0 -141 -63 -245q-74 -122 -205 -122q-33 0 -77 15q-167 53 -167 300q0 144 64 259q76 138 209 138q116 0 183 -119q56 -99 56 -226zM480 348q0 222 -148 272q-16 6 -28 6q-64 0 -126 -59q-105 -100 -105 -309q0 -19 8 -60q17 -86 56 -128q46 -48 129 -48
q114 0 170 113q44 87 44 213zM390 811q0 -40 -34.5 -63.5t-75.5 -23.5t-74 22q-36 25 -36 65q0 15 15 15t15 -15q0 -48 77 -48q29 0 52 10q31 13 31 38q0 15 15 15t15 -15z" />
    <glyph glyph-name="obreve" unicode="&#x14f;" 
d="M342 197q0 -86 -38 -150q-45 -77 -125 -77q-81 0 -121 63q-33 52 -33 138q0 85 38 167q48 101 122 101q19 0 54 -22q103 -64 103 -220zM294 198q0 64 -17 115q-25 71 -77 71q-60 0 -94 -79q-26 -61 -26 -131q0 -63 18 -106q26 -59 81 -59q60 0 91 68q24 53 24 121z
M293 567q0 -40 -34.5 -63.5t-75.5 -23.5t-74 22q-36 25 -36 65q0 15 15 15t15 -15q0 -48 77 -48q29 0 52 10q31 13 31 38q0 15 15 15t15 -15z" />
    <glyph glyph-name="Ohungarumlaut" unicode="&#x150;" horiz-adv-x="572" 
d="M536 339q0 -141 -63 -245q-74 -122 -205 -122q-33 0 -77 15q-167 53 -167 300q0 144 64 259q76 138 209 138q116 0 183 -119q56 -99 56 -226zM480 348q0 222 -148 272q-16 6 -28 6q-64 0 -126 -59q-105 -100 -105 -309q0 -19 8 -60q17 -86 56 -128q46 -48 129 -48
q114 0 170 113q44 87 44 213zM356 824q0 -9 -26 -52q-29 -46 -42 -46q-15 0 -15 15q0 7 7.5 13t28.5 49q18 36 32 36q15 0 15 -15zM277 824q0 -12 -24.5 -56t-34.5 -44q-15 0 -15 15q0 8 6 12l24 50q19 38 29 38q15 0 15 -15z" />
    <glyph glyph-name="ohungarumlaut" unicode="&#x151;" 
d="M342 197q0 -86 -38 -150q-45 -77 -125 -77q-81 0 -121 63q-33 52 -33 138q0 85 38 167q48 101 122 101q19 0 54 -22q103 -64 103 -220zM294 198q0 64 -17 115q-25 71 -77 71q-60 0 -94 -79q-26 -61 -26 -131q0 -63 18 -106q26 -59 81 -59q60 0 91 68q24 53 24 121z
M259 580q0 -9 -26 -52q-29 -46 -42 -46q-15 0 -15 15q0 7 7.5 13t28.5 49q18 36 32 36q15 0 15 -15zM180 580q0 -12 -24.5 -56t-34.5 -44q-15 0 -15 15q0 8 6 12l24 50q19 38 29 38q15 0 15 -15z" />
    <glyph glyph-name="OE" unicode="&#x152;" horiz-adv-x="845" 
d="M825 42q-5 -11 -12 -11q-4 0 -12 1.5t-12 1.5q-40 0 -114 -27.5t-115 -27.5q-84 0 -118 84q-70 -81 -178 -81q-31 0 -77 15q-167 51 -167 290q0 144 64 259q76 138 209 138q83 0 142 -63q11 12 25 13q36 4 136 30q89 23 131 23q57 0 92 -42q-11 -11 -25 -11
q-6 0 -18.5 1.5t-18.5 1.5q-46 0 -142 -19q-106 -22 -130 -42q-11 -133 -15 -254q5 -3 14 -3q31 0 92 14t92 14q25 0 51 -13l8 -30q1 -5 -26 -14q-14 9 -36 9q-31 0 -100 -11q-73 -12 -95 -22q-1 -5 -1 -11q0 -13 1.5 -40.5t1.5 -41.5q0 -145 76 -145q34 0 96.5 25t96.5 25
q64 0 84 -36zM430 548q-60 88 -130 88q-64 0 -127 -60q-101 -96 -101 -275q0 -113 38 -186q49 -93 152 -93q99 0 132 51q25 39 25 143q0 225 11 332z" />
    <glyph glyph-name="oe" unicode="&#x153;" horiz-adv-x="602" 
d="M582 99q0 -44 -60 -79q-53 -32 -100 -32q-86 0 -117 69q-44 -87 -131 -87q-81 0 -121 63q-33 52 -33 138q0 85 38 167q48 101 122 101q45 0 82 -34q33 -29 51 -75q13 39 37 66q29 33 65 33q62 0 108 -41t46 -102q0 -63 -50 -111t-113 -48q-11 0 -38 12t-31 21
q-10 1 -10 -7q0 -3 2.5 -8.5t2.5 -8.5q0 -41 22 -72q24 -35 64 -35q39 0 71 26q20 15 44 47q19 25 25 25q24 0 24 -28zM519 289q0 33 -23.5 61.5t-55.5 28.5q-43 0 -61 -19q-42 -45 -42 -110q0 -32 25 -54t57 -22q42 0 72 38q28 35 28 77zM289 198q0 64 -17 115
q-25 71 -77 71q-60 0 -94 -79q-26 -61 -26 -131q0 -63 18 -106q26 -59 81 -59q60 0 91 68q24 53 24 121z" />
    <glyph glyph-name="Uni0154" unicode="&#x154;" horiz-adv-x="550" 
d="M530 5v-5q-6 -10 -17 -10q-14 0 -18 5q-8 41 -135 130.5t-172 89.5h-57v-62q0 -13 7 -60q6 -50 10 -55q17 -27 17 -25q0 -23 -26 -23q-29 0 -44 21t-15 196q0 14 -35 25t-35 26q0 22 64 40q7 36 9 96q4 75 6 97q1 11 9 60q7 37 6 61q-5 3 -26.5 3t-21.5 17q0 21 20 26
q14 4 29 8q3 10 13 22q9 3 16 3q11 0 22.5 -11t20.5 -11q5 0 14 1.5t14 1.5q111 0 187 -46q93 -54 93 -158q0 -86 -51 -140q-32 -35 -124 -85q-6 -1 -14 -5q20 -19 90 -65t100 -75q46 -46 44 -93zM433 472q0 76 -69 117q-57 34 -138 34q-29 0 -48 -4l-13 -20
q-14 -23 -16 -61q-2 -55 -4 -65q-12 -57 -16 -181q74 -28 92 -28q14 0 40 8q74 22 120 73q52 55 52 127zM349 825l-2 -7q-10 -2 -28 -9q-24 -11 -52 -38q-41 -40 -62 -40q-3 0 -7.5 8t-4.5 12l1 5q102 109 124 109q9 0 20 -15.5t11 -24.5z" />
    <glyph glyph-name="Uni0155" unicode="&#x155;" horiz-adv-x="272" 
d="M247 356q0 -4 -1 -17q-13 -20 -25 -20q-8 0 -14 10q-3 63 -52 63q-32 0 -63 -118q-12 -43 -12 -115q0 -92 5 -113q1 -3 5 -12.5t4 -14.5q0 -22 -30 -22q-34 0 -34 35q0 5 2.5 14.5t2.5 14.5q0 55 -5 165t-5 165q0 20 7 24.5t27 4.5q25 0 29 -18q1 -20 2 -39q26 40 30 45
q22 25 46 25q18 0 36 -11q10 -6 27.5 -31t17.5 -35zM214 568l-2 -7q-10 -2 -28 -9q-24 -11 -52 -38q-41 -40 -62 -40q-3 0 -7.5 8t-4.5 12l1 5q102 109 124 109q9 0 20 -15.5t11 -24.5z" />
    <glyph glyph-name="Rcommaaccent" unicode="&#x156;" horiz-adv-x="550" 
d="M530 5v-5q-6 -10 -17 -10q-14 0 -18 5q-8 41 -135 130.5t-172 89.5h-57v-62q0 -13 7 -60q6 -50 10 -55q17 -27 17 -25q0 -23 -26 -23q-29 0 -44 21t-15 196q0 14 -35 25t-35 26q0 22 64 40q7 36 9 96q4 75 6 97q1 11 9 60q7 37 6 61q-5 3 -26.5 3t-21.5 17q0 21 20 26
q14 4 29 8q3 10 13 22q9 3 16 3q11 0 22.5 -11t20.5 -11q5 0 14 1.5t14 1.5q111 0 187 -46q93 -54 93 -158q0 -86 -51 -140q-32 -35 -124 -85q-6 -1 -14 -5q20 -19 90 -65t100 -75q46 -46 44 -93zM433 472q0 76 -69 117q-57 34 -138 34q-29 0 -48 -4l-13 -20
q-14 -23 -16 -61q-2 -55 -4 -65q-12 -57 -16 -181q74 -28 92 -28q14 0 40 8q74 22 120 73q52 55 52 127zM343 -47q-75 -165 -95 -165q-14 0 -49 14l1 8q70 65 89 176q9 4 12 4q9 0 24 -13.5t18 -23.5z" />
    <glyph glyph-name="rcommaaccent" unicode="&#x157;" horiz-adv-x="272" 
d="M247 356q0 -4 -1 -17q-13 -20 -25 -20q-8 0 -14 10q-3 63 -52 63q-32 0 -63 -118q-12 -43 -12 -115q0 -92 5 -113q1 -3 5 -12.5t4 -14.5q0 -22 -30 -22q-34 0 -34 35q0 5 2.5 14.5t2.5 14.5q0 55 -5 165t-5 165q0 20 7 24.5t27 4.5q25 0 29 -18q1 -20 2 -39q26 40 30 45
q22 25 46 25q18 0 36 -11q10 -6 27.5 -31t17.5 -35zM208 -40q-75 -165 -95 -165q-14 0 -49 14l1 8q70 65 89 176q9 4 12 4q9 0 24 -13.5t18 -23.5z" />
    <glyph glyph-name="Rcaron" unicode="&#x158;" horiz-adv-x="550" 
d="M530 5v-5q-6 -10 -17 -10q-14 0 -18 5q-8 41 -135 130.5t-172 89.5h-57v-62q0 -13 7 -60q6 -50 10 -55q17 -27 17 -25q0 -23 -26 -23q-29 0 -44 21t-15 196q0 14 -35 25t-35 26q0 22 64 40q7 36 9 96q4 75 6 97q1 11 9 60q7 37 6 61q-5 3 -26.5 3t-21.5 17q0 21 20 26
q14 4 29 8q3 10 13 22q9 3 16 3q11 0 22.5 -11t20.5 -11q5 0 14 1.5t14 1.5q111 0 187 -46q93 -54 93 -158q0 -86 -51 -140q-32 -35 -124 -85q-6 -1 -14 -5q20 -19 90 -65t100 -75q46 -46 44 -93zM433 472q0 76 -69 117q-57 34 -138 34q-29 0 -48 -4l-13 -20
q-14 -23 -16 -61q-2 -55 -4 -65q-12 -57 -16 -181q74 -28 92 -28q14 0 40 8q74 22 120 73q52 55 52 127zM395 836l-1 -5q-111 -100 -123 -100t-123 100l-1 5q0 4 4.5 11.5t7.5 7.5q19 0 62 -39q13 -12 25 -17q17 -6 25 -10q14 3 50 27q43 39 62 39q3 0 7.5 -7.5t4.5 -11.5z
" />
    <glyph glyph-name="Uni0159" unicode="&#x159;" horiz-adv-x="272" 
d="M247 356q0 -4 -1 -17q-13 -20 -25 -20q-8 0 -14 10q-3 63 -52 63q-32 0 -63 -118q-12 -43 -12 -115q0 -92 5 -113q1 -3 5 -12.5t4 -14.5q0 -22 -30 -22q-34 0 -34 35q0 5 2.5 14.5t2.5 14.5q0 55 -5 165t-5 165q0 20 7 24.5t27 4.5q25 0 29 -18q1 -20 2 -39q26 40 30 45
q22 25 46 25q18 0 36 -11q10 -6 27.5 -31t17.5 -35zM260 579l-1 -5q-111 -100 -123 -100t-123 100l-1 5q0 4 4.5 11.5t7.5 7.5q19 0 62 -39q13 -12 25 -17q17 -6 25 -10q14 3 50 27q43 39 62 39q3 0 7.5 -7.5t4.5 -11.5z" />
    <glyph glyph-name="Sacute" unicode="&#x15a;" horiz-adv-x="449" 
d="M429 85q0 -56 -70 -86q-56 -24 -120 -24q-59 0 -129 24q-90 31 -90 77q0 25 24 25q19 0 44 -22q35 -33 38 -35q38 -25 123 -25q114 0 114 60q0 28 -49 69q-8 6 -75 54q-107 76 -135 106q-63 67 -63 156q0 82 47 150q52 76 131 76q67 0 115 -57q42 -50 55 -121
q1 -24 8 -73l8 -36q0 -80 -39 -80q-10 0 -20.5 11.5t-10.5 21.5q0 14 6 41t6 41q0 69 -22 122q-29 72 -88 72t-98.5 -51.5t-39.5 -112.5q0 -82 86 -156q79 -57 159 -115q85 -62 85 -112zM302 824l-2 -7q-10 -2 -28 -9q-24 -11 -52 -38q-41 -40 -62 -40q-3 0 -7.5 8t-4.5 12
l1 5q102 109 124 109q9 0 20 -15.5t11 -24.5z" />
    <glyph glyph-name="sacute" unicode="&#x15b;" horiz-adv-x="357" 
d="M332 59q0 -35 -53 -59q-44 -19 -85 -19q-27 0 -62 13q-19 8 -61 42q-46 37 -46 51q0 31 37 28h6q2 -30 64 -65q56 -32 90 -32q44 0 44 30q0 18 -54 50q-74 43 -101 69q-55 53 -55 122q0 52 27 99q31 56 78 56q34 0 82 -31.5t56 -63.5q8 -27 8 -63q0 -39 -14 -85
q-9 -7 -21 -7q-7 0 -22 5.5t-15 11.5q0 -4 11 22q8 17 8 62q0 107 -67 107q-35 0 -56 -47q-18 -38 -18 -77q0 -49 57 -95q19 -16 105 -69q57 -35 57 -55zM256 579l-2 -7q-10 -2 -28 -9q-24 -11 -52 -38q-41 -40 -62 -40q-3 0 -7.5 8t-4.5 12l1 5q102 109 124 109
q9 0 20 -15.5t11 -24.5z" />
    <glyph glyph-name="Scircumflex" unicode="&#x15c;" horiz-adv-x="449" 
d="M429 85q0 -56 -70 -86q-56 -24 -120 -24q-59 0 -129 24q-90 31 -90 77q0 25 24 25q19 0 44 -22q35 -33 38 -35q38 -25 123 -25q114 0 114 60q0 28 -49 69q-8 6 -75 54q-107 76 -135 106q-63 67 -63 156q0 82 47 150q52 76 131 76q67 0 115 -57q42 -50 55 -121
q1 -24 8 -73l8 -36q0 -80 -39 -80q-10 0 -20.5 11.5t-10.5 21.5q0 14 6 41t6 41q0 69 -22 122q-29 72 -88 72t-98.5 -51.5t-39.5 -112.5q0 -82 86 -156q79 -57 159 -115q85 -62 85 -112zM348 750q0 -4 -4.5 -12t-7.5 -8q-19 0 -62 40q-13 12 -25 16q-17 7 -25 11
q-14 -3 -50 -27q-43 -40 -62 -40q-3 0 -7.5 8t-4.5 12l1 5q111 100 123 100q11 0 123 -100z" />
    <glyph glyph-name="scircumflex" unicode="&#x15d;" horiz-adv-x="357" 
d="M332 59q0 -35 -53 -59q-44 -19 -85 -19q-27 0 -62 13q-19 8 -61 42q-46 37 -46 51q0 31 37 28h6q2 -30 64 -65q56 -32 90 -32q44 0 44 30q0 18 -54 50q-74 43 -101 69q-55 53 -55 122q0 52 27 99q31 56 78 56q34 0 82 -31.5t56 -63.5q8 -27 8 -63q0 -39 -14 -85
q-9 -7 -21 -7q-7 0 -22 5.5t-15 11.5q0 -4 11 22q8 17 8 62q0 107 -67 107q-35 0 -56 -47q-18 -38 -18 -77q0 -49 57 -95q19 -16 105 -69q57 -35 57 -55zM302 505q0 -4 -4.5 -12t-7.5 -8q-19 0 -62 40q-13 12 -25 16q-17 7 -25 11q-14 -3 -50 -27q-43 -40 -62 -40
q-3 0 -7.5 8t-4.5 12l1 5q111 100 123 100q11 0 123 -100z" />
    <glyph glyph-name="Scedilla" unicode="&#x15e;" horiz-adv-x="449" 
d="M429 85q0 -56 -70 -86q-56 -24 -120 -24q-59 0 -129 24q-90 31 -90 77q0 25 24 25q19 0 44 -22q35 -33 38 -35q38 -25 123 -25q114 0 114 60q0 28 -49 69q-8 6 -75 54q-107 76 -135 106q-63 67 -63 156q0 82 47 150q52 76 131 76q67 0 115 -57q42 -50 55 -121
q1 -24 8 -73l8 -36q0 -80 -39 -80q-10 0 -20.5 11.5t-10.5 21.5q0 14 6 41t6 41q0 69 -22 122q-29 72 -88 72t-98.5 -51.5t-39.5 -112.5q0 -82 86 -156q79 -57 159 -115q85 -62 85 -112zM287 -102q0 -30 -35 -52q-16 -10 -61 -27l-11 28q27 10 41 18q28 15 30 29
q-5 8 -39.5 13.5t-38.5 10.5q-12 3 -12 10q0 10 16 25q23 21 24 22l29 1q-8 -13 -25 -37q45 -8 50 -9q32 -10 32 -32z" />
    <glyph glyph-name="scedilla" unicode="&#x15f;" horiz-adv-x="357" 
d="M332 59q0 -35 -53 -59q-44 -19 -85 -19q-27 0 -62 13q-19 8 -61 42q-46 37 -46 51q0 31 37 28h6q2 -30 64 -65q56 -32 90 -32q44 0 44 30q0 18 -54 50q-74 43 -101 69q-55 53 -55 122q0 52 27 99q31 56 78 56q34 0 82 -31.5t56 -63.5q8 -27 8 -63q0 -39 -14 -85
q-9 -7 -21 -7q-7 0 -22 5.5t-15 11.5q0 -4 11 22q8 17 8 62q0 107 -67 107q-35 0 -56 -47q-18 -38 -18 -77q0 -49 57 -95q19 -16 105 -69q57 -35 57 -55zM241 -96q0 -30 -35 -52q-16 -10 -61 -27l-11 28q27 10 41 18q28 15 30 29q-5 8 -39.5 13.5t-38.5 10.5q-12 3 -12 10
q0 10 16 25q23 21 24 22l29 1q-8 -13 -25 -37q45 -8 50 -9q32 -10 32 -32z" />
    <glyph glyph-name="Scaron" unicode="&#x160;" horiz-adv-x="449" 
d="M429 85q0 -56 -70 -86q-56 -24 -120 -24q-59 0 -129 24q-90 31 -90 77q0 25 24 25q19 0 44 -22q35 -33 38 -35q38 -25 123 -25q114 0 114 60q0 28 -49 69q-8 6 -75 54q-107 76 -135 106q-63 67 -63 156q0 82 47 150q52 76 131 76q67 0 115 -57q42 -50 55 -121
q1 -24 8 -73l8 -36q0 -80 -39 -80q-10 0 -20.5 11.5t-10.5 21.5q0 14 6 41t6 41q0 69 -22 122q-29 72 -88 72t-98.5 -51.5t-39.5 -112.5q0 -82 86 -156q79 -57 159 -115q85 -62 85 -112zM348 835l-1 -5q-111 -100 -123 -100t-123 100l-1 5q0 4 4.5 11.5t7.5 7.5q19 0 62 -39
q13 -12 25 -17q17 -6 25 -10q14 3 50 27q43 39 62 39q3 0 7.5 -7.5t4.5 -11.5z" />
    <glyph glyph-name="scaron" unicode="&#x161;" horiz-adv-x="357" 
d="M332 59q0 -35 -53 -59q-44 -19 -85 -19q-27 0 -62 13q-19 8 -61 42q-46 37 -46 51q0 31 37 28h6q2 -30 64 -65q56 -32 90 -32q44 0 44 30q0 18 -54 50q-74 43 -101 69q-55 53 -55 122q0 52 27 99q31 56 78 56q34 0 82 -31.5t56 -63.5q8 -27 8 -63q0 -39 -14 -85
q-9 -7 -21 -7q-7 0 -22 5.5t-15 11.5q0 -4 11 22q8 17 8 62q0 107 -67 107q-35 0 -56 -47q-18 -38 -18 -77q0 -49 57 -95q19 -16 105 -69q57 -35 57 -55zM302 590l-1 -5q-111 -100 -123 -100t-123 100l-1 5q0 4 4.5 11.5t7.5 7.5q19 0 62 -39q13 -12 25 -17q17 -6 25 -10
q14 3 50 27q43 39 62 39q3 0 7.5 -7.5t4.5 -11.5z" />
    <glyph glyph-name="Tcommaaccent" unicode="&#x162;" horiz-adv-x="474" 
d="M448 624q0 -25 -17 -25q2 0 -22 11q-15 8 -77 8h-45q-24 0 -30 -7.5t-9.5 -34t-11.5 -78.5q-19 -153 -19 -327q0 -129 27 -174q0 -14 -10 -14q-52 0 -66 60q-6 23 -6 100q0 112 4 169q1 27 11 126q8 79 8 126q0 57 1 28q-1 15 -13 15q-18 0 -53.5 -7t-53.5 -7
q-40 0 -52 32q10 17 149 34q116 13 169 13q116 0 116 -48zM303 -93q-75 -165 -95 -165q-14 0 -49 14l1 8q70 65 89 176q9 4 12 4q9 0 24 -13.5t18 -23.5z" />
    <glyph glyph-name="tcommaaccent" unicode="&#x163;" horiz-adv-x="272" 
d="M234 315q-8 -6 -38 -10q-33 -4 -38 -7q-1 -11 -1 -111q0 -78 2 -105q0 -11 5 -35t5 -37q0 -8 -10 -16t-18 -8q-20 0 -32 41q-8 30 -8 57q0 141 2 208q-6 5 -46 0q-32 -4 -32 23q0 38 81 35l13 181q0 3 -2.5 9.5t-2.5 9.5q0 6 8 11.5t19 4.5q35 -3 35 -35q0 -25 -7 -75
t-7 -74q0 -12 2 -23l55 3q28 0 28 -22q0 -16 -13 -25zM208 -90q-75 -165 -95 -165q-14 0 -49 14l1 8q70 65 89 176q9 4 12 4q9 0 24 -13.5t18 -23.5z" />
    <glyph glyph-name="Tcaron" unicode="&#x164;" horiz-adv-x="474" 
d="M448 624q0 -25 -17 -25q2 0 -22 11q-15 8 -77 8h-45q-24 0 -30 -7.5t-9.5 -34t-11.5 -78.5q-19 -153 -19 -327q0 -129 27 -174q0 -14 -10 -14q-52 0 -66 60q-6 23 -6 100q0 112 4 169q1 27 11 126q8 79 8 126q0 57 1 28q-1 15 -13 15q-18 0 -53.5 -7t-53.5 -7
q-40 0 -52 32q10 17 149 34q116 13 169 13q116 0 116 -48zM355 817l-1 -5q-111 -100 -123 -100t-123 100l-1 5q0 4 4.5 11.5t7.5 7.5q19 0 62 -39q13 -12 25 -17q17 -6 25 -10q14 3 50 27q43 39 62 39q3 0 7.5 -7.5t4.5 -11.5z" />
    <glyph glyph-name="tcaron" unicode="&#x165;" horiz-adv-x="450" 
d="M234 315q-8 -6 -38 -10q-33 -4 -38 -7q-1 -11 -1 -111q0 -78 2 -105q0 -11 5 -35t5 -37q0 -8 -10 -16t-18 -8q-20 0 -32 41q-8 30 -8 57q0 141 2 208q-6 5 -46 0q-32 -4 -32 23q0 38 81 35l13 181q0 3 -2.5 9.5t-2.5 9.5q0 6 8 11.5t19 4.5q35 -3 35 -35q0 -25 -7 -75
t-7 -74q0 -12 2 -23l55 3q28 0 28 -22q0 -16 -13 -25zM322 680q0 12 8 23t35 11q18 0 32 -11.5t19 -38.5q7 -42 5.5 -72.5t-20.5 -62.5q-17 -29 -37 -46.5t-40 -17.5q-16 0 -18 13.5t12 25.5q17 15 35.5 28t28.5 37q8 20 0 42.5t-25 33.5t-26 17.5t-9 17.5z" />
    <glyph glyph-name="Utilde" unicode="&#x168;" horiz-adv-x="455" 
d="M420 369q0 -81 -19 -178q-23 -121 -61 -162q-49 -52 -114 -52q-78 0 -120 36q-52 44 -65 128q-6 35 -6 150q0 49 6 146.5t6 145.5q0 9 -6 25.5t-6 24.5q0 10 16.5 21t27.5 11q37 0 34 1q13 -3 11 -23q-7 -28 -15 -73q-19 -185 -19 -228v-130q0 -69 26 -121q33 -66 95 -66
q105 0 142 201q18 100 18 285l1 42q1 26 -1 44q-2 23 -10 39.5t-8 18.5q0 10 7.5 22.5t17.5 12.5q11 0 26.5 -9.5t15.5 -19.5v-292zM364 796q0 -17 -38.5 -41.5t-57.5 -24.5q-28 0 -54 18t-43 18q-20 0 -43 -15.5l-23 -15.5q-16 0 -16 15q0 17 40 40q37 21 56 21
q26 0 49.5 -19.5t42.5 -19.5q20 0 44.5 19.5t27.5 19.5q15 0 15 -15z" />
    <glyph glyph-name="utilde" unicode="&#x169;" horiz-adv-x="331" 
d="M311 374q0 -31 -6.5 -92.5t-6.5 -106.5q0 -18 3.5 -68.5t3.5 -72.5q0 -44 -10 -53q-6 -4 -17 -4q-22 0 -30 19q-4 19 -8 37q-29 -43 -99 -54q-26 -4 -60 23q-31 24 -41 48q-14 33 -14 127v217q-6 30 34 30q28 0 28 -32q0 -48 -3 -125q-3 -98 -3 -125q-1 -36 16 -72
q20 -43 51 -43q51 0 79 68q20 51 20 112v131q0 8 -5.5 22.5t-5.5 23.5q0 5 1 11q14 13 28 14q45 4 45 -35zM302 531q0 -17 -38.5 -41.5t-57.5 -24.5q-28 0 -54 18t-43 18q-20 0 -43 -15.5l-23 -15.5q-16 0 -16 15q0 17 40 40q37 21 56 21q26 0 49.5 -19.5t42.5 -19.5
q20 0 44.5 19.5t27.5 19.5q15 0 15 -15z" />
    <glyph glyph-name="Umacron" unicode="&#x16a;" horiz-adv-x="455" 
d="M420 369q0 -81 -19 -178q-23 -121 -61 -162q-49 -52 -114 -52q-78 0 -120 36q-52 44 -65 128q-6 35 -6 150q0 49 6 146.5t6 145.5q0 9 -6 25.5t-6 24.5q0 10 16.5 21t27.5 11q37 0 34 1q13 -3 11 -23q-7 -28 -15 -73q-19 -185 -19 -228v-130q0 -69 26 -121q33 -66 95 -66
q105 0 142 201q18 100 18 285l1 42q1 26 -1 44q-2 23 -10 39.5t-8 18.5q0 10 7.5 22.5t17.5 12.5q11 0 26.5 -9.5t15.5 -19.5v-292zM120 737q-1 3 -1 10q0 5 1 10.5t5 8.5q27 3 75.5 6t100.5 3q22 0 28 -5.5t6 -16.5q0 -20 -19 -20q-17 0 -43.5 1t-50.5 1t-39.5 -1t-25.5 -2
t-15.5 -2t-9.5 -1q-10 0 -12 8z" />
    <glyph glyph-name="umacron" unicode="&#x16b;" horiz-adv-x="331" 
d="M311 374q0 -31 -6.5 -92.5t-6.5 -106.5q0 -18 3.5 -68.5t3.5 -72.5q0 -44 -10 -53q-6 -4 -17 -4q-22 0 -30 19q-4 19 -8 37q-29 -43 -99 -54q-26 -4 -60 23q-31 24 -41 48q-14 33 -14 127v217q-6 30 34 30q28 0 28 -32q0 -48 -3 -125q-3 -98 -3 -125q-1 -36 16 -72
q20 -43 51 -43q51 0 79 68q20 51 20 112v131q0 8 -5.5 22.5t-5.5 23.5q0 5 1 11q14 13 28 14q45 4 45 -35zM58 472q-1 3 -1 10q0 5 1 10.5t5 8.5q27 3 75.5 6t100.5 3q22 0 28 -5.5t6 -16.5q0 -20 -19 -20q-17 0 -43.5 1t-50.5 1t-39.5 -1t-25.5 -2t-15.5 -2t-9.5 -1
q-10 0 -12 8z" />
    <glyph glyph-name="Ubreve" unicode="&#x16c;" horiz-adv-x="455" 
d="M420 369q0 -81 -19 -178q-23 -121 -61 -162q-49 -52 -114 -52q-78 0 -120 36q-52 44 -65 128q-6 35 -6 150q0 49 6 146.5t6 145.5q0 9 -6 25.5t-6 24.5q0 10 16.5 21t27.5 11q37 0 34 1q13 -3 11 -23q-7 -28 -15 -73q-19 -185 -19 -228v-130q0 -69 26 -121q33 -66 95 -66
q105 0 142 201q18 100 18 285l1 42q1 26 -1 44q-2 23 -10 39.5t-8 18.5q0 10 7.5 22.5t17.5 12.5q11 0 26.5 -9.5t15.5 -19.5v-292zM337 817q0 -40 -34.5 -63.5t-75.5 -23.5t-74 22q-36 25 -36 65q0 15 15 15t15 -15q0 -48 77 -48q29 0 52 10q31 13 31 38q0 15 15 15t15 -15
z" />
    <glyph glyph-name="ubreve" unicode="&#x16d;" horiz-adv-x="331" 
d="M311 374q0 -31 -6.5 -92.5t-6.5 -106.5q0 -18 3.5 -68.5t3.5 -72.5q0 -44 -10 -53q-6 -4 -17 -4q-22 0 -30 19q-4 19 -8 37q-29 -43 -99 -54q-26 -4 -60 23q-31 24 -41 48q-14 33 -14 127v217q-6 30 34 30q28 0 28 -32q0 -48 -3 -125q-3 -98 -3 -125q-1 -36 16 -72
q20 -43 51 -43q51 0 79 68q20 51 20 112v131q0 8 -5.5 22.5t-5.5 23.5q0 5 1 11q14 13 28 14q45 4 45 -35zM275 552q0 -40 -34.5 -63.5t-75.5 -23.5t-74 22q-36 25 -36 65q0 15 15 15t15 -15q0 -48 77 -48q29 0 52 10q31 13 31 38q0 15 15 15t15 -15z" />
    <glyph glyph-name="Uring" unicode="&#x16e;" horiz-adv-x="455" 
d="M420 369q0 -81 -19 -178q-23 -121 -61 -162q-49 -52 -114 -52q-78 0 -120 36q-52 44 -65 128q-6 35 -6 150q0 49 6 146.5t6 145.5q0 9 -6 25.5t-6 24.5q0 10 16.5 21t27.5 11q37 0 34 1q13 -3 11 -23q-7 -28 -15 -73q-19 -185 -19 -228v-130q0 -69 26 -121q33 -66 95 -66
q105 0 142 201q18 100 18 285l1 42q1 26 -1 44q-2 23 -10 39.5t-8 18.5q0 10 7.5 22.5t17.5 12.5q11 0 26.5 -9.5t15.5 -19.5v-292zM284 787q0 -23 -17 -40t-40 -17t-40 17t-17 40t17 40t40 17t40 -17t17 -40zM264 787q0 15 -11 26t-26 11t-26 -11t-11 -26t11 -26t26 -11
t26 11t11 26z" />
    <glyph glyph-name="uring" unicode="&#x16f;" horiz-adv-x="331" 
d="M311 374q0 -31 -6.5 -92.5t-6.5 -106.5q0 -18 3.5 -68.5t3.5 -72.5q0 -44 -10 -53q-6 -4 -17 -4q-22 0 -30 19q-4 19 -8 37q-29 -43 -99 -54q-26 -4 -60 23q-31 24 -41 48q-14 33 -14 127v217q-6 30 34 30q28 0 28 -32q0 -48 -3 -125q-3 -98 -3 -125q-1 -36 16 -72
q20 -43 51 -43q51 0 79 68q20 51 20 112v131q0 8 -5.5 22.5t-5.5 23.5q0 5 1 11q14 13 28 14q45 4 45 -35zM222 522q0 -23 -17 -40t-40 -17t-40 17t-17 40t17 40t40 17t40 -17t17 -40zM202 522q0 15 -11 26t-26 11t-26 -11t-11 -26t11 -26t26 -11t26 11t11 26z" />
    <glyph glyph-name="Uhungarumlaut" unicode="&#x170;" horiz-adv-x="455" 
d="M420 369q0 -81 -19 -178q-23 -121 -61 -162q-49 -52 -114 -52q-78 0 -120 36q-52 44 -65 128q-6 35 -6 150q0 49 6 146.5t6 145.5q0 9 -6 25.5t-6 24.5q0 10 16.5 21t27.5 11q37 0 34 1q13 -3 11 -23q-7 -28 -15 -73q-19 -185 -19 -228v-130q0 -69 26 -121q33 -66 95 -66
q105 0 142 201q18 100 18 285l1 42q1 26 -1 44q-2 23 -10 39.5t-8 18.5q0 10 7.5 22.5t17.5 12.5q11 0 26.5 -9.5t15.5 -19.5v-292zM303 830q0 -9 -26 -52q-29 -46 -42 -46q-15 0 -15 15q0 7 7.5 13t28.5 49q18 36 32 36q15 0 15 -15zM224 830q0 -12 -24.5 -56t-34.5 -44
q-15 0 -15 15q0 8 6 12l24 50q19 38 29 38q15 0 15 -15z" />
    <glyph glyph-name="uhungarumlaut" unicode="&#x171;" horiz-adv-x="331" 
d="M311 374q0 -31 -6.5 -92.5t-6.5 -106.5q0 -18 3.5 -68.5t3.5 -72.5q0 -44 -10 -53q-6 -4 -17 -4q-22 0 -30 19q-4 19 -8 37q-29 -43 -99 -54q-26 -4 -60 23q-31 24 -41 48q-14 33 -14 127v217q-6 30 34 30q28 0 28 -32q0 -48 -3 -125q-3 -98 -3 -125q-1 -36 16 -72
q20 -43 51 -43q51 0 79 68q20 51 20 112v131q0 8 -5.5 22.5t-5.5 23.5q0 5 1 11q14 13 28 14q45 4 45 -35zM241 565q0 -9 -26 -52q-29 -46 -42 -46q-15 0 -15 15q0 7 7.5 13t28.5 49q18 36 32 36q15 0 15 -15zM162 565q0 -12 -24.5 -56t-34.5 -44q-15 0 -15 15q0 8 6 12
l24 50q19 38 29 38q15 0 15 -15z" />
    <glyph glyph-name="Uogonek" unicode="&#x172;" horiz-adv-x="455" 
d="M420 369q0 -81 -19 -178q-23 -121 -61 -162q-49 -52 -114 -52q-78 0 -120 36q-52 44 -65 128q-6 35 -6 150q0 49 6 146.5t6 145.5q0 9 -6 25.5t-6 24.5q0 10 16.5 21t27.5 11q37 0 34 1q13 -3 11 -23q-7 -28 -15 -73q-19 -185 -19 -228v-130q0 -69 26 -121q33 -66 95 -66
q105 0 142 201q18 100 18 285l1 42q1 26 -1 44q-2 23 -10 39.5t-8 18.5q0 10 7.5 22.5t17.5 12.5q11 0 26.5 -9.5t15.5 -19.5v-292zM300 -186q0 -15 -26 -26q-21 -8 -39 -8q-34 0 -57.5 24.5t-23.5 58.5q0 52 57 107q8 8 16 8q13 0 13 -13q0 -7 -21 -40.5t-21 -56.5
q0 -20 14 -39t33 -19q12 0 23.5 9.5t16.5 9.5q15 0 15 -15z" />
    <glyph glyph-name="uogonek" unicode="&#x173;" horiz-adv-x="331" 
d="M311 374q0 -31 -6.5 -92.5t-6.5 -106.5q0 -18 3.5 -68.5t3.5 -72.5q0 -44 -10 -53q-6 -4 -17 -4q-22 0 -30 19q-4 19 -8 37q-29 -43 -99 -54q-26 -4 -60 23q-31 24 -41 48q-14 33 -14 127v217q-6 30 34 30q28 0 28 -32q0 -48 -3 -125q-3 -98 -3 -125q-1 -36 16 -72
q20 -43 51 -43q51 0 79 68q20 51 20 112v131q0 8 -5.5 22.5t-5.5 23.5q0 5 1 11q14 13 28 14q45 4 45 -35zM238 -188q0 -15 -26 -26q-21 -8 -39 -8q-34 0 -57.5 24.5t-23.5 58.5q0 52 57 107q8 8 16 8q13 0 13 -13q0 -7 -21 -40.5t-21 -56.5q0 -20 14 -39t33 -19
q12 0 23.5 9.5t16.5 9.5q15 0 15 -15z" />
    <glyph glyph-name="u0174" unicode="&#x174;" horiz-adv-x="599" 
d="M568 461q0 -119 -32 -259q-45 -193 -121 -193q-55 0 -81 73q-18 48 -27 149q-10 107 -15 126q-3 -12 -40 -180q-40 -186 -94 -186q-30 0 -56 28q-40 43 -60 272q-13 156 -13 316q0 61 46 61q17 0 41 -13v-27q-15 -3 -20.5 -11.5t-7.5 -32.5q-1 -18 0 -47l1 -38
q0 -125 13 -250q19 -184 56 -184q19 0 44 76q18 52 27 98q36 174 36 288q0 7 13 17t20 10q21 0 40.5 -15.5t20.5 -35.5q-18 -29 -18 -92q0 -96 13 -197q20 -146 59 -146q54 0 87 177q24 129 24 227q0 55 -10 87q-8 21 -16 43q-10 27 -10 42q0 53 27 53q28 0 43 -101
q10 -70 10 -135zM422 757q0 -4 -4.5 -12t-7.5 -8q-19 0 -62 40q-13 12 -25 16q-17 7 -25 11q-14 -3 -50 -27q-43 -40 -62 -40q-3 0 -7.5 8t-4.5 12l1 5q111 100 123 100q11 0 123 -100z" />
    <glyph glyph-name="u0175" unicode="&#x175;" horiz-adv-x="510" 
d="M485 319q0 -95 -25 -188q-35 -132 -102 -132q-49 0 -84 61q-13 30 -26 61l-4 -2q-14 -40 -29 -80q-21 -46 -63 -46q-127 0 -127 305q0 70 4 110q7 10 18 10t26 -8.5t15 -19.5q0 -13 -6.5 -40.5t-6.5 -43.5q0 -260 67 -260q43 0 69 98q21 75 20 135v96q0 21 24 21
q29 0 29 -40q0 -5 -1.5 -15t-1.5 -15v-123q0 -43 15 -92q19 -65 51 -65q43 0 72 109q22 84 22 147t-8 77q0 1 -7 9t-7 11q0 11 9.5 21t20.5 10q36 0 36 -111zM379 491q0 -4 -4.5 -12t-7.5 -8q-19 0 -62 40q-13 12 -25 16q-17 7 -25 11q-14 -3 -50 -27q-43 -40 -62 -40
q-3 0 -7.5 8t-4.5 12l1 5q111 100 123 100q11 0 123 -100z" />
    <glyph glyph-name="u0176" unicode="&#x176;" horiz-adv-x="486" 
d="M466 641q-10 -18 -37 -49.5t-36 -50.5q-73 -143 -127 -281q-79 -202 -71 -287q-18 -13 -34 -13q-32 0 -51 56q6 5 19.5 18.5t42.5 95.5q18 55 37 110q-64 50 -111 157q-78 179 -78 243q0 41 32 41q21 0 34 -22q10 -20 10 -42q0 -7 -4.5 -18t-4.5 -17q0 -46 50 -157
q55 -120 92 -119q17 18 95 200q69 163 103 163q36 0 39 -28zM361 757q0 -4 -4.5 -12t-7.5 -8q-19 0 -62 40q-13 12 -25 16q-17 7 -25 11q-14 -3 -50 -27q-43 -40 -62 -40q-3 0 -7.5 8t-4.5 12l1 5q111 100 123 100q11 0 123 -100z" />
    <glyph glyph-name="u0177" unicode="&#x177;" horiz-adv-x="369" 
d="M345 392q-8 -44 -15 -88q-9 -47 -9 -88l-1 -313q0 -67 -40.5 -106.5t-108.5 -39.5q-37 0 -83 20q-53 22 -73 55q-5 9 -5 18q0 29 28 29q6 0 13 -4q17 -18 34 -35q34 -31 86 -31q66 0 88 46q13 29 13 105q0 10 -4 40q-4 25 -2 44q-28 -26 -40 -33q-22 -14 -48 -14
q-68 0 -103 53q-31 46 -31 117q0 135 4 228q4 32 35 32q38 0 34 -13q-19 -52 -19 -233q0 -140 80 -140q49 0 78 75q22 58 21 117l-1 114q1 17 2.5 43t32.5 24q36 -3 34 -22zM319 491q0 -4 -4.5 -12t-7.5 -8q-19 0 -62 40q-13 12 -25 16q-17 7 -25 11q-14 -3 -50 -27
q-43 -40 -62 -40q-3 0 -7.5 8t-4.5 12l1 5q111 100 123 100q11 0 123 -100z" />
    <glyph glyph-name="Ydieresis" unicode="&#x178;" horiz-adv-x="486" 
d="M349 729q0 -17 -11.5 -29.5t-28.5 -12.5t-28.5 12.5t-11.5 29.5q0 16 11.5 28.5t28.5 12.5t28.5 -12.5t11.5 -28.5zM199 729q0 -17 -11.5 -29.5t-28.5 -12.5t-28.5 12.5t-11.5 29.5q0 16 11.5 28.5t28.5 12.5t28.5 -12.5t11.5 -28.5zM466 641q-10 -18 -37 -49.5
t-36 -50.5q-73 -143 -127 -281q-79 -202 -71 -287q-18 -13 -34 -13q-32 0 -51 56q6 5 19.5 18.5t42.5 95.5q18 55 37 110q-64 50 -111 157q-78 179 -78 243q0 41 32 41q21 0 34 -22q10 -20 10 -42q0 -7 -4.5 -18t-4.5 -17q0 -46 50 -157q55 -120 92 -119q17 18 95 200
q69 163 103 163q36 0 39 -28z" />
    <glyph glyph-name="Zacute" unicode="&#x179;" horiz-adv-x="566" 
d="M546 619q0 -54 -123 -168q-114 -100 -229 -200q-123 -116 -123 -174q0 -41 50 -41q48 0 144.5 11.5t144.5 11.5q26 0 53 -10q34 -13 38 -34q-9 -14 -22 -14q-8 0 -23.5 5.5t-23.5 4.5h-5l-158 -19l-79 -10q-66 0 -112 24q-58 31 -58 92q0 52 36 98q42 54 114 113
q8 7 126 98q37 27 106 85q31 30 57 68q36 49 36 77q0 41 -63 41q-64 0 -147.5 -24t-140.5 -57q-24 -16 -48 -31q-39 -26 -44 -26q-26 0 -25 50v11q70 43 195 83q132 42 207 42q46 0 74 -24q15 -13 29 -39t14 -44zM361 860l-2 -7q-10 -2 -28 -9q-24 -11 -52 -38
q-41 -40 -62 -40q-3 0 -7.5 8t-4.5 12l1 5q102 109 124 109q9 0 20 -15.5t11 -24.5z" />
    <glyph glyph-name="zacute" unicode="&#x17a;" horiz-adv-x="347" 
d="M322 386q0 -25 -24 -53l-126 -140q-91 -108 -93 -147q9 -11 34 -11q56 0 179 28q6 1 14.5 -11.5t8.5 -24.5q0 -27 -39 -27q-35 0 -94 -6.5t-89 -6.5q-26 0 -45 12q-23 14 -23 39q0 38 57 114q20 26 108 129q59 70 63 90q-10 8 -32 8q-40 0 -77 -17q-25 -11 -51 -32
q-22 -17 -24 -17q-25 0 -25 33t94 58q76 20 124 20q60 0 60 -38zM251 559l-2 -7q-10 -2 -28 -9q-24 -11 -52 -38q-41 -40 -62 -40q-3 0 -7.5 8t-4.5 12l1 5q102 109 124 109q9 0 20 -15.5t11 -24.5z" />
    <glyph glyph-name="Zdotabove" unicode="&#x17b;" horiz-adv-x="566" 
d="M546 619q0 -54 -123 -168q-114 -100 -229 -200q-123 -116 -123 -174q0 -41 50 -41q48 0 144.5 11.5t144.5 11.5q26 0 53 -10q34 -13 38 -34q-9 -14 -22 -14q-8 0 -23.5 5.5t-23.5 4.5h-5l-158 -19l-79 -10q-66 0 -112 24q-58 31 -58 92q0 52 36 98q42 54 114 113
q8 7 126 98q37 27 106 85q31 30 57 68q36 49 36 77q0 41 -63 41q-64 0 -147.5 -24t-140.5 -57q-24 -16 -48 -31q-39 -26 -44 -26q-26 0 -25 50v11q70 43 195 83q132 42 207 42q46 0 74 -24q15 -13 29 -39t14 -44zM359 808q0 -17 -11.5 -29.5t-28.5 -12.5t-28.5 12.5
t-11.5 29.5q0 16 11.5 28.5t28.5 12.5t28.5 -12.5t11.5 -28.5z" />
    <glyph glyph-name="zdotabove" unicode="&#x17c;" horiz-adv-x="347" 
d="M322 386q0 -25 -24 -53l-126 -140q-91 -108 -93 -147q9 -11 34 -11q56 0 179 28q6 1 14.5 -11.5t8.5 -24.5q0 -27 -39 -27q-35 0 -94 -6.5t-89 -6.5q-26 0 -45 12q-23 14 -23 39q0 38 57 114q20 26 108 129q59 70 63 90q-10 8 -32 8q-40 0 -77 -17q-25 -11 -51 -32
q-22 -17 -24 -17q-25 0 -25 33t94 58q76 20 124 20q60 0 60 -38zM232 500q0 -17 -11.5 -29.5t-28.5 -12.5t-28.5 12.5t-11.5 29.5q0 16 11.5 28.5t28.5 12.5t28.5 -12.5t11.5 -28.5z" />
    <glyph glyph-name="Zcaron" unicode="&#x17d;" horiz-adv-x="566" 
d="M546 619q0 -54 -123 -168q-114 -100 -229 -200q-123 -116 -123 -174q0 -41 50 -41q48 0 144.5 11.5t144.5 11.5q26 0 53 -10q34 -13 38 -34q-9 -14 -22 -14q-8 0 -23.5 5.5t-23.5 4.5h-5l-158 -19l-79 -10q-66 0 -112 24q-58 31 -58 92q0 52 36 98q42 54 114 113
q8 7 126 98q37 27 106 85q31 30 57 68q36 49 36 77q0 41 -63 41q-64 0 -147.5 -24t-140.5 -57q-24 -16 -48 -31q-39 -26 -44 -26q-26 0 -25 50v11q70 43 195 83q132 42 207 42q46 0 74 -24q15 -13 29 -39t14 -44zM407 871l-1 -5q-111 -100 -123 -100t-123 100l-1 5
q0 4 4.5 11.5t7.5 7.5q19 0 62 -39q13 -12 25 -17q17 -6 25 -10q14 3 50 27q43 39 62 39q3 0 7.5 -7.5t4.5 -11.5z" />
    <glyph glyph-name="zcaron" unicode="&#x17e;" horiz-adv-x="347" 
d="M322 386q0 -25 -24 -53l-126 -140q-91 -108 -93 -147q9 -11 34 -11q56 0 179 28q6 1 14.5 -11.5t8.5 -24.5q0 -27 -39 -27q-35 0 -94 -6.5t-89 -6.5q-26 0 -45 12q-23 14 -23 39q0 38 57 114q20 26 108 129q59 70 63 90q-10 8 -32 8q-40 0 -77 -17q-25 -11 -51 -32
q-22 -17 -24 -17q-25 0 -25 33t94 58q76 20 124 20q60 0 60 -38zM297 570l-1 -5q-111 -100 -123 -100t-123 100l-1 5q0 4 4.5 11.5t7.5 7.5q19 0 62 -39q13 -12 25 -17q17 -6 25 -10q14 3 50 27q43 39 62 39q3 0 7.5 -7.5t4.5 -11.5z" />
    <glyph glyph-name="Schwa" unicode="&#x18f;" horiz-adv-x="565" 
d="M530 344q0 -10 -6.5 -17t-6.5 -13q-1 -89 -23.5 -153.5t-76.5 -118.5q-40 -40 -71 -55t-68 -15q-48 0 -90.5 19t-74.5 54.5t-50.5 85t-18.5 110.5q0 81 42 120t118 39q29 0 59.5 -7t60.5 -15.5t58.5 -15.5t53.5 -7q17 0 19.5 3t2.5 13q-6 60 -23 108.5t-44 83t-63.5 53
t-80.5 18.5q-46 0 -79 -16t-58 -42q-8 -9 -12 -20.5t-8.5 -22t-11.5 -18t-20 -7.5q-19 0 -19 23q0 22 14.5 49t42 50t66.5 38.5t87 15.5q55 0 99.5 -22.5t78 -63t55.5 -95.5t31 -120q1 -6 3.5 -9t5.5 -6t5.5 -8t2.5 -16zM285 30q42 0 74.5 21.5t54 57.5t33.5 82.5t14 97.5
q0 11 -10 14q-81 25 -137 35t-94 10q-123 0 -123 -112q0 -47 15.5 -85t41.5 -65t60 -41.5t71 -14.5z" />
    <glyph glyph-name="florin" unicode="&#x192;" horiz-adv-x="429" 
d="M378 307q0 -17 -3 -21.5t-14 -4.5q-12 0 -21 1.5t-21 3t-29.5 3t-45.5 1.5q-3 -26 -5 -51t-5 -52.5t-6.5 -59t-8.5 -70.5q-7 -55 -19.5 -89t-28.5 -53t-34.5 -25.5t-37.5 -6.5q-41 0 -58.5 21t-17.5 52q0 23 16 23q6 0 7 -1q11 -28 21 -37.5t25 -9.5q32 0 49.5 45
t30.5 136q4 34 7.5 60.5t6 46.5t4 36.5t2.5 31.5q-23 -4 -42 -10t-37 -6q-8 0 -13 5t-8 12.5t-4 15t-1 13.5q0 4 14 7.5t32.5 6t37 4t26.5 1.5q2 27 6.5 63t13.5 94q9 55 21.5 89t28.5 53t34 25.5t36 6.5q12 0 25.5 -4.5t24 -13t17.5 -21t7 -27.5q0 -23 -16 -23q-6 0 -7 1
q-11 28 -20.5 34t-23.5 6q-22 0 -37 -18t-25.5 -53t-18 -88t-14.5 -122h67q21 0 41.5 -5.5t20.5 -25.5z" />
    <glyph glyph-name="u01A0" unicode="&#x1a0;" horiz-adv-x="588" 
d="M536 339q0 -77 -19 -144t-54.5 -116.5t-85 -78t-109.5 -28.5t-105.5 22t-76.5 63t-46.5 99.5t-15.5 130.5q0 63 15.5 132.5t49 128.5t85 97.5t123.5 38.5q29 0 55.5 -9t49.5 -24q7 -5 18.5 -11.5t24.5 -12.5t25 -10t20 -4q10 0 20.5 4t18.5 10.5t13.5 15t5.5 17.5
q0 12 -9.5 23.5t-9.5 16.5q0 15 15 15q7 0 13.5 -6.5t11 -16t7 -21t2.5 -21.5q0 -16 -6 -30.5t-16.5 -26t-24.5 -18t-30 -6.5q-15 0 -15 -11q0 -4 5 -16q21 -43 33 -94.5t12 -108.5zM480 348q0 53 -11 103t-32.5 89t-54.5 62.5t-78 23.5q-62 0 -106 -34.5t-72 -88
t-40.5 -119t-12.5 -126.5q0 -49 12 -92t36 -75t60 -50.5t85 -18.5q50 0 90 24t67.5 67t42 103t14.5 132z" />
    <glyph glyph-name="u01A1" unicode="&#x1a1;" horiz-adv-x="444" 
d="M407 464q7 0 13.5 -6.5t11 -16t7 -21t2.5 -21.5q0 -34 -24.5 -57.5t-58.5 -23.5q-6 0 -12.5 0.5t-11.5 0.5q-9 0 -9 -6t3 -13q14 -48 14 -103q0 -47 -12 -88.5t-33.5 -72t-51.5 -48.5t-66 -18q-75 0 -114.5 52.5t-39.5 148.5q0 47 12.5 95t34 86.5t50.5 62.5t63 24
q12 0 33.5 -12t46 -26.5t48.5 -26.5t40 -12q10 0 20.5 4t18.5 10.5t13.5 15t5.5 17.5q0 12 -9.5 23.5t-9.5 16.5q0 15 15 15zM294 198q0 40 -6.5 74t-18.5 59t-29.5 39t-39.5 14q-26 0 -48 -17t-38 -46t-25 -67t-9 -80q0 -75 25.5 -120t73.5 -45q26 0 47.5 15t36.5 40.5
t23 60t8 73.5z" />
    <glyph glyph-name="OI" unicode="&#x1a2;" horiz-adv-x="765" 
d="M526 339q0 -58 -13.5 -122.5t-43.5 -119t-79.5 -90t-121.5 -35.5q-34 0 -77 15q-85 27 -126 100t-41 200q0 144 64 259q76 138 209 138q107 0 173 -104q20 -4 38 -7t34 -3q24 0 46 9t45 34v11q0 7 5.5 15t14 15t17.5 11.5t15 4.5q4 0 11 -3t13.5 -7.5t11 -9.5t4.5 -9
q0 -5 -1.5 -5t-4 -4t-5.5 -17t-6 -44q-3 -34 -6 -78.5t-5.5 -94t-4.5 -101t-3.5 -99t-2 -88.5t-0.5 -70q0 -144 30 -187q-19 -13 -30 -13q-43 0 -52 70q-4 31 -6 53t-2 35q1 52 1.5 122.5t1.5 147t1.5 152t1.5 138.5q-23 -20 -41.5 -27.5t-39.5 -7.5q-12 0 -25 2t-29 6
q20 -45 24.5 -91.5t4.5 -100.5zM470 348q0 64 -7.5 110t-24 78t-43 52t-63.5 32q-17 6 -28 6q-64 0 -126 -59q-105 -101 -105 -309q0 -8 1.5 -23t6.5 -37q17 -94 62 -135t123 -41q61 0 100.5 31.5t62.5 79.5t32 105.5t9 109.5z" />
    <glyph glyph-name="oi" unicode="&#x1a3;" horiz-adv-x="506" 
d="M335 197q0 -43 -6 -80.5t-25 -69.5q-45 -77 -125 -77q-75 0 -114.5 52.5t-39.5 148.5q0 41 9 83t29 84q45 101 122 101q9 0 21.5 -5t27 -14t28.5 -21t25 -25q32 -17 60 -17q20 0 35.5 10.5t26.5 35.5q-1 7 -1.5 13t-0.5 10q20 14 32 14q14 0 28 -10t14 -24q0 -6 -5 -26
l-7 -25q-12 -68 -12 -190q0 -95 -0.5 -138.5t-0.5 -51.5q0 -31 1 -52.5t3 -37.5t5 -29t7 -26q1 -3 5 -13.5t4 -16.5q0 -26 -28 -26q-32 0 -39 73t-7 229q0 72 2 140t4 137q-28 -31 -58 -31q-19 0 -43 9q12 -28 17.5 -61.5t5.5 -72.5zM287 198q0 88 -19.5 137t-67.5 49
q-26 0 -48 -17t-38 -46t-25 -67t-9 -80q0 -75 25.5 -120t73.5 -45q59 0 91 68q12 26 14.5 56.5t2.5 64.5z" />
    <glyph glyph-name="u01AF" unicode="&#x1af;" horiz-adv-x="583" 
d="M420 369q0 -42 -5 -85.5t-14 -92.5q-24 -122 -61 -162q-49 -52 -114 -52q-86 0 -129.5 44t-55.5 120q-6 34 -6 150q0 20 2 60.5t4 85.5t4 85.5t2 60.5q0 9 -6 25.5t-6 24.5q0 6 5 11.5t12 10t14.5 7.5t12.5 3q34 0 34 1q11 -3 11 -19q0 -14 -5.5 -34t-9.5 -43
q-10 -94 -14.5 -150t-4.5 -78v-130q0 -39 8.5 -73.5t24.5 -59.5t38.5 -39.5t49.5 -14.5q43 0 74 31t50 97t28 168.5t9 245.5q0 18 -3 33t-6.5 26.5t-6.5 19t-3 9.5q0 10 7.5 22.5t17.5 12.5q11 0 24.5 -7.5t17.5 -21.5q4 -17 13 -26.5t19.5 -14.5t21 -6t16.5 -1q10 0 20.5 4
t18.5 10.5t13.5 15t5.5 17.5q0 12 -9.5 23.5t-9.5 16.5q0 15 15 15q7 0 13.5 -6.5t11 -16t7 -21t2.5 -21.5q0 -34 -24.5 -57.5t-58.5 -23.5q-17 0 -30.5 7t-27.5 7q-6 0 -11.5 -4.5t-5.5 -13.5v-196z" />
    <glyph glyph-name="u01B0" unicode="&#x1b0;" horiz-adv-x="470" 
d="M436 464q7 0 13.5 -6.5t11 -16t7 -21t2.5 -21.5q0 -34 -24.5 -57.5t-58.5 -23.5q-27 0 -55 15q-8 3 -12 3q-11 0 -12 -15q-2 -18 -3.5 -37.5l-3 -39t-2.5 -37.5t-1 -32q0 -6 1 -26t2.5 -42.5t2.5 -43t1 -29.5q0 -35 -5 -46t-22 -11q-23 0 -30 19l-8 37q-14 -20 -42 -37.5
t-64 -17.5q-12 0 -26.5 7t-28 18t-24.5 23.5t-15 23.5q-14 36 -14 127v217q-1 2 -1 7q0 23 35 23q28 0 28 -32q0 -24 -1 -63.5t-2 -78.5t-2 -70t-1 -38q0 -20 5 -40.5t14 -37t21 -27t27 -10.5q22 0 40 14t31 38.5t20.5 57t7.5 70.5v131q0 8 -5.5 22.5t-5.5 23.5q0 10 5 15
t11.5 7t12.5 2.5t7 0.5q13 0 24 -5t17 -12q14 -14 34.5 -22t33.5 -8q10 0 20.5 4t18.5 10.5t13.5 15t5.5 17.5q0 12 -9.5 23.5t-9.5 16.5q0 15 15 15z" />
    <glyph glyph-name="Zstroke" unicode="&#x1b5;" horiz-adv-x="566" 
d="M531 348q0 -19 -5 -24.5t-20 -5.5q-5 0 -17.5 4.5t-18.5 7.5q-18 5 -61.5 7t-112.5 3q-26 -23 -51.5 -44.5t-50.5 -44.5q-123 -113 -123 -174q0 -41 50 -41q20 0 60.5 3.5t84.5 8t84 8t60 3.5q31 0 59 -13t32 -31q-9 -14 -22 -14q-8 0 -23.5 5t-23.5 5l-163 -19
q-37 -5 -56.5 -7.5t-22.5 -2.5q-76 0 -123 30.5t-47 85.5q0 32 14.5 62t39.5 59.5t59.5 59t74.5 60.5q-18 -1 -33.5 -1.5t-27.5 -2.5q-28 -5 -49.5 -15.5t-44.5 -10.5q-12 0 -19.5 7t-11 17t-5 20t-1.5 16q0 2 3 5t7 3q124 9 247 12q19 14 50 37.5t79 65.5q19 16 35.5 37
t29.5 41t20.5 38t7.5 29q0 41 -63 41q-31 0 -69.5 -6.5t-78.5 -17.5t-76.5 -25.5t-63.5 -31.5q-17 -11 -33.5 -21t-29.5 -18t-21 -13l-8 -5q-25 0 -25 50v11q69 42 195 83q132 42 207 42q45 0 74 -24q7 -6 15 -16.5t14 -22.5t10 -23.5t4 -20.5q0 -38 -47.5 -91.5
t-144.5 -137.5q21 1 42.5 1h43.5q15 0 31.5 -2.5t29.5 -8t21.5 -13.5t8.5 -19z" />
    <glyph glyph-name="zstroke" unicode="&#x1b6;" horiz-adv-x="347" 
d="M342 196q0 -16 -3 -21t-13 -5q-3 0 -11 4l-12 6q-13 6 -46.5 8t-87.5 2q-89 -107 -90 -144q9 -11 34 -11q60 0 179 28q6 0 14.5 -11.5t8.5 -24.5q0 -14 -9 -19.5t-26.5 -7.5t-42 -2.5t-55.5 -3.5q-29 -3 -51.5 -5t-37.5 -2q-27 0 -47.5 13.5t-20.5 37.5q0 9 3.5 21t13 30
t26 42t42.5 56q-18 -4 -38 -14t-35 -10q-8 0 -12.5 6t-7 14.5t-3.5 17.5t-1 14q0 4 17 7t39.5 5t45 3.5t33.5 1.5q31 36 50.5 60t30.5 40t16.5 25t7.5 14q-11 8 -32 8q-41 0 -74 -16.5t-72 -45.5l-6 -4q-25 0 -25 33q0 15 24.5 29t59 25t71.5 17.5t63 6.5q60 0 60 -38
q0 -23 -24 -53l-89 -99q19 1 37.5 1h37.5q20 0 39 -10t19 -29z" />
    <glyph glyph-name="clickdental" unicode="&#x1c0;" horiz-adv-x="114" 
d="M94 10q0 -26 -28 -26q-44 0 -43 181l3 449q0 11 -3 31.5t-3 30.5q19 14 32 14q14 0 28 -10t14 -24q0 -10 -5 -26q-6 -20 -7 -25q-12 -68 -12 -190q0 -197 -1 -190q3 -123 16 -185q0 -3 4.5 -13.5t4.5 -16.5z" />
    <glyph glyph-name="clicklateral" unicode="&#x1c1;" horiz-adv-x="228" 
d="M94 10q0 -26 -28 -26q-44 0 -43 181l3 449q0 11 -3 31.5t-3 30.5q19 14 32 14q14 0 28 -10t14 -24q0 -10 -5 -26q-6 -20 -7 -25q-12 -68 -12 -190q0 -197 -1 -190q3 -123 16 -185q0 -3 4.5 -13.5t4.5 -16.5zM208 10q0 -26 -28 -26q-44 0 -43 181l3 449q0 11 -3 31.5
t-3 30.5q19 14 32 14q14 0 28 -10t14 -24q0 -10 -5 -26q-6 -20 -7 -25q-12 -68 -12 -190q0 -197 -1 -190q3 -123 16 -185q0 -3 4.5 -13.5t4.5 -16.5z" />
    <glyph glyph-name="clickretroflex" unicode="&#x1c3;" horiz-adv-x="209" 
d="M189 653q-6 -8 -15 -27q-40 -144 -50 -316q0 -6 -2.5 -21.5t-2.5 -24.5q0 -12 16 -76q-4 -4 -14 -12q-4 -1 -15 -1q-14 0 -22 4q-10 20 -10 72v10l29 348q0 4 -6 24.5t-7 22.5q23 20 51 20q25 0 48 -23zM158 58q0 -69 -77 -69q-14 0 -53 18q-8 15 -8 33q0 30 17 40
q12 8 42 8q79 0 79 -30z" />
    <glyph glyph-name="DZcaron" unicode="&#x1c4;" horiz-adv-x="1065" 
d="M469 419q0 -152 -67 -285q-83 -162 -220 -162q-50 0 -94 35q-17 -22 -22 -22q-11 0 -22 7q-14 39 -14 150q0 84 3 249.5t3 250.5q0 2 -1 7.5t-1 8.5q0 22 24 22q12 0 26 -9.5t14 -20.5q0 -12 -6.5 -29.5t-6.5 -28.5v-39q12 7 35 49t47 62q37 32 95 32q108 0 162 -89
q45 -73 45 -188zM410 424q0 91 -26 151q-35 84 -114 84q-56 0 -111 -69q-45 -57 -63 -121q-16 -58 -16 -124v-207q0 -47 25 -81q28 -38 74 -38q80 0 143 84q53 69 72 158q16 79 16 163zM1045 619q0 -54 -123 -168q-114 -100 -229 -200q-123 -116 -123 -174q0 -41 50 -41
q48 0 144.5 11.5t144.5 11.5q26 0 53 -10q34 -13 38 -34q-9 -14 -22 -14q-8 0 -23.5 5.5t-23.5 4.5h-5l-158 -19l-79 -10q-66 0 -112 24q-58 31 -58 92q0 52 36 98q42 54 114 113q8 7 126 98q37 27 106 85q31 30 57 68q36 49 36 77q0 41 -63 41q-64 0 -147.5 -24t-140.5 -57
q-24 -16 -48 -31q-39 -26 -44 -26q-26 0 -25 50v11q70 43 195 83q132 42 207 42q46 0 74 -24q15 -13 29 -39t14 -44zM906 871l-1 -5q-111 -100 -123 -100t-123 100l-1 5q0 4 4.5 11.5t7.5 7.5q19 0 62 -39q13 -12 25 -17q17 -6 25 -10q14 3 50 27q43 39 62 39q3 0 7.5 -7.5
t4.5 -11.5z" />
    <glyph glyph-name="Dzcaron" unicode="&#x1c5;" horiz-adv-x="846" 
d="M469 419q0 -152 -67 -285q-83 -162 -220 -162q-50 0 -94 35q-17 -22 -22 -22q-11 0 -22 7q-14 39 -14 150q0 84 3 249.5t3 250.5q0 2 -1 7.5t-1 8.5q0 22 24 22q12 0 26 -9.5t14 -20.5q0 -12 -6.5 -29.5t-6.5 -28.5v-39q12 7 35 49t47 62q37 32 95 32q108 0 162 -89
q45 -73 45 -188zM410 424q0 91 -26 151q-35 84 -114 84q-56 0 -111 -69q-45 -57 -63 -121q-16 -58 -16 -124v-207q0 -47 25 -81q28 -38 74 -38q80 0 143 84q53 69 72 158q16 79 16 163zM821 386q0 -25 -24 -53l-126 -140q-91 -108 -93 -147q9 -11 34 -11q56 0 179 28
q6 1 14.5 -11.5t8.5 -24.5q0 -27 -39 -27q-35 0 -94 -6.5t-89 -6.5q-26 0 -45 12q-23 14 -23 39q0 38 57 114q20 26 108 129q59 70 63 90q-10 8 -32 8q-40 0 -77 -17q-25 -11 -51 -32q-22 -17 -24 -17q-25 0 -25 33t94 58q76 20 124 20q60 0 60 -38zM796 570l-1 -5
q-111 -100 -123 -100t-123 100l-1 5q0 4 4.5 11.5t7.5 7.5q19 0 62 -39q13 -12 25 -17q17 -6 25 -10q14 3 50 27q43 39 62 39q3 0 7.5 -7.5t4.5 -11.5z" />
    <glyph glyph-name="dzcaron" unicode="&#x1c6;" horiz-adv-x="714" 
d="M342 635q0 -23 -6 -59q-7 -47 -9 -59q-3 -31 -10 -206q-6 -160 -6 -177q0 -107 19 -151q-7 -11 -18 -11q-10 0 -22.5 10t-15.5 20q0 20 -6 61q-59 -75 -113 -75q-65 0 -100 49q-30 42 -30 111q0 84 31 174q40 118 106 118q28 0 57 -21q6 -4 47 -42q10 68 10 298q7 7 19 7
q19 0 33 -14t14 -33zM267 266q0 44 -20 79q-24 42 -65 42q-50 0 -80 -102q-24 -77 -24 -145q0 -44 14 -76q19 -42 57 -42q62 0 94 96q24 69 24 148zM689 386q0 -25 -24 -53l-126 -140q-91 -108 -93 -147q9 -11 34 -11q56 0 179 28q6 1 14.5 -11.5t8.5 -24.5q0 -27 -39 -27
q-35 0 -94 -6.5t-89 -6.5q-26 0 -45 12q-23 14 -23 39q0 38 57 114q20 26 108 129q59 70 63 90q-10 8 -32 8q-40 0 -77 -17q-25 -11 -51 -32q-22 -17 -24 -17q-25 0 -25 33t94 58q76 20 124 20q60 0 60 -38zM664 570l-1 -5q-111 -100 -123 -100t-123 100l-1 5q0 4 4.5 11.5
t7.5 7.5q19 0 62 -39q13 -12 25 -17q17 -6 25 -10q14 3 50 27q43 39 62 39q3 0 7.5 -7.5t4.5 -11.5z" />
    <glyph glyph-name="LJ" unicode="&#x1c7;" horiz-adv-x="798" 
d="M369 22q-92 -35 -208 -35q-86 0 -118 67q-23 47 -23 144q0 62 9.5 185t9.5 184q0 13 -2 38t-2 38q0 10 1 21q11 13 30 13q35 0 35 -82q0 -71 -13 -213t-13 -213q0 -135 90 -135q30 0 84.5 17t84.5 17q16 0 25.5 -14.5t9.5 -31.5zM848 636q0 -17 -20 -17q-6 0 -18 1.5
t-18 1.5q-48 0 -48 -30q0 -8 1.5 -23t1.5 -23q0 -171 -14 -294q-13 -111 -35 -167q-40 -97 -121 -97q-69 0 -126 81q-52 74 -52 146q0 82 28 82q45 0 45 -76q0 -12 -1 -34.5t-1 -33.5q0 -37 32 -75t69 -38q112 0 112 332q0 231 1 214l-2 2q-28 -1 -80 -30t-56 -29
q-12 0 -19 12.5t-7 24.5q0 17 22 27q18 7 72 22q45 13 70 28l2 3q4 31 27 31q6 0 18.5 -9t18.5 -9q9 0 25.5 4.5t25.5 4.5q15 0 31 -9.5t16 -22.5z" />
    <glyph glyph-name="Lj" unicode="&#x1c8;" horiz-adv-x="557" 
d="M369 22q-92 -35 -208 -35q-86 0 -118 67q-23 47 -23 144q0 62 9.5 185t9.5 184q0 13 -2 38t-2 38q0 10 1 21q11 13 30 13q35 0 35 -82q0 -71 -13 -213t-13 -213q0 -135 90 -135q30 0 84.5 17t84.5 17q16 0 25.5 -14.5t9.5 -31.5zM532 493q0 -14 -12.5 -24t-26.5 -10
q-15 0 -43 36v14q0 30 30 30q20 0 36 -13t16 -33zM526 391q-17 -50 -17 -93q0 -68 3 -203.5t3 -203.5q0 -66 -32 -116q-38 -58 -100 -58q-33 0 -96 29q-70 31 -70 59q0 17 21 17q7 0 10 -1q46 -56 114 -56q104 0 104 181q0 5 -7 439l8 9q31 8 35 8q13 0 24 -11z" />
    <glyph glyph-name="lj" unicode="&#x1c9;" horiz-adv-x="302" 
d="M99 10q0 -26 -28 -26q-44 0 -43 181l3 449q0 11 -3 31.5t-3 30.5q19 14 32 14q14 0 28 -10t14 -24q0 -10 -5 -26q-6 -20 -7 -25q-12 -68 -12 -190q0 -197 -1 -190q3 -123 16 -185q0 -3 4.5 -13.5t4.5 -16.5zM277 493q0 -14 -12.5 -24t-26.5 -10q-15 0 -43 36v14
q0 30 30 30q20 0 36 -13t16 -33zM271 391q-17 -50 -17 -93q0 -68 3 -203.5t3 -203.5q0 -66 -32 -116q-38 -58 -100 -58q-33 0 -96 29q-70 31 -70 59q0 17 21 17q7 0 10 -1q46 -56 114 -56q104 0 104 181q0 5 -7 439l8 9q31 8 35 8q13 0 24 -11z" />
    <glyph glyph-name="NJ" unicode="&#x1ca;" horiz-adv-x="875" 
d="M476 672q1 -9 -9 -13t-19 -8q-14 -8 -25 -90q-9 -65 -9 -104l-3 -303q-1 -40 -17 -87q-21 -60 -53 -60q-49 0 -91 91q-17 36 -47.5 136.5t-90.5 301.5q-11 -2 -12 -20q-2 -27 -16 -140q-11 -86 -11 -140q0 -161 20 -186q11 -16 11 -18q0 -11 -14.5 -21t-25.5 -10
q-40 0 -40 131q0 18 -2 51t-2 51q0 43 13 131.5t13 132.5v129q0 2 -1.5 6.5t-1.5 6.5q0 26 51 26q42 0 58 -26q4 -7 8 -44q3 -24 6 -49q13 -80 72 -263q69 -212 100 -212q27 0 26 107l-3 300q0 53 19 118q25 85 65 85q15 0 31 -10zM925 636q0 -17 -20 -17q-6 0 -18 1.5
t-18 1.5q-48 0 -48 -30q0 -8 1.5 -23t1.5 -23q0 -171 -14 -294q-13 -111 -35 -167q-40 -97 -121 -97q-69 0 -126 81q-52 74 -52 146q0 82 28 82q45 0 45 -76q0 -12 -1 -34.5t-1 -33.5q0 -37 32 -75t69 -38q112 0 112 332q0 231 1 214l-2 2q-28 -1 -80 -30t-56 -29
q-12 0 -19 12.5t-7 24.5q0 17 22 27q18 7 72 22q45 13 70 28l2 3q4 31 27 31q6 0 18.5 -9t18.5 -9q9 0 25.5 4.5t25.5 4.5q15 0 31 -9.5t16 -22.5z" />
    <glyph glyph-name="Nj" unicode="&#x1cb;" horiz-adv-x="634" 
d="M476 672q1 -9 -9 -13t-19 -8q-14 -8 -25 -90q-9 -65 -9 -104l-3 -303q-1 -40 -17 -87q-21 -60 -53 -60q-49 0 -91 91q-17 36 -47.5 136.5t-90.5 301.5q-11 -2 -12 -20q-2 -27 -16 -140q-11 -86 -11 -140q0 -161 20 -186q11 -16 11 -18q0 -11 -14.5 -21t-25.5 -10
q-40 0 -40 131q0 18 -2 51t-2 51q0 43 13 131.5t13 132.5v129q0 2 -1.5 6.5t-1.5 6.5q0 26 51 26q42 0 58 -26q4 -7 8 -44q3 -24 6 -49q13 -80 72 -263q69 -212 100 -212q27 0 26 107l-3 300q0 53 19 118q25 85 65 85q15 0 31 -10zM609 493q0 -14 -12.5 -24t-26.5 -10
q-15 0 -43 36v14q0 30 30 30q20 0 36 -13t16 -33zM603 391q-17 -50 -17 -93q0 -68 3 -203.5t3 -203.5q0 -66 -32 -116q-38 -58 -100 -58q-33 0 -96 29q-70 31 -70 59q0 17 21 17q7 0 10 -1q46 -56 114 -56q104 0 104 181q0 5 -7 439l8 9q31 8 35 8q13 0 24 -11z" />
    <glyph glyph-name="nj" unicode="&#x1cc;" horiz-adv-x="545" 
d="M342 -5q-6 -11 -17 -11t-36 14v8q0 9 1 27t1 26q0 332 -83 332q-26 0 -56 -38q-76 -94 -76 -237q0 -19 6.5 -55.5t6.5 -55.5q0 -15 -21 -15q-40 0 -40 63v227q0 9 2 26t2 26q0 13 -3.5 38t-3.5 37q0 8 12.5 18.5t19.5 10.5q13 0 24 -14q-3 -65 -3 -76q0 -15 1 -29
q9 3 24 33q19 38 32 52q24 28 55 28q12 0 36 -9q54 -20 77 -66q39 -79 39 -209v-151zM520 493q0 -14 -12.5 -24t-26.5 -10q-15 0 -43 36v14q0 30 30 30q20 0 36 -13t16 -33zM514 391q-17 -50 -17 -93q0 -68 3 -203.5t3 -203.5q0 -66 -32 -116q-38 -58 -100 -58q-33 0 -96 29
q-70 31 -70 59q0 17 21 17q7 0 10 -1q46 -56 114 -56q104 0 104 181q0 5 -7 439l8 9q31 8 35 8q13 0 24 -11z" />
    <glyph glyph-name="u01CD" unicode="&#x1cd;" horiz-adv-x="508" 
d="M498 189q0 -32 -25 -32q-10 0 -21 4q0 -51 25 -114q-1 -13 -12.5 -21t-25.5 -8q-12 0 -27 7q-8 16 -8 50q0 9 1 33v33q0 18 -3 24q-9 1 -25.5 -1t-23.5 -2q-43 0 -135 -12q-105 -14 -121 -28q-9 -7 -19 -72q-8 -53 -9 -78q-5 -7 -14 -7q-13 0 -29 13t-16 25q0 6 8 27
t9 26q17 111 65 245q132 375 204 375q77 0 119 -196q15 -69 35 -264q6 -5 30 -11q18 -4 18 -16zM401 218q-25 176 -32 213q-33 168 -70 167q-41 -2 -103 -154q-35 -96 -69 -192q-6 -13 -13 -39q-4 -24 14 -24q6 0 61 10q43 8 212 19zM424 821l-1 -5q-111 -100 -123 -100
t-123 100l-1 5q0 4 4.5 11.5t7.5 7.5q19 0 62 -39q13 -12 25 -17q17 -6 25 -10q14 3 50 27q43 39 62 39q3 0 7.5 -7.5t4.5 -11.5z" />
    <glyph glyph-name="u01CE" unicode="&#x1ce;" horiz-adv-x="361" 
d="M336 -29q0 -14 -22 -14q-24 0 -29 20q-1 3 -1 39q0 10 -3 16q-56 -41 -121 -41q-45 0 -87 25q-48 28 -48 70q0 41 57 80q52 36 96 36h99q6 6 6 21q0 67 -11 101q-18 57 -71 57q-38 0 -70 -48q-29 -44 -29 -84v-6v-5q0 -8 -8 -8q-10 0 -22 12t-12 21q0 28 17 70.5t37 64.5
q25 27 62 27q57 0 105 -36q51 -39 52 -94zM283 130q0 40 -62 40q-49 0 -86 -17q-47 -22 -47 -66q0 -27 25 -42q21 -13 50 -13q43 0 81.5 28t38.5 70zM325 571l-1 -5q-111 -100 -123 -100t-123 100l-1 5q0 4 4.5 11.5t7.5 7.5q19 0 62 -39q13 -12 25 -17q17 -6 25 -10
q14 3 50 27q43 39 62 39q3 0 7.5 -7.5t4.5 -11.5z" />
    <glyph glyph-name="u01CF" unicode="&#x1cf;" horiz-adv-x="172" 
d="M132 641q0 -1 -9 -17q-4 -8 -8 -53q-22 -205 -22 -379q0 -143 30 -187q-19 -13 -30 -13q-43 0 -52 70q-8 62 -8 88l7 474q0 14 19 30t33 16q9 0 24.5 -10.5t15.5 -18.5zM207 815l-1 -5q-111 -100 -123 -100t-123 100l-1 5q0 4 4.5 11.5t7.5 7.5q19 0 62 -39
q13 -12 25 -17q17 -6 25 -10q14 3 50 27q43 39 62 39q3 0 7.5 -7.5t4.5 -11.5z" />
    <glyph glyph-name="u01D0" unicode="&#x1d0;" horiz-adv-x="174" 
d="M123 391q0 -18 -8 -54t-8 -54v-221q0 -22 9 -60q-4 -8 -11 -8q-49 0 -49 47v367q13 7 25 7t25 -7q17 -7 17 -17zM214 561l-1 -5q-111 -100 -123 -100t-123 100l-1 5q0 4 4.5 11.5t7.5 7.5q19 0 62 -39q13 -12 25 -17q17 -6 25 -10q14 3 50 27q43 39 62 39q3 0 7.5 -7.5
t4.5 -11.5z" />
    <glyph glyph-name="u01D1" unicode="&#x1d1;" horiz-adv-x="572" 
d="M536 339q0 -141 -63 -245q-74 -122 -205 -122q-33 0 -77 15q-167 53 -167 300q0 144 64 259q76 138 209 138q116 0 183 -119q56 -99 56 -226zM480 348q0 222 -148 272q-16 6 -28 6q-64 0 -126 -59q-105 -100 -105 -309q0 -19 8 -60q17 -86 56 -128q46 -48 129 -48
q114 0 170 113q44 87 44 213zM404 829l-1 -5q-111 -100 -123 -100t-123 100l-1 5q0 4 4.5 11.5t7.5 7.5q19 0 62 -39q13 -12 25 -17q17 -6 25 -10q14 3 50 27q43 39 62 39q3 0 7.5 -7.5t4.5 -11.5z" />
    <glyph glyph-name="u01D2" unicode="&#x1d2;" 
d="M342 197q0 -86 -38 -150q-45 -77 -125 -77q-81 0 -121 63q-33 52 -33 138q0 85 38 167q48 101 122 101q19 0 54 -22q103 -64 103 -220zM294 198q0 64 -17 115q-25 71 -77 71q-60 0 -94 -79q-26 -61 -26 -131q0 -63 18 -106q26 -59 81 -59q60 0 91 68q24 53 24 121z
M307 585l-1 -5q-111 -100 -123 -100t-123 100l-1 5q0 4 4.5 11.5t7.5 7.5q19 0 62 -39q13 -12 25 -17q17 -6 25 -10q14 3 50 27q43 39 62 39q3 0 7.5 -7.5t4.5 -11.5z" />
    <glyph glyph-name="u01D3" unicode="&#x1d3;" horiz-adv-x="455" 
d="M420 369q0 -81 -19 -178q-23 -121 -61 -162q-49 -52 -114 -52q-78 0 -120 36q-52 44 -65 128q-6 35 -6 150q0 49 6 146.5t6 145.5q0 9 -6 25.5t-6 24.5q0 10 16.5 21t27.5 11q37 0 34 1q13 -3 11 -23q-7 -28 -15 -73q-19 -185 -19 -228v-130q0 -69 26 -121q33 -66 95 -66
q105 0 142 201q18 100 18 285l1 42q1 26 -1 44q-2 23 -10 39.5t-8 18.5q0 10 7.5 22.5t17.5 12.5q11 0 26.5 -9.5t15.5 -19.5v-292zM351 835l-1 -5q-111 -100 -123 -100t-123 100l-1 5q0 4 4.5 11.5t7.5 7.5q19 0 62 -39q13 -12 25 -17q17 -6 25 -10q14 3 50 27q43 39 62 39
q3 0 7.5 -7.5t4.5 -11.5z" />
    <glyph glyph-name="u01D4" unicode="&#x1d4;" horiz-adv-x="331" 
d="M311 374q0 -31 -6.5 -92.5t-6.5 -106.5q0 -18 3.5 -68.5t3.5 -72.5q0 -44 -10 -53q-6 -4 -17 -4q-22 0 -30 19q-4 19 -8 37q-29 -43 -99 -54q-26 -4 -60 23q-31 24 -41 48q-14 33 -14 127v217q-6 30 34 30q28 0 28 -32q0 -48 -3 -125q-3 -98 -3 -125q-1 -36 16 -72
q20 -43 51 -43q51 0 79 68q20 51 20 112v131q0 8 -5.5 22.5t-5.5 23.5q0 5 1 11q14 13 28 14q45 4 45 -35zM289 570l-1 -5q-111 -100 -123 -100t-123 100l-1 5q0 4 4.5 11.5t7.5 7.5q19 0 62 -39q13 -12 25 -17q17 -6 25 -10q14 3 50 27q43 39 62 39q3 0 7.5 -7.5t4.5 -11.5
z" />
    <glyph glyph-name="Udieresismacron" unicode="&#x1d5;" horiz-adv-x="455" 
d="M420 369q0 -81 -19 -178q-23 -121 -61 -162q-49 -52 -114 -52q-78 0 -120 36q-52 44 -65 128q-6 35 -6 150q0 49 6 146.5t6 145.5q0 9 -6 25.5t-6 24.5q0 10 16.5 21t27.5 11q37 0 34 1q13 -3 11 -23q-7 -28 -15 -73q-19 -185 -19 -228v-130q0 -69 26 -121q33 -66 95 -66
q105 0 142 201q18 100 18 285l1 42q1 26 -1 44q-2 23 -10 39.5t-8 18.5q0 10 7.5 22.5t17.5 12.5q11 0 26.5 -9.5t15.5 -19.5v-292zM342 772q0 -17 -11.5 -29.5t-28.5 -12.5t-28.5 12.5t-11.5 29.5q0 16 11.5 28.5t28.5 12.5t28.5 -12.5t11.5 -28.5zM192 772
q0 -17 -11.5 -29.5t-28.5 -12.5t-28.5 12.5t-11.5 29.5q0 16 11.5 28.5t28.5 12.5t28.5 -12.5t11.5 -28.5zM319 853h-184v38h184v-38z" />
    <glyph glyph-name="udieresismacron" unicode="&#x1d6;" horiz-adv-x="331" 
d="M311 374q0 -31 -6.5 -92.5t-6.5 -106.5q0 -18 3.5 -68.5t3.5 -72.5q0 -44 -10 -53q-6 -4 -17 -4q-22 0 -30 19q-4 19 -8 37q-29 -43 -99 -54q-26 -4 -60 23q-31 24 -41 48q-14 33 -14 127v217q-6 30 34 30q28 0 28 -32q0 -48 -3 -125q-3 -98 -3 -125q-1 -36 16 -72
q20 -43 51 -43q51 0 79 68q20 51 20 112v131q0 8 -5.5 22.5t-5.5 23.5q0 5 1 11q14 13 28 14q45 4 45 -35zM280 507q0 -17 -11.5 -29.5t-28.5 -12.5t-28.5 12.5t-11.5 29.5q0 16 11.5 28.5t28.5 12.5t28.5 -12.5t11.5 -28.5zM130 507q0 -17 -11.5 -29.5t-28.5 -12.5
t-28.5 12.5t-11.5 29.5q0 16 11.5 28.5t28.5 12.5t28.5 -12.5t11.5 -28.5zM257 588h-184v38h184v-38z" />
    <glyph glyph-name="Udieresisacute" unicode="&#x1d7;" horiz-adv-x="455" 
d="M420 369q0 -81 -19 -178q-23 -121 -61 -162q-49 -52 -114 -52q-78 0 -120 36q-52 44 -65 128q-6 35 -6 150q0 49 6 146.5t6 145.5q0 9 -6 25.5t-6 24.5q0 10 16.5 21t27.5 11q37 0 34 1q13 -3 11 -23q-7 -28 -15 -73q-19 -185 -19 -228v-130q0 -69 26 -121q33 -66 95 -66
q105 0 142 201q18 100 18 285l1 42q1 26 -1 44q-2 23 -10 39.5t-8 18.5q0 10 7.5 22.5t17.5 12.5q11 0 26.5 -9.5t15.5 -19.5v-292zM342 772q0 -17 -11.5 -29.5t-28.5 -12.5t-28.5 12.5t-11.5 29.5q0 16 11.5 28.5t28.5 12.5t28.5 -12.5t11.5 -28.5zM192 772
q0 -17 -11.5 -29.5t-28.5 -12.5t-28.5 12.5t-11.5 29.5q0 16 11.5 28.5t28.5 12.5t28.5 -12.5t11.5 -28.5zM305 947l-2 -7q-10 -2 -28 -9q-24 -11 -52 -38q-41 -40 -62 -40q-3 0 -7.5 8t-4.5 12l1 5q102 109 124 109q9 0 20 -15.5t11 -24.5z" />
    <glyph glyph-name="udieresisacute" unicode="&#x1d8;" horiz-adv-x="331" 
d="M311 374q0 -31 -6.5 -92.5t-6.5 -106.5q0 -18 3.5 -68.5t3.5 -72.5q0 -44 -10 -53q-6 -4 -17 -4q-22 0 -30 19q-4 19 -8 37q-29 -43 -99 -54q-26 -4 -60 23q-31 24 -41 48q-14 33 -14 127v217q-6 30 34 30q28 0 28 -32q0 -48 -3 -125q-3 -98 -3 -125q-1 -36 16 -72
q20 -43 51 -43q51 0 79 68q20 51 20 112v131q0 8 -5.5 22.5t-5.5 23.5q0 5 1 11q14 13 28 14q45 4 45 -35zM280 507q0 -17 -11.5 -29.5t-28.5 -12.5t-28.5 12.5t-11.5 29.5q0 16 11.5 28.5t28.5 12.5t28.5 -12.5t11.5 -28.5zM130 507q0 -17 -11.5 -29.5t-28.5 -12.5
t-28.5 12.5t-11.5 29.5q0 16 11.5 28.5t28.5 12.5t28.5 -12.5t11.5 -28.5zM243 682l-2 -7q-10 -2 -28 -9q-24 -11 -52 -38q-41 -40 -62 -40q-3 0 -7.5 8t-4.5 12l1 5q102 109 124 109q9 0 20 -15.5t11 -24.5z" />
    <glyph glyph-name="Udieresiscaron" unicode="&#x1d9;" horiz-adv-x="455" 
d="M420 369q0 -81 -19 -178q-23 -121 -61 -162q-49 -52 -114 -52q-78 0 -120 36q-52 44 -65 128q-6 35 -6 150q0 49 6 146.5t6 145.5q0 9 -6 25.5t-6 24.5q0 10 16.5 21t27.5 11q37 0 34 1q13 -3 11 -23q-7 -28 -15 -73q-19 -185 -19 -228v-130q0 -69 26 -121q33 -66 95 -66
q105 0 142 201q18 100 18 285l1 42q1 26 -1 44q-2 23 -10 39.5t-8 18.5q0 10 7.5 22.5t17.5 12.5q11 0 26.5 -9.5t15.5 -19.5v-292zM342 772q0 -17 -11.5 -29.5t-28.5 -12.5t-28.5 12.5t-11.5 29.5q0 16 11.5 28.5t28.5 12.5t28.5 -12.5t11.5 -28.5zM192 772
q0 -17 -11.5 -29.5t-28.5 -12.5t-28.5 12.5t-11.5 29.5q0 16 11.5 28.5t28.5 12.5t28.5 -12.5t11.5 -28.5zM351 958l-1 -5q-111 -100 -123 -100t-123 100l-1 5q0 4 4.5 11.5t7.5 7.5q19 0 62 -39q13 -12 25 -17q17 -6 25 -10q14 3 50 27q43 39 62 39q3 0 7.5 -7.5t4.5 -11.5
z" />
    <glyph glyph-name="udieresiscaron" unicode="&#x1da;" horiz-adv-x="331" 
d="M311 374q0 -31 -6.5 -92.5t-6.5 -106.5q0 -18 3.5 -68.5t3.5 -72.5q0 -44 -10 -53q-6 -4 -17 -4q-22 0 -30 19q-4 19 -8 37q-29 -43 -99 -54q-26 -4 -60 23q-31 24 -41 48q-14 33 -14 127v217q-6 30 34 30q28 0 28 -32q0 -48 -3 -125q-3 -98 -3 -125q-1 -36 16 -72
q20 -43 51 -43q51 0 79 68q20 51 20 112v131q0 8 -5.5 22.5t-5.5 23.5q0 5 1 11q14 13 28 14q45 4 45 -35zM280 507q0 -17 -11.5 -29.5t-28.5 -12.5t-28.5 12.5t-11.5 29.5q0 16 11.5 28.5t28.5 12.5t28.5 -12.5t11.5 -28.5zM130 507q0 -17 -11.5 -29.5t-28.5 -12.5
t-28.5 12.5t-11.5 29.5q0 16 11.5 28.5t28.5 12.5t28.5 -12.5t11.5 -28.5zM289 693l-1 -5q-111 -100 -123 -100t-123 100l-1 5q0 4 4.5 11.5t7.5 7.5q19 0 62 -39q13 -12 25 -17q17 -6 25 -10q14 3 50 27q43 39 62 39q3 0 7.5 -7.5t4.5 -11.5z" />
    <glyph glyph-name="Udieresisgrave" unicode="&#x1db;" horiz-adv-x="455" 
d="M420 369q0 -81 -19 -178q-23 -121 -61 -162q-49 -52 -114 -52q-78 0 -120 36q-52 44 -65 128q-6 35 -6 150q0 49 6 146.5t6 145.5q0 9 -6 25.5t-6 24.5q0 10 16.5 21t27.5 11q37 0 34 1q13 -3 11 -23q-7 -28 -15 -73q-19 -185 -19 -228v-130q0 -69 26 -121q33 -66 95 -66
q105 0 142 201q18 100 18 285l1 42q1 26 -1 44q-2 23 -10 39.5t-8 18.5q0 10 7.5 22.5t17.5 12.5q11 0 26.5 -9.5t15.5 -19.5v-292zM342 772q0 -17 -11.5 -29.5t-28.5 -12.5t-28.5 12.5t-11.5 29.5q0 16 11.5 28.5t28.5 12.5t28.5 -12.5t11.5 -28.5zM192 772
q0 -17 -11.5 -29.5t-28.5 -12.5t-28.5 12.5t-11.5 29.5q0 16 11.5 28.5t28.5 12.5t28.5 -12.5t11.5 -28.5zM305 873q0 -4 -4 -12t-8 -8q-20 0 -61 40q-28 27 -52 38q-11 3 -28 9l-3 7q0 9 11.5 24.5t19.5 15.5q23 0 125 -109v-5z" />
    <glyph glyph-name="udieresisgrave" unicode="&#x1dc;" horiz-adv-x="331" 
d="M311 374q0 -31 -6.5 -92.5t-6.5 -106.5q0 -18 3.5 -68.5t3.5 -72.5q0 -44 -10 -53q-6 -4 -17 -4q-22 0 -30 19q-4 19 -8 37q-29 -43 -99 -54q-26 -4 -60 23q-31 24 -41 48q-14 33 -14 127v217q-6 30 34 30q28 0 28 -32q0 -48 -3 -125q-3 -98 -3 -125q-1 -36 16 -72
q20 -43 51 -43q51 0 79 68q20 51 20 112v131q0 8 -5.5 22.5t-5.5 23.5q0 5 1 11q14 13 28 14q45 4 45 -35zM280 507q0 -17 -11.5 -29.5t-28.5 -12.5t-28.5 12.5t-11.5 29.5q0 16 11.5 28.5t28.5 12.5t28.5 -12.5t11.5 -28.5zM130 507q0 -17 -11.5 -29.5t-28.5 -12.5
t-28.5 12.5t-11.5 29.5q0 16 11.5 28.5t28.5 12.5t28.5 -12.5t11.5 -28.5zM243 608q0 -4 -4 -12t-8 -8q-20 0 -61 40q-28 27 -52 38q-11 3 -28 9l-3 7q0 9 11.5 24.5t19.5 15.5q23 0 125 -109v-5z" />
    <glyph glyph-name="Adieresismacron" unicode="&#x1de;" horiz-adv-x="508" 
d="M498 189q0 -32 -25 -32q-10 0 -21 4q0 -51 25 -114q-1 -13 -12.5 -21t-25.5 -8q-12 0 -27 7q-8 16 -8 50q0 9 1 33v33q0 18 -3 24q-9 1 -25.5 -1t-23.5 -2q-43 0 -135 -12q-105 -14 -121 -28q-9 -7 -19 -72q-8 -53 -9 -78q-5 -7 -14 -7q-13 0 -29 13t-16 25q0 6 8 27
t9 26q17 111 65 245q132 375 204 375q77 0 119 -196q15 -69 35 -264q6 -5 30 -11q18 -4 18 -16zM401 218q-25 176 -32 213q-33 168 -70 167q-41 -2 -103 -154q-35 -96 -69 -192q-6 -13 -13 -39q-4 -24 14 -24q6 0 61 10q43 8 212 19zM369 758q0 -17 -11.5 -29.5t-28.5 -12.5
t-28.5 12.5t-11.5 29.5q0 16 11.5 28.5t28.5 12.5t28.5 -12.5t11.5 -28.5zM219 758q0 -17 -11.5 -29.5t-28.5 -12.5t-28.5 12.5t-11.5 29.5q0 16 11.5 28.5t28.5 12.5t28.5 -12.5t11.5 -28.5zM346 839h-184v38h184v-38z" />
    <glyph glyph-name="adieresismacron" unicode="&#x1df;" horiz-adv-x="361" 
d="M336 -29q0 -14 -22 -14q-24 0 -29 20q-1 3 -1 39q0 10 -3 16q-56 -41 -121 -41q-45 0 -87 25q-48 28 -48 70q0 41 57 80q52 36 96 36h99q6 6 6 21q0 67 -11 101q-18 57 -71 57q-38 0 -70 -48q-29 -44 -29 -84v-6v-5q0 -8 -8 -8q-10 0 -22 12t-12 21q0 28 17 70.5t37 64.5
q25 27 62 27q57 0 105 -36q51 -39 52 -94zM283 130q0 40 -62 40q-49 0 -86 -17q-47 -22 -47 -66q0 -27 25 -42q21 -13 50 -13q43 0 81.5 28t38.5 70zM295 508q0 -17 -11.5 -29.5t-28.5 -12.5t-28.5 12.5t-11.5 29.5q0 16 11.5 28.5t28.5 12.5t28.5 -12.5t11.5 -28.5z
M145 508q0 -17 -11.5 -29.5t-28.5 -12.5t-28.5 12.5t-11.5 29.5q0 16 11.5 28.5t28.5 12.5t28.5 -12.5t11.5 -28.5zM272 589h-184v38h184v-38z" />
    <glyph glyph-name="Adotmacron" unicode="&#x1e0;" horiz-adv-x="508" 
d="M498 189q0 -32 -25 -32q-10 0 -21 4q0 -51 25 -114q-1 -13 -12.5 -21t-25.5 -8q-12 0 -27 7q-8 16 -8 50q0 9 1 33v33q0 18 -3 24q-9 1 -25.5 -1t-23.5 -2q-43 0 -135 -12q-105 -14 -121 -28q-9 -7 -19 -72q-8 -53 -9 -78q-5 -7 -14 -7q-13 0 -29 13t-16 25q0 6 8 27
t9 26q17 111 65 245q132 375 204 375q77 0 119 -196q15 -69 35 -264q6 -5 30 -11q18 -4 18 -16zM401 218q-25 176 -32 213q-33 168 -70 167q-41 -2 -103 -154q-35 -96 -69 -192q-6 -13 -13 -39q-4 -24 14 -24q6 0 61 10q43 8 212 19zM294 759q0 -17 -11.5 -29.5t-28.5 -12.5
t-28.5 12.5t-11.5 29.5q0 16 11.5 28.5t28.5 12.5t28.5 -12.5t11.5 -28.5zM346 839h-184v38h184v-38z" />
    <glyph glyph-name="adotmacron" unicode="&#x1e1;" horiz-adv-x="361" 
d="M336 -29q0 -14 -22 -14q-24 0 -29 20q-1 3 -1 39q0 10 -3 16q-56 -41 -121 -41q-45 0 -87 25q-48 28 -48 70q0 41 57 80q52 36 96 36h99q6 6 6 21q0 67 -11 101q-18 57 -71 57q-38 0 -70 -48q-29 -44 -29 -84v-6v-5q0 -8 -8 -8q-10 0 -22 12t-12 21q0 28 17 70.5t37 64.5
q25 27 62 27q57 0 105 -36q51 -39 52 -94zM283 130q0 40 -62 40q-49 0 -86 -17q-47 -22 -47 -66q0 -27 25 -42q21 -13 50 -13q43 0 81.5 28t38.5 70zM220 508q0 -17 -11.5 -29.5t-28.5 -12.5t-28.5 12.5t-11.5 29.5q0 16 11.5 28.5t28.5 12.5t28.5 -12.5t11.5 -28.5z
M272 589h-184v38h184v-38z" />
    <glyph glyph-name="AEmacron" unicode="&#x1e2;" horiz-adv-x="856" 
d="M836 51q0 -10 -15 -10q-4 0 -11.5 1.5t-11.5 1.5q-45 0 -130 -28.5t-131 -28.5q-105 0 -109 151q-60 4 -50 4q-56 0 -141 -7q-109 -9 -129 -23q-15 -11 -34 -120q-5 -7 -14 -7q-14 0 -27 12.5t-13 25.5q0 1 24 53q29 76 94 225q181 375 253 375q13 0 37 -6.5t37 -6.5
q93 0 213 24q46 10 58 10q56 0 91 -42q-11 -11 -25 -11q-6 0 -18.5 1.5t-18.5 1.5q-56 0 -138 -10q-103 -14 -127 -33q-7 -90 -13 -270l4 -1q5 0 14.5 5t14.5 5q62 0 117 7q14 2 20 2q31 0 68 -18v-16q0 -9 -14 -20q-16 15 -28 15q-30 0 -101 -11q-74 -13 -98 -23
q0 -2 -1 -83q5 -5 27 -10q17 -4 17 -17q0 -32 -29 -32q-10 0 -20 4q2 -109 67 -109q40 0 112.5 28t113.5 28q51 0 63 -23q0 -3 1 -7.5t1 -6.5zM438 559q0 5 -1 22v23q-14 23 -37 23q-29 0 -129 -176q-60 -105 -117 -219q-25 -50 -25 -58q0 -7 13 -7q16 0 40 6q33 7 40 8
q78 12 206 7v85q-14 -4 -17 -4q-17 0 -17 23q0 18 10 24q5 4 25 7q1 31 5 118q4 74 4 118zM520 737h-184v38h184v-38z" />
    <glyph glyph-name="aemacron" unicode="&#x1e3;" horiz-adv-x="594" 
d="M574 99q0 -44 -59 -79q-53 -32 -100 -32q-31 0 -63 14q-36 16 -50 40q-69 -51 -147 -51q-45 0 -87 25q-48 28 -48 70q0 41 57 80q52 36 96 36h99q6 6 6 21q0 67 -11 101q-18 57 -71 57q-38 0 -70 -48q-29 -44 -29 -84v-6v-5q0 -8 -8 -8q-10 0 -22 12t-12 21q0 52 32 103
q36 59 84 59q39 0 84 -23q48 -26 62 -60q33 89 83 89q48 0 105 -48.5t57 -96.5q0 -62 -50 -108t-113 -46q-9 0 -30.5 10t-31.5 10q-13 0 -13 -8q0 -115 95 -115q36 0 66 25q17 15 41 47q18 26 25 26q23 0 23 -28zM505 283q0 35 -18 64q-22 32 -55 32q-37 0 -68 -52
q-28 -47 -28 -88q0 -27 23.5 -46t52.5 -19q41 0 68 35q25 32 25 74zM278 130q0 40 -62 40q-49 0 -86 -17q-47 -22 -47 -66q0 -27 25 -42q21 -13 50 -13q43 0 81.5 28t38.5 70zM389 472h-184v38h184v-38z" />
    <glyph glyph-name="Gcaron" unicode="&#x1e6;" horiz-adv-x="483" 
d="M463 165q0 -82 -70 -131q-64 -45 -156 -45q-120 0 -175 103q-42 79 -42 211q0 133 52 246q67 143 183 143q9 0 30 -8q58 -23 100 -104q40 -76 40 -144q0 -122 -49 -122q-28 0 -28 23q0 4 13 29t13 40q0 71 -27 140q-35 90 -96 90q-62 0 -108 -75q-36 -59 -48.5 -133.5
t-12.5 -129.5q0 -105 18 -155q27 -78 108 -102q26 -8 42 -8q46 0 87 23t62 62q20 36 20 50q0 22 -34 22q-69 0 -110 -19.5t-39 -19.5q-33 0 -33 53q0 12 13 20t73 18q57 10 78 10q40 0 68 -24t28 -63zM365 837l-1 -5q-111 -100 -123 -100t-123 100l-1 5q0 4 4.5 11.5
t7.5 7.5q19 0 62 -39q13 -12 25 -17q17 -6 25 -10q14 3 50 27q43 39 62 39q3 0 7.5 -7.5t4.5 -11.5z" />
    <glyph glyph-name="gcaron" unicode="&#x1e7;" horiz-adv-x="359" 
d="M334 300q0 -6 -1 -17q-21 -100 -21 -161q0 -31 3 -95t3 -96q0 -62 -10 -90q-12 -33 -46 -55t-70 -22q-42 0 -97 18q-70 22 -70 53q0 27 21 27q9 0 16 -12q10 -17 13 -19q8 -8 41 -15q30 -8 45 -8q56 0 85 44q25 37 25 97q0 64 -11 102q-48 -63 -115 -63q-20 0 -47 13.5
t-40 29.5q-27 32 -27 101q0 85 31 183q40 127 105 127q52 0 110 -94q6 -11 19 -29q13 -4 38 -19zM274 245q0 21 -15 35q-3 42 -21 72q-23 37 -62 37q-27 0 -54 -61q-20 -46 -27 -86q-10 -60 -10 -102q0 -123 71 -123q54 0 90 90q28 73 28 138zM303 588l-1 -5
q-111 -100 -123 -100t-123 100l-1 5q0 4 4.5 11.5t7.5 7.5q19 0 62 -39q13 -12 25 -17q17 -6 25 -10q14 3 50 27q43 39 62 39q3 0 7.5 -7.5t4.5 -11.5z" />
    <glyph glyph-name="Kcaron" unicode="&#x1e8;" horiz-adv-x="491" 
d="M531 66q0 -21 -28 -36q-24 -14 -46 -14q-83 0 -165 114q-36 51 -106 189q-30 -34 -64 -85q-44 -65 -44 -91q0 -105 23 -144l2 -17q-11 -13 -24 -13q-22 0 -35 31q-7 16 -17 70.5t-9 72.5l18 489q0 4 -1.5 9.5t-1.5 8.5q0 37 28 37q15 0 39 -15t24 -29q0 -6 -7 -9
q-10 -5 -11 -6q-8 -7 -12 -45q-19 -208 -19 -314l5 -5q160 217 170 230q139 177 184 177q6 0 10 -1q1 -3 17 -24q11 -15 11 -26q0 -14 -12 -14q-2 0 -12 2.5t-12 2.5q-18 0 -95 -85q-73 -82 -85 -109q-10 -22 -10 -38q0 -70 71 -189q76 -128 138 -128q11 0 30 9t29 9
q17 0 17 -14zM398 832l-1 -5q-111 -100 -123 -100t-123 100l-1 5q0 4 4.5 11.5t7.5 7.5q19 0 62 -39q13 -12 25 -17q17 -6 25 -10q14 3 50 27q43 39 62 39q3 0 7.5 -7.5t4.5 -11.5z" />
    <glyph glyph-name="kcaron" unicode="&#x1e9;" horiz-adv-x="381" 
d="M376 -39q-25 -20 -40 -20q-22 0 -76 63q-68 81 -72 85q-12 10 -42 47q-26 31 -46 43l-18 -24v-99q0 -9 6.5 -25.5t6.5 -25.5q0 -6 -8.5 -11.5t-15.5 -5.5q-40 0 -40 43v140q0 13 3.5 38.5t3.5 38.5v276q0 59 -5 93q0 5 -5 22q-3 14 -3 23q0 10 15.5 20t27.5 10
q9 0 19.5 -5.5t10.5 -13.5q0 -1 -5 -24q-7 -27 -7 -105l-4 -290l5 -5q32 20 88 74l70 72q57 58 67 58q15 0 24 -13.5t8 -28.5l-1 -5q-38 -25 -112 -90q-85 -75 -85 -99q0 -9 30 -45q47 -55 93 -110q63 -69 107 -90v-11zM324 837l-1 -5q-111 -100 -123 -100t-123 100l-1 5
q0 4 4.5 11.5t7.5 7.5q19 0 62 -39q13 -12 25 -17q17 -6 25 -10q14 3 50 27q43 39 62 39q3 0 7.5 -7.5t4.5 -11.5z" />
    <glyph glyph-name="Oogonek" unicode="&#x1ea;" horiz-adv-x="572" 
d="M536 339q0 -141 -63 -245q-74 -122 -205 -122q-33 0 -77 15q-167 53 -167 300q0 144 64 259q76 138 209 138q116 0 183 -119q56 -99 56 -226zM480 348q0 222 -148 272q-16 6 -28 6q-64 0 -126 -59q-105 -100 -105 -309q0 -19 8 -60q17 -86 56 -128q46 -48 129 -48
q114 0 170 113q44 87 44 213zM353 -191q0 -15 -26 -26q-21 -8 -39 -8q-34 0 -57.5 24.5t-23.5 58.5q0 52 57 107q8 8 16 8q13 0 13 -13q0 -7 -21 -40.5t-21 -56.5q0 -20 14 -39t33 -19q12 0 23.5 9.5t16.5 9.5q15 0 15 -15z" />
    <glyph glyph-name="oogonek" unicode="&#x1eb;" 
d="M342 197q0 -86 -38 -150q-45 -77 -125 -77q-81 0 -121 63q-33 52 -33 138q0 85 38 167q48 101 122 101q19 0 54 -22q103 -64 103 -220zM294 198q0 64 -17 115q-25 71 -77 71q-60 0 -94 -79q-26 -61 -26 -131q0 -63 18 -106q26 -59 81 -59q60 0 91 68q24 53 24 121z
M256 -193q0 -15 -26 -26q-21 -8 -39 -8q-34 0 -57.5 24.5t-23.5 58.5q0 52 57 107q8 8 16 8q13 0 13 -13q0 -7 -21 -40.5t-21 -56.5q0 -20 14 -39t33 -19q12 0 23.5 9.5t16.5 9.5q15 0 15 -15z" />
    <glyph glyph-name="Oogonekmacron" unicode="&#x1ec;" horiz-adv-x="572" 
d="M536 339q0 -141 -63 -245q-74 -122 -205 -122q-33 0 -77 15q-167 53 -167 300q0 144 64 259q76 138 209 138q116 0 183 -119q56 -99 56 -226zM480 348q0 222 -148 272q-16 6 -28 6q-64 0 -126 -59q-105 -100 -105 -309q0 -19 8 -60q17 -86 56 -128q46 -48 129 -48
q114 0 170 113q44 87 44 213zM353 -191q0 -15 -26 -26q-21 -8 -39 -8q-34 0 -57.5 24.5t-23.5 58.5q0 52 57 107q8 8 16 8q13 0 13 -13q0 -7 -21 -40.5t-21 -56.5q0 -20 14 -39t33 -19q12 0 23.5 9.5t16.5 9.5q15 0 15 -15zM372 724h-184v38h184v-38z" />
    <glyph glyph-name="oogonekmacron" unicode="&#x1ed;" 
d="M342 197q0 -86 -38 -150q-45 -77 -125 -77q-81 0 -121 63q-33 52 -33 138q0 85 38 167q48 101 122 101q19 0 54 -22q103 -64 103 -220zM294 198q0 64 -17 115q-25 71 -77 71q-60 0 -94 -79q-26 -61 -26 -131q0 -63 18 -106q26 -59 81 -59q60 0 91 68q24 53 24 121z
M256 -193q0 -15 -26 -26q-21 -8 -39 -8q-34 0 -57.5 24.5t-23.5 58.5q0 52 57 107q8 8 16 8q13 0 13 -13q0 -7 -21 -40.5t-21 -56.5q0 -20 14 -39t33 -19q12 0 23.5 9.5t16.5 9.5q15 0 15 -15zM275 480h-184v38h184v-38z" />
    <glyph glyph-name="DZ" unicode="&#x1f1;" horiz-adv-x="1065" 
d="M469 419q0 -152 -67 -285q-83 -162 -220 -162q-50 0 -94 35q-17 -22 -22 -22q-11 0 -22 7q-14 39 -14 150q0 84 3 249.5t3 250.5q0 2 -1 7.5t-1 8.5q0 22 24 22q12 0 26 -9.5t14 -20.5q0 -12 -6.5 -29.5t-6.5 -28.5v-39q12 7 35 49t47 62q37 32 95 32q108 0 162 -89
q45 -73 45 -188zM410 424q0 91 -26 151q-35 84 -114 84q-56 0 -111 -69q-45 -57 -63 -121q-16 -58 -16 -124v-207q0 -47 25 -81q28 -38 74 -38q80 0 143 84q53 69 72 158q16 79 16 163zM1045 619q0 -54 -123 -168q-114 -100 -229 -200q-123 -116 -123 -174q0 -41 50 -41
q48 0 144.5 11.5t144.5 11.5q26 0 53 -10q34 -13 38 -34q-9 -14 -22 -14q-8 0 -23.5 5.5t-23.5 4.5h-5l-158 -19l-79 -10q-66 0 -112 24q-58 31 -58 92q0 52 36 98q42 54 114 113q8 7 126 98q37 27 106 85q31 30 57 68q36 49 36 77q0 41 -63 41q-64 0 -147.5 -24t-140.5 -57
q-24 -16 -48 -31q-39 -26 -44 -26q-26 0 -25 50v11q70 43 195 83q132 42 207 42q46 0 74 -24q15 -13 29 -39t14 -44z" />
    <glyph glyph-name="Dz" unicode="&#x1f2;" horiz-adv-x="846" 
d="M469 419q0 -152 -67 -285q-83 -162 -220 -162q-50 0 -94 35q-17 -22 -22 -22q-11 0 -22 7q-14 39 -14 150q0 84 3 249.5t3 250.5q0 2 -1 7.5t-1 8.5q0 22 24 22q12 0 26 -9.5t14 -20.5q0 -12 -6.5 -29.5t-6.5 -28.5v-39q12 7 35 49t47 62q37 32 95 32q108 0 162 -89
q45 -73 45 -188zM410 424q0 91 -26 151q-35 84 -114 84q-56 0 -111 -69q-45 -57 -63 -121q-16 -58 -16 -124v-207q0 -47 25 -81q28 -38 74 -38q80 0 143 84q53 69 72 158q16 79 16 163zM821 386q0 -25 -24 -53l-126 -140q-91 -108 -93 -147q9 -11 34 -11q56 0 179 28
q6 1 14.5 -11.5t8.5 -24.5q0 -27 -39 -27q-35 0 -94 -6.5t-89 -6.5q-26 0 -45 12q-23 14 -23 39q0 38 57 114q20 26 108 129q59 70 63 90q-10 8 -32 8q-40 0 -77 -17q-25 -11 -51 -32q-22 -17 -24 -17q-25 0 -25 33t94 58q76 20 124 20q60 0 60 -38z" />
    </font>
</defs>
</svg>
