<?xml version="1.0" encoding="UTF-8"?>
<svg width="125px" height="104px" viewBox="0 0 125 104" version="1.1" xmlns="http://www.w3.org/2000/svg" xmlns:xlink="http://www.w3.org/1999/xlink">
    <!-- Generator: Sketch 53.2 (72643) - https://sketchapp.com -->
    <title>Fill 3</title>
    <desc>Created with Sketch.</desc>
    <g id="Page-2" stroke="none" stroke-width="1" fill="none" fill-rule="evenodd">
        <g id="v1-copy" transform="translate(-562.000000, -993.000000)" fill="#A6262A">
            <path d="M597.863542,1017.466 C597.863542,1017.466 597.863542,1017.466 597.863542,1017.46496 C597.911458,1017.44416 597.960417,1017.42544 598.011458,1017.40984 C597.963542,1017.4296 597.915625,1017.44936 597.867708,1017.47016 C597.866667,1017.46912 597.864583,1017.46704 597.863542,1017.466 Z M568.525187,1028.38377 C568.884167,1025.99528 569.45081,1023.61611 570.361872,1021.3713 C571.138078,1019.66203 572.098523,1018.07032 573.238141,1016.57005 C575.150167,1014.19897 577.354062,1012.06674 579.76752,1010.18953 C580.752024,1009.46365 581.776414,1008.81987 582.893873,1008.31232 C583.724528,1008.00007 584.578609,1007.76496 585.455482,1007.61567 C586.436819,1007.52424 587.428287,1007.55036 588.408359,1007.65797 C590.630614,1007.99261 592.786392,1008.56112 594.87316,1009.38901 C595.696217,1009.7448 596.501547,1010.1379 597.287884,1010.56895 C598.129302,1011.02923 598.913739,1011.571 599.689946,1012.12769 C600.385746,1012.66262 601.081546,1013.19567 601.753921,1013.75983 C603.325961,1015.07537 604.906865,1016.42201 606.216159,1017.99941 C606.426356,1018.29051 606.617558,1018.59467 606.791667,1018.90754 C606.338985,1019.26643 606.00533,1019.71055 605.671042,1020.19509 C605.634321,1020.24982 605.596967,1020.30394 605.558347,1020.35743 C604.09457,1022.17182 602.572547,1023.9408 601.117634,1025.76078 C600.040062,1027.10929 598.963123,1028.45655 597.886184,1029.80443 C597.095415,1030.79404 596.342001,1031.81412 595.57909,1032.82426 C594.400851,1034.38549 593.22198,1035.94237 592.053238,1037.50857 C590.443844,1039.66382 588.848378,1041.83026 587.202896,1043.96 C587.496031,1043.2534 587.81829,1042.55551 588.119022,1041.85327 C588.456476,1041.06581 588.794563,1040.27774 589.131383,1039.48966 C590.232381,1037.06633 591.287794,1034.61936 592.42488,1032.21283 C593.849403,1029.19922 595.286588,1026.18934 596.681354,1023.16205 C597.275855,1021.87325 597.817806,1020.56145 598.363557,1019.25151 C598.61364,1018.64941 598.847895,1018.04544 599.020104,1017.41722 C599.128367,1017.02287 599.167621,1016.61545 599.222069,1016.21115 C599.268287,1015.86221 599.225868,1015.49709 599.227767,1015.14628 C599.237264,1013.72376 597.81654,1012.70367 596.438868,1013.05883 C595.969726,1013.17888 595.49805,1013.30266 595.095385,1013.58132 C594.678791,1013.86993 594.363497,1014.17346 594.052635,1014.5616 C593.805084,1014.87011 593.53854,1015.15623 593.271363,1015.44609 C592.845906,1015.90699 592.412217,1016.36043 591.999422,1016.83004 C591.153573,1017.79166 590.279232,1018.73587 589.474535,1019.73232 C588.899661,1020.44575 588.323521,1021.15857 587.748013,1021.87201 C587.302929,1022.42311 586.837585,1022.96301 586.41656,1023.53214 C585.521959,1024.74069 584.622927,1025.94489 583.727061,1027.15283 C583.188908,1027.87559 582.657086,1028.60272 582.127163,1029.33108 C582.354454,1028.8708 582.58491,1028.41176 582.821697,1027.95645 C583.494072,1026.66393 584.165814,1025.37203 584.839455,1024.0795 C585.525125,1022.7621 586.211428,1021.44407 586.887602,1020.12231 C587.371306,1019.17624 587.854378,1018.23204 588.338082,1017.28597 C588.632484,1016.70875 588.912957,1016.12096 589.188997,1015.53379 C589.473902,1014.92796 589.736647,1014.30782 589.940512,1013.67089 C590.139312,1013.05075 590.141845,1012.3852 590.196926,1011.74267 C590.236813,1011.28239 589.977233,1010.77297 589.655608,1010.45699 C589.224452,1010.03403 588.452044,1009.76159 587.854378,1009.98924 C587.700529,1010.04833 587.546048,1010.10245 587.393466,1010.16465 C586.950281,1010.34814 586.83442,1010.41469 586.457079,1010.7033 C586.136087,1010.94837 585.892335,1011.24631 585.644785,1011.55918 C585.416228,1011.84779 585.17121,1012.12396 584.93189,1012.40386 C584.510865,1012.89711 584.079076,1013.38414 583.666914,1013.88485 C582.720398,1015.03805 581.737161,1016.17072 580.829265,1017.35377 C579.875151,1018.59654 578.922937,1019.83743 577.968823,1021.08144 C577.189451,1022.0978 576.476556,1023.16889 575.740869,1024.21634 C573.17293,1027.86751 570.768969,1031.62815 568.373871,1035.39065 C568.154178,1033.0656 568.240282,1030.69825 568.525187,1028.38377 Z M613.775354,1020.66256 C614.371072,1019.61727 615.054077,1018.62884 615.775947,1017.66916 C618.270955,1014.49749 621.200486,1011.7111 624.370854,1009.22373 C625.267298,1008.53432 626.176485,1007.85641 627.129634,1007.2507 C627.935605,1006.73828 628.742214,1006.22586 629.548823,1005.71279 C630.204431,1005.29621 630.854305,1004.87643 631.529028,1004.49179 C633.274769,1003.49761 635.070843,1002.59543 636.911516,1001.79166 C639.670296,1000.66905 642.582625,999.928525 645.524899,999.490216 C648.548726,999.129858 651.605046,999.172666 654.626962,999.529191 C657.114961,999.902968 659.553901,1000.51826 661.892174,1001.45174 C664.09219,1002.43762 666.134197,1003.68993 668.062157,1005.13392 C669.827012,1006.56385 671.390533,1008.21102 672.804965,1009.98598 C674.010418,1011.62101 675.017087,1013.37041 675.844083,1015.22587 C677.067376,1018.27039 677.956812,1021.4772 678.451863,1024.72171 C678.717547,1027.05126 678.744944,1029.39103 678.48818,1031.7225 C678.348011,1032.6119 678.167065,1033.48915 677.950441,1034.35555 C677.18206,1034.18176 676.438527,1034.32871 675.744691,1034.69291 C675.108833,1035.02643 674.586386,1035.50882 674.102803,1036.03083 C674.497824,1035.305 674.89412,1034.58045 675.292965,1033.85782 C676.077911,1032.43044 676.859034,1031.00498 677.617221,1029.56355 C678.15496,1028.54317 678.211028,1027.36178 677.617221,1026.34396 C677.043165,1025.36 675.998906,1024.78688 674.87182,1024.76452 C673.828836,1024.74535 672.865493,1025.23541 672.15764,1025.98168 C671.725664,1026.43724 671.440866,1026.98098 671.082798,1027.48446 C670.743207,1027.91829 670.401705,1028.35085 670.062114,1028.78469 C670.783347,1027.56432 671.503943,1026.34396 672.223901,1025.12296 C672.669893,1024.36582 673.106966,1023.60166 673.546587,1022.84196 C673.832659,1022.34935 674.118731,1021.85609 674.404166,1021.36411 C674.780074,1020.71559 675.077614,1020.02363 675.403188,1019.34827 C675.687986,1018.8563 675.830704,1018.32534 675.832615,1017.75541 C675.832615,1016.92097 675.498758,1016.11208 674.910686,1015.52234 C674.32325,1014.9326 673.516004,1014.59716 672.685185,1014.59716 C671.891319,1014.59716 670.999334,1014.91791 670.458409,1015.52234 C670.178072,1015.83542 669.927042,1016.17022 669.676649,1016.50758 C669.702771,1016.47371 669.728894,1016.43985 669.755016,1016.40599 C669.149104,1017.21999 668.600534,1018.07744 668.013098,1018.90613 C667.702815,1019.34444 667.391895,1019.78339 667.07524,1020.21722 C666.299851,1021.27658 665.52701,1022.33785 664.747161,1023.394 C663.056214,1025.67947 661.364629,1027.96493 659.664762,1030.24465 C659.249989,1030.80116 658.834579,1031.35703 658.417895,1031.91291 C658.535765,1031.72186 658.65236,1031.53082 658.769592,1031.33978 C659.69407,1029.83701 660.617274,1028.33424 661.541115,1026.83147 C661.874972,1026.28901 662.204369,1025.744 662.533766,1025.19707 C663.007792,1024.41055 663.485003,1023.62594 663.936093,1022.82599 C664.505688,1021.8152 664.917275,1020.74115 665.361993,1019.67349 C665.505348,1019.13934 665.505348,1018.6052 665.361993,1018.07105 C665.219276,1017.5599 664.961875,1017.11712 664.58979,1016.74079 C664.214519,1016.36701 663.772987,1016.10888 663.263919,1015.96576 C662.545871,1015.76769 661.57552,1015.82072 660.947945,1016.26989 C660.500679,1016.59064 660.064244,1016.91522 659.688336,1017.31902 C659.297774,1017.73944 658.969651,1018.22886 658.646626,1018.70359 C658.443381,1019.00261 658.231216,1019.29269 658.016502,1019.58212 C657.476215,1020.31051 656.935927,1021.03953 656.395639,1021.76728 C655.576288,1022.87072 654.749928,1023.9684 653.926754,1025.06737 C652.192482,1027.38414 650.478598,1029.71625 648.758979,1032.04453 C645.839642,1035.99569 642.95917,1039.97689 640.081246,1043.96 C640.397263,1043.37665 640.719015,1042.79586 641.048412,1042.21954 C641.995827,1040.56023 642.943879,1038.90092 643.891293,1037.24161 C644.469172,1036.23082 645.024114,1035.19958 645.627477,1034.20348 C648.660861,1029.19999 651.682139,1024.19011 654.728903,1019.19365 C655.5336,1017.87617 656.303255,1016.53761 657.078007,1015.2016 C657.673726,1014.17738 658.268169,1013.1519 658.86325,1012.12769 C659.082424,1011.7488 659.289491,1011.36352 659.502293,1010.9808 C659.825319,1010.39554 660.141974,1009.81155 660.41594,1009.20073 C660.621097,1008.74325 660.814785,1008.27811 660.98681,1007.80658 C661.028224,1007.66409 661.058806,1007.5197 661.07792,1007.37274 C661.119334,1007.13697 661.15119,1006.89482 661.180498,1006.65266 C661.318756,1006.1051 661.314296,1005.55945 661.167756,1005.01316 C660.949857,1004.21896 660.419126,1003.52892 659.710635,1003.11297 C659.215584,1002.82481 658.682305,1002.68105 658.110161,1002.6785 C657.314383,1002.6785 656.409019,1002.99924 655.867457,1003.60942 C654.81619,1004.79592 653.822902,1006.03354 652.804765,1007.24879 C651.908321,1008.319 651.019522,1009.39305 650.131998,1010.47093 C648.354401,1012.6318 646.622677,1014.82846 644.882033,1017.01936 C644.778181,1017.1497 644.67624,1017.2826 644.575573,1017.41614 C644.30734,1017.7618 644.039745,1018.10874 643.771513,1018.45441 C645.209519,1016.07885 646.652622,1013.70521 647.99697,1011.27535 C648.534709,1010.30225 649.007461,1009.29657 649.555394,1008.3305 C649.652238,1008.16055 649.734428,1007.98548 649.812158,1007.80658 C649.966344,1007.48839 650.099504,1007.16317 650.210365,1006.82901 C650.298927,1006.48079 650.352446,1006.12682 650.369648,1005.76518 C650.445467,1005.07641 650.270893,1004.34164 649.921745,1003.74424 C649.546474,1003.10083 649.11641,1002.80564 648.53662,1002.36286 C648.019907,1002.0632 647.463054,1001.91178 646.865424,1001.90986 C646.572981,1001.95011 646.2799,1001.98909 645.986182,1002.0287 C645.426781,1002.18588 644.939375,1002.4702 644.526514,1002.88168 C642.95471,1004.88409 641.442796,1006.93315 639.900301,1008.95794 C638.804434,1010.39554 637.706019,1011.82994 636.604419,1013.26307 C635.147298,1015.14729 633.684444,1017.02639 632.22159,1018.90613 C631.314314,1020.07091 630.401305,1021.23185 629.491481,1022.39535 C629.510595,1022.3634 629.529709,1022.33082 629.54946,1022.29887 C631.098964,1019.68499 632.661211,1017.07942 634.124065,1014.41571 C634.397395,1013.91798 634.602551,1013.39277 634.822998,1012.86821 C635.188712,1012.00118 635.026881,1011.12264 634.902003,1010.23005 C634.740808,1009.65501 634.450914,1009.15601 634.031044,1008.73303 C633.6099,1008.31325 633.1123,1008.0219 632.538244,1007.86089 C631.939341,1007.69924 631.339163,1007.69924 630.739622,1007.86089 C630.166203,1008.0219 629.668603,1008.31325 629.246822,1008.73303 C628.970944,1009.09083 628.69188,1009.4448 628.416002,1009.80261 C626.995199,1011.61462 625.545724,1013.40683 624.135115,1015.22907 C624.139575,1015.22268 624.144035,1015.21693 624.148495,1015.21118 C624.141486,1015.22012 624.134478,1015.22971 624.127469,1015.23865 C624.070765,1015.31149 624.01406,1015.38497 623.957355,1015.45845 C622.344775,1017.54265 620.701612,1019.60065 619.103686,1021.69636 C617.426118,1023.89684 615.720517,1026.08136 614.07608,1028.3074 C613.005062,1029.75523 611.934044,1031.20561 610.863025,1032.65343 C610.235451,1033.50513 609.593859,1034.34597 608.979027,1035.20661 C607.555675,1037.19944 606.132323,1039.19292 604.708333,1041.18639 C604.872713,1040.73466 605.039642,1040.28421 605.21549,1039.83696 C606.267395,1037.15088 607.318025,1034.46289 608.3763,1031.77937 C608.974567,1030.25935 609.597045,1028.74699 610.155809,1027.21035 C610.428501,1026.46025 610.696097,1025.70822 610.934384,1024.94661 C611.351705,1024.71723 611.711685,1024.38052 611.953157,1023.94221 C612.556521,1022.84644 613.157336,1021.74939 613.775354,1020.66256 Z M666.639063,1032.0624 C666.671354,1032.0208 666.703646,1031.9792 666.735937,1031.9376 C666.716146,1031.9636 666.695312,1031.9896 666.676563,1032.0156 C666.664062,1032.0312 666.651563,1032.0468 666.639063,1032.0624 Z M666.664062,1052.85772 C666.679688,1052.82028 666.695312,1052.78076 666.710938,1052.74228 C666.710938,1052.74436 666.710938,1052.7454 666.710938,1052.74644 C666.695312,1052.78388 666.679688,1052.82132 666.664062,1052.85772 Z M659.238163,1059.76969 C658.273671,1060.58509 657.30728,1061.39921 656.343421,1062.21461 C655.482155,1062.88269 654.620889,1063.55141 653.759622,1064.22141 C652.67354,1065.065 651.527296,1065.84005 650.413983,1066.64776 C648.307047,1068.17672 646.091186,1069.55003 643.941187,1071.01366 C642.774678,1071.80664 641.586003,1072.57272 640.440393,1073.39517 C639.357477,1074.1715 638.244797,1074.91644 637.189746,1075.73056 C635.386786,1077.12309 633.545829,1078.47718 631.869526,1080.02472 C630.40664,1081.37561 629.110941,1082.88407 627.968497,1084.52 C627.182591,1083.59763 626.394153,1082.67782 625.603181,1081.76057 C624.726716,1080.7434 623.818586,1079.75954 622.910457,1078.77055 C622.524154,1078.34972 622.153683,1077.90134 621.745848,1077.50165 C621.232254,1076.99947 620.716761,1076.49857 620.203168,1075.99575 C619.642711,1075.44873 619.081622,1074.90043 618.521165,1074.35341 C618.175392,1074.01649 617.788456,1073.71672 617.421784,1073.40093 C616.203979,1072.35174 615.002006,1071.28845 613.731005,1070.30394 C612.495468,1069.34634 611.259931,1068.38746 610.024393,1067.42986 C609.580461,1067.08653 609.095999,1066.78484 608.634968,1066.46393 C607.914924,1065.96367 607.194247,1065.46341 606.472303,1064.96187 C605.338092,1064.17337 604.136752,1063.47455 602.968976,1062.73665 C600.717018,1061.31466 598.400465,1059.99387 596.097844,1058.65836 C593.681232,1057.25622 591.212058,1055.9585 588.730218,1054.67871 C587.815122,1054.20599 586.888628,1053.75505 585.958333,1053.31052 C586.176183,1053.14782 586.386433,1052.97232 586.597317,1052.80386 C587.319894,1052.22545 587.93038,1051.50805 588.536433,1050.81115 C589.873295,1049.2713 591.110732,1047.66163 592.332337,1046.02827 C593.299362,1044.7363 594.253088,1043.43473 595.209347,1042.13573 C596.921747,1039.80354 598.648712,1037.48287 600.382011,1035.16605 C600.781613,1034.63249 601.180582,1034.09764 601.580817,1033.56343 C601.856929,1033.21626 602.131774,1032.86845 602.40662,1032.52 C601.967754,1033.58521 601.54092,1034.65619 601.106488,1035.72332 C600.650523,1036.84362 600.164161,1037.95687 599.74366,1039.0919 C599.197136,1040.56962 598.649979,1042.04669 598.103455,1043.52505 C597.725384,1044.54606 597.401776,1045.58181 597.070568,1046.61948 C596.886283,1047.19788 596.700731,1047.77501 596.517078,1048.35341 C596.315061,1048.98882 596.161806,1049.64345 595.985753,1050.28591 C595.848963,1050.78553 595.715341,1051.28386 595.586151,1051.7854 C595.496224,1052.13193 595.406298,1052.47782 595.317638,1052.82435 C595.236578,1053.13822 595.150451,1053.45016 595.088389,1053.76722 C595.019995,1054.11952 594.944634,1054.58198 594.969332,1054.96631 C594.993397,1055.3455 595.069391,1055.72854 595.134619,1056.10454 C595.274575,1056.61184 595.529155,1057.05317 595.897093,1057.42725 C596.266298,1057.79876 596.70263,1058.05561 597.204825,1058.19845 C597.729184,1058.34065 598.25481,1058.34065 598.780435,1058.19845 C599.28263,1058.05561 599.718329,1057.79876 600.088167,1057.42725 C600.409875,1057.13516 600.740449,1056.85525 601.062158,1056.5638 C601.392099,1056.26467 601.685942,1055.92775 601.975987,1055.58891 C602.737827,1054.69472 603.42494,1053.73263 604.110787,1052.77888 C604.516722,1052.21328 604.924557,1051.64897 605.326059,1051.08145 C606.400109,1049.5621 607.475425,1048.04275 608.549475,1046.5234 C608.640668,1046.39465 608.732494,1046.26526 608.823687,1046.13588 C608.769224,1046.25309 608.715395,1046.36967 608.660933,1046.48625 C608.258798,1047.34585 607.856029,1048.20609 607.45326,1049.06569 C607.256942,1049.48588 607.041626,1049.90351 606.86114,1050.33139 C606.230389,1051.82896 605.590139,1053.32333 604.97142,1054.82667 C604.723173,1055.41276 604.473659,1055.99885 604.241244,1056.59199 C604.013261,1057.17359 603.891671,1057.76481 603.764381,1058.37396 C603.606693,1058.96838 603.606693,1059.56215 603.764381,1060.15529 C603.99173,1060.99311 604.54522,1061.71948 605.286162,1062.15824 C606.586928,1062.92817 608.229666,1062.68284 609.299916,1061.63365 C609.904703,1061.04179 610.516455,1060.48388 611.052213,1059.82477 C611.795056,1058.91265 612.480269,1057.95184 613.129385,1056.96926 C613.787367,1055.97067 614.420018,1054.95542 615.077367,1053.95618 C615.970931,1052.59696 616.863861,1051.23903 617.757425,1049.87981 C618.546497,1048.68073 619.334935,1047.481 620.124007,1046.28192 C620.260797,1046.07374 620.400752,1045.86621 620.541975,1045.65996 C620.197468,1046.36839 619.852962,1047.07682 619.508455,1047.78462 C618.937233,1048.96 618.446438,1050.17958 617.922712,1051.37866 C617.791622,1051.67907 617.662432,1051.97949 617.536409,1052.28182 C617.279929,1052.86471 617.014583,1053.44439 616.803066,1054.04586 C616.639678,1054.51024 616.620047,1055.01691 616.564318,1055.50243 C616.511122,1055.97387 616.694774,1056.46132 616.865128,1056.88984 C617.006983,1057.40226 617.263463,1057.84616 617.633301,1058.22343 C618.006305,1058.59879 618.446438,1058.8582 618.951799,1059.00168 C619.482491,1059.14516 620.011916,1059.14516 620.541341,1059.00168 C620.78009,1058.89984 621.017571,1058.79799 621.255053,1058.69679 C621.704684,1058.42776 622.061856,1058.0665 622.327836,1057.61236 C622.3595,1057.57073 622.391164,1057.52909 622.422195,1057.48746 C622.952887,1056.79183 623.480413,1056.09557 623.995906,1055.38778 C624.591826,1054.56789 625.154816,1053.72303 625.712106,1052.87624 C626.464447,1051.73352 627.190191,1050.57031 627.968497,1049.44488 C628.826597,1048.20609 629.684063,1046.96601 630.54153,1045.72721 C631.968952,1043.66469 633.381809,1041.59447 634.86116,1039.5691 C634.980218,1039.4064 635.098008,1039.24371 635.217066,1039.08165 C635.105608,1039.27958 634.993517,1039.4775 634.882059,1039.67543 C634.415961,1040.50492 634.00496,1041.37285 633.570527,1042.21964 C632.68013,1043.95293 631.789099,1045.6875 630.898702,1047.42079 C630.519365,1048.15997 630.139394,1048.89402 629.796154,1049.65114 C629.028614,1051.34471 628.260441,1053.03765 627.492267,1054.73059 C626.921678,1055.99116 626.417584,1057.27416 625.912223,1058.56292 C625.613313,1059.32772 625.312503,1060.09252 625.01296,1060.85796 C624.808409,1061.37999 624.643122,1061.91868 624.460103,1062.44841 C624.260619,1063.03258 624.049735,1063.6129 623.869249,1064.20348 C623.736893,1064.6352 623.604536,1065.06692 623.47218,1065.498 C623.442416,1065.59664 623.410118,1065.694 623.382254,1065.79201 C623.321458,1066.00595 623.259397,1066.21988 623.197968,1066.43382 C623.055479,1066.92319 622.992151,1067.38182 622.928189,1067.89617 C622.898425,1068.13765 622.883859,1068.38041 622.865494,1068.62382 C622.867394,1069.16251 623.00165,1069.66533 623.268263,1070.13036 C623.531075,1070.57937 623.883815,1070.93615 624.327747,1071.20197 C624.787511,1071.47164 625.284006,1071.60743 625.817864,1071.60935 C626.349823,1071.60743 626.847584,1071.47164 627.306715,1071.20197 C627.751914,1070.88299 628.208511,1070.58129 628.60748,1070.2021 C628.913356,1069.91193 629.181869,1069.58782 629.439616,1069.25474 C630.117229,1068.37785 630.706817,1067.45804 631.312236,1066.53183 C631.593415,1066.10074 631.884092,1065.67671 632.16907,1065.24883 C632.798554,1064.30404 633.428038,1063.35925 634.058156,1062.41446 C633.891602,1062.77764 633.730115,1063.14275 633.565461,1063.50657 C633.293149,1064.1106 633.037935,1064.72231 632.797287,1065.33851 C632.612369,1065.8125 632.511043,1066.29931 632.419217,1066.79829 C632.394519,1066.936 632.367288,1067.07372 632.339423,1067.21079 C632.195668,1067.74884 632.195668,1068.28818 632.339423,1068.82687 C632.545874,1069.58718 633.048068,1070.24629 633.719982,1070.64407 C634.871926,1071.3256 636.425372,1071.14753 637.361999,1070.16815 C637.960452,1069.54491 638.563972,1068.94793 639.10353,1068.27088 C639.818508,1067.37349 640.47649,1066.43767 641.101541,1065.47622 C641.683529,1064.58267 642.245885,1063.67503 642.844972,1062.79045 C643.761967,1061.437 644.678329,1060.08419 645.594691,1058.7301 C646.46419,1057.4471 647.333689,1056.16283 648.203188,1054.87919 C648.659153,1054.20727 649.150581,1053.55649 649.624278,1052.89801 C649.680007,1052.81987 649.736369,1052.74172 649.792731,1052.66358 C649.666708,1053.22981 649.677474,1053.81911 649.705971,1054.39559 C649.707871,1055.00154 649.859226,1055.56521 650.158136,1056.08788 C650.453247,1056.59071 650.849049,1056.99168 651.347444,1057.28953 C652.3379,1057.87562 653.706427,1057.92943 654.69245,1057.28953 C655.057221,1057.05317 655.430859,1056.83219 655.79943,1056.60095 C656.340888,1056.25891 656.841183,1055.8464 657.327545,1055.42877 C658.065321,1054.79336 658.710004,1054.04906 659.340755,1053.30732 C659.411049,1053.22533 659.480077,1053.14334 659.549738,1053.06071 C659.568104,1053.16192 659.585836,1053.26248 659.600401,1053.36368 C659.674495,1053.89277 660.186189,1054.59672 660.524363,1054.97335 C661.004392,1055.50756 661.729502,1055.96874 662.432447,1056.12247 C662.648397,1056.16923 662.847882,1056.20126 663.041667,1056.21919 C662.783287,1056.47413 662.522374,1056.7265 662.257028,1056.97439 C661.257706,1057.91021 660.283715,1058.88639 659.238163,1059.76969 Z M574.979192,1048.05633 C573.847487,1047.11859 572.806571,1046.08888 571.884815,1044.93419 C570.97756,1043.6571 570.215314,1042.27768 569.586729,1040.83415 C569.482701,1040.56345 569.384977,1040.28951 569.291667,1040.01557 C569.606274,1039.88669 569.885575,1039.65485 570.07787,1039.34011 C571.708912,1036.66805 573.331758,1033.98693 575.027108,1031.35762 C575.871946,1030.04944 576.714262,1028.74062 577.559731,1027.43244 C577.895144,1026.91241 578.264603,1026.41051 578.615778,1025.90019 C579.142856,1025.13665 579.669934,1024.37311 580.195751,1023.60958 C580.27393,1023.49495 580.35274,1023.38097 580.43155,1023.26764 C580.978172,1022.54037 581.51786,1021.80727 582.065113,1021.08 C582.054395,1021.10072 582.044307,1021.12209 582.033589,1021.14282 C580.741744,1023.7132 579.449898,1026.28098 578.208491,1028.87662 C577.4267,1030.51055 576.615277,1032.13282 575.887708,1033.79394 C575.386479,1034.93957 574.88399,1036.0852 574.382761,1037.23083 C574.105982,1037.86225 573.836769,1038.49756 573.571339,1039.13352 C573.285733,1039.81804 573.007693,1040.50451 572.756764,1041.20329 C572.534836,1041.82241 572.364607,1042.45836 572.172943,1043.08784 C571.896164,1043.9945 572.355781,1044.92836 573.09659,1045.4186 C573.708782,1045.82336 574.387175,1046.1109 575.134919,1045.88553 C575.716849,1045.71068 576.146203,1045.42055 576.593211,1045.00607 C576.707327,1044.89987 576.801898,1044.77034 576.8971,1044.64665 C577.111462,1044.36818 577.315106,1044.0897 577.506771,1043.79504 C577.756439,1043.41035 577.983411,1043.01013 578.257037,1042.6397 C578.196512,1042.72 578.135986,1042.8003 578.07546,1042.88061 C579.548252,1040.90668 580.896841,1038.8408 582.302803,1036.81571 C583.377134,1035.26921 584.450835,1033.72206 585.525166,1032.17426 C586.941846,1030.13493 588.405181,1028.12927 589.853385,1026.1126 C590.291566,1025.55242 590.729116,1024.99288 591.166667,1024.43205 C591.02481,1024.74096 590.883583,1025.04987 590.742356,1025.35878 C590.008482,1026.9694 589.275238,1028.57936 588.540103,1030.18998 C587.385071,1032.72344 586.313261,1035.299 585.202362,1037.85254 C584.277454,1039.97606 583.434507,1042.14039 582.553732,1044.28528 C582.629389,1044.09942 582.706307,1043.91355 582.782595,1043.72833 C582.256778,1045.00737 581.798422,1046.31814 581.317999,1047.61596 C581.10742,1048.18327 580.9353,1048.76806 580.745527,1049.34314 C580.640237,1049.66306 580.536839,1049.98428 580.417679,1050.29902 C580.362828,1050.43631 580.311129,1050.5762 580.262582,1050.71608 C580.201426,1050.88576 580.162967,1051.06191 580.134595,1051.24 C578.330173,1050.33075 576.59258,1049.28874 574.979192,1048.05633 Z M562.613685,1039.58728 C562.827062,1040.5325 563.133157,1041.45495 563.47672,1042.35905 C564.20322,1044.27227 565.115154,1046.12601 566.276029,1047.814 C567.436905,1049.50072 568.810522,1051.01409 570.37402,1052.33322 C571.969271,1053.67956 573.687086,1054.87912 575.511591,1055.8952 C577.191303,1056.83157 578.92817,1057.66038 580.649796,1058.51512 C583.003934,1059.68431 585.319969,1060.91551 587.630923,1062.16441 C588.736548,1062.76166 589.830108,1063.39371 590.909696,1064.03461 C592.094068,1064.73625 593.283521,1065.43093 594.461542,1066.1427 C595.737997,1066.91267 597.015721,1067.6839 598.292176,1068.45261 C599.545133,1069.20739 600.765068,1070.01848 602.000244,1070.80048 C602.580682,1071.16743 603.135717,1071.57867 603.699644,1071.9684 C604.424238,1072.46948 605.146927,1072.97246 605.872156,1073.47101 C606.561823,1073.94615 607.210211,1074.49595 607.874475,1075.00526 C608.312661,1075.34121 608.750212,1075.67716 609.188398,1076.01311 C610.330221,1076.97732 611.470775,1077.94025 612.611328,1078.90445 C613.635667,1079.76806 614.578084,1080.73796 615.549714,1081.65914 C616.501022,1082.55881 617.39327,1083.51668 618.299489,1084.46127 C619.22349,1085.42357 620.131614,1086.39916 621.037833,1087.37855 C621.602394,1087.98655 622.167591,1088.59329 622.743583,1089.18991 C623.295443,1089.76058 623.837777,1090.34012 624.406149,1090.89308 C624.292475,1091.29483 624.190231,1091.69911 624.11593,1092.11162 C624.070841,1092.45453 624.023848,1092.79681 623.977489,1093.13846 C623.980664,1093.8363 624.156573,1094.48543 624.507757,1095.08774 C625.015164,1095.95134 625.855973,1096.59731 626.825062,1096.8624 C627.825269,1097.13762 628.916288,1096.9959 629.811076,1096.47394 C630.155275,1096.27338 630.484232,1096.00069 630.770005,1095.68499 C631.733379,1095.92857 632.775499,1095.68815 633.510889,1094.95614 C634.596828,1093.87426 634.632391,1092.00533 633.510889,1090.92914 C633.271475,1090.69948 633.040316,1090.46033 632.812967,1090.21611 C632.837734,1090.14968 632.859961,1090.08262 632.885363,1090.01619 C633.362922,1089.00137 633.946535,1088.04729 634.608259,1087.14066 C635.781835,1085.7222 637.147832,1084.48215 638.566538,1083.30979 C640.392948,1081.91727 642.239044,1080.55068 644.158171,1079.28659 C645.308885,1078.52928 646.449439,1077.75424 647.612854,1077.01717 C648.769284,1076.28453 649.929524,1075.55885 651.080873,1074.81672 C653.356899,1073.34701 655.645627,1071.88615 657.841636,1070.29686 C659.189852,1069.32064 660.547593,1068.3596 661.855165,1067.3315 C662.932213,1066.48371 664.04927,1065.67072 665.083769,1064.77168 C666.129065,1063.86252 667.213099,1062.98373 668.221561,1062.03535 C668.832481,1061.46024 669.444671,1060.88514 670.056227,1060.31003 C670.496953,1059.895 670.956095,1059.49261 671.38158,1059.06239 C672.470694,1057.95837 673.552188,1056.84612 674.638127,1055.7383 C675.46814,1054.88988 676.247983,1053.99084 677.018302,1053.08801 C678.445898,1051.41584 679.785858,1049.65699 680.991187,1047.81906 C682.049819,1046.20447 682.970009,1044.5013 683.760014,1042.74118 C684.685284,1040.68308 685.513392,1038.59145 686.050646,1036.39795 C686.271009,1035.50208 686.438028,1034.59292 686.570754,1033.68059 C686.759999,1032.37032 686.917492,1031.06194 686.977187,1029.73964 C687.078795,1027.47655 686.827315,1025.22674 686.493912,1022.99276 C685.879817,1018.88667 684.508105,1014.86094 682.729324,1011.11675 C681.789447,1009.13836 680.530774,1007.37509 679.180019,1005.65926 C677.988026,1004.144 676.641081,1002.73123 675.202688,1001.44752 C673.605532,1000.02336 671.810875,998.78711 669.97494,997.690678 C668.126939,996.586654 666.138591,995.71166 664.11722,994.97712 C662.327009,994.325461 660.459956,993.890179 658.579567,993.587126 C656.371491,993.230928 654.139283,993.028471 651.901995,993.002531 C651.761014,993.000633 651.619397,993 651.479051,993 C647.417258,993 643.387218,993.680762 639.496254,994.822747 C635.550041,995.979916 631.835622,997.861502 628.3295,999.982873 C627.192122,1000.66996 626.102373,1001.4393 624.994842,1002.17257 C623.108103,1003.42528 621.303285,1004.7887 619.559432,1006.23437 C617.111942,1008.2621 614.820674,1010.47268 612.779617,1012.90913 C611.853711,1014.01505 610.968449,1015.16146 610.151137,1016.35153 C609.418922,1015.24371 608.501907,1014.26432 607.56838,1013.30708 C606.768215,1012.48713 605.912165,1011.72792 605.057385,1010.9668 C603.677417,1009.73941 602.25744,1008.54934 600.768244,1007.45481 C599.112663,1006.2369 597.230369,1005.34166 595.341724,1004.54891 C593.545797,1003.79539 591.704146,1003.22788 589.79899,1002.82297 C588.731468,1002.59583 587.645529,1002.45411 586.55578,1002.39275 C586.362724,1002.38199 586.169668,1002.37693 585.977248,1002.37693 C585.03229,1002.37693 584.093048,1002.5003 583.161427,1002.66796 C582.289501,1002.82423 581.437261,1003.08743 580.615504,1003.41515 C579.576558,1003.82829 578.582702,1004.29901 577.64092,1004.90005 C576.748037,1005.47009 575.904688,1006.12112 575.068324,1006.76708 C574.258633,1007.39091 573.477519,1008.05142 572.717997,1008.73535 C571.312627,1010.0045 570.00442,1011.38564 568.808617,1012.85282 C567.50422,1014.4516 566.333819,1016.11934 565.407278,1017.96423 C564.459781,1019.85404 563.743442,1021.84128 563.228415,1023.88736 C562.694971,1026.0081 562.346328,1028.17503 562.153907,1030.35271 C561.981173,1032.2906 561.938624,1034.25697 562.105008,1036.19549 C562.202171,1037.33305 562.361569,1038.47377 562.613685,1039.58728 L562.613685,1039.58728 Z" id="Fill-3"></path>
        </g>
    </g>
</svg>